STARTFONT 2.1
FONT -FontForge-MS Sans Serif-Normal-R-Normal-SansSerif-32-240-96-96-P-163-WinRoman-0
SIZE 24 96 96
FONTBOUNDINGBOX 31 37 0 -8
COMMENT "Generated by fontforge, http://fontforge.sourceforge.net"
COMMENT "Copyright (c) 1985 Xiphias, Los Angeles, Ca."
STARTPROPERTIES 32
FOUNDRY "FontForge"
FAMILY_NAME "MS Sans Serif"
WEIGHT_NAME "Normal"
SLANT "R"
SETWIDTH_NAME "Normal"
ADD_STYLE_NAME "SansSerif"
PIXEL_SIZE 32
POINT_SIZE 240
RESOLUTION_X 96
RESOLUTION_Y 96
SPACING "P"
AVERAGE_WIDTH 163
CHARSET_REGISTRY "WinRoman"
CHARSET_ENCODING "0"
FONTNAME_REGISTRY ""
CHARSET_COLLECTIONS "WinRoman"
FONT_NAME "MSSansSerif"
FACE_NAME "MS Sans Serif"
FONT_VERSION "001.000"
FONT_ASCENT 26
FONT_DESCENT 6
UNDERLINE_POSITION -3
UNDERLINE_THICKNESS 2
X_HEIGHT 15
CAP_HEIGHT 22
RAW_ASCENT 800
RAW_DESCENT 200
NORM_SPACE 9
RELATIVE_WEIGHT 40
RELATIVE_SETWIDTH 50
AVG_LOWERCASE_WIDTH 157
AVG_UPPERCASE_WIDTH 207
ENDPROPERTIES
CHARS 224
STARTCHAR space
ENCODING 32
SWIDTH 281 0
DWIDTH 9 0
BBX 1 1 8 -8
BITMAP
00
ENDCHAR
STARTCHAR exclam
ENCODING 33
SWIDTH 281 0
DWIDTH 9 0
BBX 3 23 3 0
BITMAP
E0
E0
E0
E0
E0
E0
E0
E0
E0
E0
E0
E0
E0
E0
40
40
40
00
00
00
E0
E0
E0
ENDCHAR
STARTCHAR quotedbl
ENCODING 34
SWIDTH 344 0
DWIDTH 11 0
BBX 9 8 1 15
BITMAP
E380
E380
E380
E380
E380
4100
4100
4100
ENDCHAR
STARTCHAR numbersign
ENCODING 35
SWIDTH 562 0
DWIDTH 18 0
BBX 16 23 1 0
BITMAP
030C
030C
030C
030C
071C
0618
7FFF
7FFF
0618
0E38
0C30
0C30
0C30
1C70
1860
FFFE
FFFE
1860
38E0
30C0
30C0
30C0
30C0
ENDCHAR
STARTCHAR dollar
ENCODING 36
SWIDTH 562 0
DWIDTH 18 0
BBX 16 28 1 -3
BITMAP
0180
0180
07E0
1FF8
3DBC
399C
718E
718E
7180
3980
3D80
1F80
0FE0
03F8
01FC
019E
018E
0187
E187
E187
E187
718E
799E
3FFC
0FF0
0180
0180
0180
ENDCHAR
STARTCHAR percent
ENCODING 37
SWIDTH 875 0
DWIDTH 28 0
BBX 24 23 2 0
BITMAP
1E00E0
7F80C0
6181C0
C0C180
C0C380
C0C300
C0C700
618600
7F8E00
1E0C00
001C00
001800
003800
003078
0071FE
006186
00E303
00C303
01C303
018303
038186
0301FE
070078
ENDCHAR
STARTCHAR ampersand
ENCODING 38
SWIDTH 688 0
DWIDTH 22 0
BBX 20 23 2 0
BITMAP
030000
0FC000
1FE000
1CE000
387000
387000
387000
1CE000
1FE000
0FC000
1F8000
3FC000
79E380
70F380
F07F00
E03F00
E01E00
E00E00
F01F00
783F80
7FFBC0
3FF1E0
0FC0F0
ENDCHAR
STARTCHAR quotesingle
ENCODING 39
SWIDTH 219 0
DWIDTH 7 0
BBX 3 8 2 15
BITMAP
E0
E0
E0
E0
E0
40
40
40
ENDCHAR
STARTCHAR parenleft
ENCODING 40
SWIDTH 344 0
DWIDTH 11 0
BBX 7 30 3 -7
BITMAP
06
0E
1C
38
38
70
70
70
E0
E0
E0
E0
E0
E0
E0
E0
E0
E0
E0
E0
E0
E0
70
70
70
38
38
1C
0E
06
ENDCHAR
STARTCHAR parenright
ENCODING 41
SWIDTH 344 0
DWIDTH 11 0
BBX 7 30 1 -7
BITMAP
C0
E0
70
38
38
1C
1C
1C
0E
0E
0E
0E
0E
0E
0E
0E
0E
0E
0E
0E
0E
0E
1C
1C
1C
38
38
70
E0
C0
ENDCHAR
STARTCHAR asterisk
ENCODING 42
SWIDTH 375 0
DWIDTH 12 0
BBX 10 9 1 14
BITMAP
0C00
0C00
6D80
FFC0
3F00
1E00
3F00
7380
2100
ENDCHAR
STARTCHAR plus
ENCODING 43
SWIDTH 594 0
DWIDTH 19 0
BBX 17 19 1 2
BITMAP
01C000
01C000
01C000
01C000
01C000
01C000
01C000
01C000
FFFF80
FFFF80
FFFF80
01C000
01C000
01C000
01C000
01C000
01C000
01C000
01C000
ENDCHAR
STARTCHAR comma
ENCODING 44
SWIDTH 281 0
DWIDTH 9 0
BBX 3 6 3 -3
BITMAP
E0
E0
E0
20
40
80
ENDCHAR
STARTCHAR hyphen
ENCODING 45
SWIDTH 312 0
DWIDTH 10 0
BBX 8 2 1 6
BITMAP
FF
FF
ENDCHAR
STARTCHAR period
ENCODING 46
SWIDTH 281 0
DWIDTH 9 0
BBX 3 3 3 0
BITMAP
E0
E0
E0
ENDCHAR
STARTCHAR slash
ENCODING 47
SWIDTH 281 0
DWIDTH 9 0
BBX 9 23 0 0
BITMAP
0380
0380
0380
0700
0700
0700
0E00
0E00
0E00
1C00
1C00
1C00
1C00
3800
3800
3800
7000
7000
7000
7000
E000
E000
E000
ENDCHAR
STARTCHAR zero
ENCODING 48
SWIDTH 562 0
DWIDTH 18 0
BBX 14 23 2 0
BITMAP
0780
1FE0
3FF0
7878
7038
F03C
E01C
E01C
E01C
E01C
E01C
E01C
E01C
E01C
E01C
E01C
E01C
F03C
7038
7878
3FF0
1FE0
0780
ENDCHAR
STARTCHAR one
ENCODING 49
SWIDTH 500 0
DWIDTH 16 0
BBX 6 23 4 0
BITMAP
0C
0C
1C
3C
FC
FC
FC
1C
1C
1C
1C
1C
1C
1C
1C
1C
1C
1C
1C
1C
1C
1C
1C
ENDCHAR
STARTCHAR two
ENCODING 50
SWIDTH 562 0
DWIDTH 18 0
BBX 16 23 1 0
BITMAP
03C0
0FF0
1FF8
3C3C
381C
700E
700E
000E
000E
001C
003C
00F8
03F0
07C0
0F00
1E00
3C00
3800
7000
7000
FFFF
FFFF
FFFF
ENDCHAR
STARTCHAR three
ENCODING 51
SWIDTH 562 0
DWIDTH 18 0
BBX 16 23 1 0
BITMAP
03C0
0FF0
1FF8
3C3C
381C
700E
700E
000E
001C
01FC
01F8
01FC
001E
000E
0007
0007
E007
E007
700E
781E
3FFC
1FF8
07E0
ENDCHAR
STARTCHAR four
ENCODING 52
SWIDTH 562 0
DWIDTH 18 0
BBX 16 23 1 0
BITMAP
0078
00F8
00F8
01F8
03F8
03B8
07B8
0F38
0E38
1E38
3C38
3838
7838
7038
F038
FFFF
FFFF
FFFF
0038
0038
0038
0038
0038
ENDCHAR
STARTCHAR five
ENCODING 53
SWIDTH 562 0
DWIDTH 18 0
BBX 16 23 1 0
BITMAP
1FFE
1FFE
1FFE
1C00
3800
3800
3800
3BF0
7FFC
7FFE
781E
700F
0007
0007
0007
0007
E007
E007
700E
781E
3FFC
1FF8
07E0
ENDCHAR
STARTCHAR six
ENCODING 54
SWIDTH 562 0
DWIDTH 18 0
BBX 15 23 2 0
BITMAP
07C0
1FF0
3FF8
7C78
701C
F01C
E000
E000
E3C0
EFF0
FFF8
FC7C
F01C
F01E
E00E
E00E
E00E
F01E
701C
7C7C
3FF8
1FF0
07C0
ENDCHAR
STARTCHAR seven
ENCODING 55
SWIDTH 562 0
DWIDTH 18 0
BBX 16 23 1 0
BITMAP
FFFF
FFFF
FFFF
000F
001E
003C
0038
0078
0070
00F0
00E0
01E0
01C0
01C0
03C0
0380
0380
0780
0700
0700
0700
0700
0700
ENDCHAR
STARTCHAR eight
ENCODING 56
SWIDTH 562 0
DWIDTH 18 0
BBX 16 23 1 0
BITMAP
03C0
0FF0
1FF8
3C3C
381C
700E
700E
700E
381C
3FFC
1FF8
3FFC
781E
700E
E007
E007
E007
E007
700E
781E
3FFC
1FF8
07E0
ENDCHAR
STARTCHAR nine
ENCODING 57
SWIDTH 562 0
DWIDTH 18 0
BBX 15 23 1 0
BITMAP
07C0
1FF0
3FF8
7C7C
701C
F01E
E00E
E00E
E00E
F01E
701E
7C7E
3FFE
1FEE
078E
000E
000E
701E
701C
3C7C
3FF8
1FF0
07C0
ENDCHAR
STARTCHAR colon
ENCODING 58
SWIDTH 281 0
DWIDTH 9 0
BBX 3 16 3 0
BITMAP
E0
E0
E0
00
00
00
00
00
00
00
00
00
00
E0
E0
E0
ENDCHAR
STARTCHAR semicolon
ENCODING 59
SWIDTH 281 0
DWIDTH 9 0
BBX 3 19 3 -3
BITMAP
E0
E0
E0
00
00
00
00
00
00
00
00
00
00
E0
E0
E0
20
40
80
ENDCHAR
STARTCHAR less
ENCODING 60
SWIDTH 594 0
DWIDTH 19 0
BBX 16 16 1 3
BITMAP
0003
000F
003F
00FC
03F0
0FC0
3F00
FC00
FC00
3F00
0FC0
03F0
00FC
003F
000F
0003
ENDCHAR
STARTCHAR equal
ENCODING 61
SWIDTH 594 0
DWIDTH 19 0
BBX 17 9 1 7
BITMAP
FFFF80
FFFF80
FFFF80
000000
000000
000000
FFFF80
FFFF80
FFFF80
ENDCHAR
STARTCHAR greater
ENCODING 62
SWIDTH 594 0
DWIDTH 19 0
BBX 16 16 2 3
BITMAP
C000
F000
FC00
3F00
0FC0
03F0
00FC
003F
003F
00FC
03F0
0FC0
3F00
FC00
F000
C000
ENDCHAR
STARTCHAR question
ENCODING 63
SWIDTH 531 0
DWIDTH 17 0
BBX 15 23 1 0
BITMAP
07C0
1FF0
3FF8
783C
701C
E00E
E00E
000E
000E
001C
003C
0078
00F0
01E0
01C0
0380
0380
0000
0000
0000
0380
0380
0380
ENDCHAR
STARTCHAR at
ENCODING 64
SWIDTH 938 0
DWIDTH 30 0
BBX 28 26 1 -3
BITMAP
001FC000
00FFF800
03E03E00
07000700
0E000380
1C0001C0
380780C0
301FD860
60387860
60603030
60603030
C0C03030
C0C06030
C1806030
C1806060
C180C060
6181C0C0
60C3E1C0
607F7F80
303E3E00
38000000
1C000000
0F000000
07C03800
01FFF000
003FC000
ENDCHAR
STARTCHAR A
ENCODING 65
SWIDTH 688 0
DWIDTH 22 0
BBX 21 23 1 0
BITMAP
00F800
00F800
01FC00
01FC00
01DC00
03DE00
038E00
038E00
078F00
070700
0F0780
0E0380
0E0380
1E03C0
1C01C0
1FFFC0
3FFFE0
3FFFE0
7800F0
700070
700070
F00078
E00038
ENDCHAR
STARTCHAR B
ENCODING 66
SWIDTH 656 0
DWIDTH 21 0
BBX 17 23 3 0
BITMAP
FFF000
FFFC00
FFFE00
E00E00
E00700
E00700
E00700
E00700
E00E00
FFFE00
FFFC00
FFFE00
E00F00
E00700
E00380
E00380
E00380
E00380
E00780
E00F00
FFFF00
FFFE00
FFF800
ENDCHAR
STARTCHAR C
ENCODING 67
SWIDTH 719 0
DWIDTH 23 0
BBX 21 23 2 0
BITMAP
00FC00
07FF80
0FFFC0
1F03E0
3C00F0
780078
700038
700038
E00000
E00000
E00000
E00000
E00000
E00000
E00000
700038
700038
780078
3C00F0
1F03E0
0FFFC0
07FF80
00FC00
ENDCHAR
STARTCHAR D
ENCODING 68
SWIDTH 719 0
DWIDTH 23 0
BBX 19 23 3 0
BITMAP
FFE000
FFFC00
FFFE00
E01F00
E00780
E003C0
E001C0
E001C0
E000E0
E000E0
E000E0
E000E0
E000E0
E000E0
E000E0
E001C0
E001C0
E003C0
E00780
E01F00
FFFE00
FFFC00
FFE000
ENDCHAR
STARTCHAR E
ENCODING 69
SWIDTH 656 0
DWIDTH 21 0
BBX 17 23 3 0
BITMAP
FFFF80
FFFF80
FFFF80
E00000
E00000
E00000
E00000
E00000
E00000
FFFE00
FFFE00
FFFE00
E00000
E00000
E00000
E00000
E00000
E00000
E00000
E00000
FFFF80
FFFF80
FFFF80
ENDCHAR
STARTCHAR F
ENCODING 70
SWIDTH 625 0
DWIDTH 20 0
BBX 17 23 3 0
BITMAP
FFFF80
FFFF80
FFFF80
E00000
E00000
E00000
E00000
E00000
E00000
FFFC00
FFFC00
FFFC00
E00000
E00000
E00000
E00000
E00000
E00000
E00000
E00000
E00000
E00000
E00000
ENDCHAR
STARTCHAR G
ENCODING 71
SWIDTH 781 0
DWIDTH 25 0
BBX 21 23 2 0
BITMAP
00FC00
07FF80
0FFFC0
1F03E0
3C00F0
780078
700038
700038
E00000
E00000
E00000
E00FF8
E00FF8
E00FF8
E00038
700038
700078
780078
3C00F8
1F03F8
0FFFB8
07FF38
00FC38
ENDCHAR
STARTCHAR H
ENCODING 72
SWIDTH 719 0
DWIDTH 23 0
BBX 18 23 3 0
BITMAP
E001C0
E001C0
E001C0
E001C0
E001C0
E001C0
E001C0
E001C0
E001C0
FFFFC0
FFFFC0
FFFFC0
E001C0
E001C0
E001C0
E001C0
E001C0
E001C0
E001C0
E001C0
E001C0
E001C0
E001C0
ENDCHAR
STARTCHAR I
ENCODING 73
SWIDTH 250 0
DWIDTH 8 0
BBX 3 23 3 0
BITMAP
E0
E0
E0
E0
E0
E0
E0
E0
E0
E0
E0
E0
E0
E0
E0
E0
E0
E0
E0
E0
E0
E0
E0
ENDCHAR
STARTCHAR J
ENCODING 74
SWIDTH 500 0
DWIDTH 16 0
BBX 13 23 1 0
BITMAP
0038
0038
0038
0038
0038
0038
0038
0038
0038
0038
0038
0038
0038
0038
E038
E038
E038
E038
F078
78F0
7FF0
3FE0
0F80
ENDCHAR
STARTCHAR K
ENCODING 75
SWIDTH 656 0
DWIDTH 21 0
BBX 19 23 2 0
BITMAP
E00780
E00F00
E01E00
E03C00
E07800
E0F000
E1E000
E3C000
E78000
EF0000
FF0000
FF8000
FBC000
F1E000
E0F000
E07800
E03C00
E01E00
E00F00
E00780
E003C0
E001E0
E000E0
ENDCHAR
STARTCHAR L
ENCODING 76
SWIDTH 562 0
DWIDTH 18 0
BBX 15 23 3 0
BITMAP
E000
E000
E000
E000
E000
E000
E000
E000
E000
E000
E000
E000
E000
E000
E000
E000
E000
E000
E000
E000
FFFE
FFFE
FFFE
ENDCHAR
STARTCHAR M
ENCODING 77
SWIDTH 812 0
DWIDTH 26 0
BBX 21 23 3 0
BITMAP
F00078
F800F8
F800F8
F800F8
FC01F8
FC01F8
FC01F8
FE03F8
EE03B8
EE03B8
EF07B8
E70738
E70738
E78F38
E38E38
E38E38
E3DE38
E1DC38
E1DC38
E1FC38
E0F838
E0F838
E0F838
ENDCHAR
STARTCHAR N
ENCODING 78
SWIDTH 750 0
DWIDTH 24 0
BBX 19 23 3 0
BITMAP
F000E0
F800E0
F800E0
FC00E0
FE00E0
EE00E0
EF00E0
E780E0
E380E0
E3C0E0
E1E0E0
E0E0E0
E0F0E0
E078E0
E038E0
E03CE0
E01EE0
E00EE0
E00FE0
E007E0
E003E0
E003E0
E001E0
ENDCHAR
STARTCHAR O
ENCODING 79
SWIDTH 781 0
DWIDTH 25 0
BBX 22 23 2 0
BITMAP
00FC00
07FF80
0FFFC0
1F03E0
3C00F0
780078
700038
700038
E0001C
E0001C
E0001C
E0001C
E0001C
E0001C
E0001C
700038
700038
780078
3C00F0
1F03E0
0FFFC0
07FF80
00FC00
ENDCHAR
STARTCHAR P
ENCODING 80
SWIDTH 656 0
DWIDTH 21 0
BBX 17 23 3 0
BITMAP
FFF800
FFFE00
FFFF00
E00F00
E00780
E00380
E00380
E00380
E00380
E00780
E00F00
FFFF00
FFFE00
FFF800
E00000
E00000
E00000
E00000
E00000
E00000
E00000
E00000
E00000
ENDCHAR
STARTCHAR Q
ENCODING 81
SWIDTH 781 0
DWIDTH 25 0
BBX 22 23 2 0
BITMAP
00FC00
07FF80
0FFFC0
1F03E0
3C00F0
780078
700038
700038
E0001C
E0001C
E0001C
E0001C
E0001C
E0001C
E0031C
7007B8
7003F8
7801F8
3C00F0
1F03F8
0FFFFC
07FF9C
00FC08
ENDCHAR
STARTCHAR R
ENCODING 82
SWIDTH 688 0
DWIDTH 22 0
BBX 18 23 3 0
BITMAP
FFF800
FFFE00
FFFF00
E00700
E00380
E00380
E00380
E00380
E00780
E00F00
FFFF00
FFFE00
FFFF00
E00F00
E00780
E00380
E00380
E00380
E00380
E00380
E00380
E003C0
E001C0
ENDCHAR
STARTCHAR S
ENCODING 83
SWIDTH 656 0
DWIDTH 21 0
BBX 19 23 1 0
BITMAP
07FC00
1FFF00
3FFF80
3C0780
7803C0
7001C0
700000
780000
3C0000
3FC000
1FFE00
07FF80
007FC0
0003C0
0001E0
0000E0
E000E0
F000E0
7001E0
7C03C0
3FFFC0
1FFF80
07FE00
ENDCHAR
STARTCHAR T
ENCODING 84
SWIDTH 625 0
DWIDTH 20 0
BBX 19 23 1 0
BITMAP
FFFFE0
FFFFE0
FFFFE0
00E000
00E000
00E000
00E000
00E000
00E000
00E000
00E000
00E000
00E000
00E000
00E000
00E000
00E000
00E000
00E000
00E000
00E000
00E000
00E000
ENDCHAR
STARTCHAR U
ENCODING 85
SWIDTH 719 0
DWIDTH 23 0
BBX 18 23 3 0
BITMAP
E001C0
E001C0
E001C0
E001C0
E001C0
E001C0
E001C0
E001C0
E001C0
E001C0
E001C0
E001C0
E001C0
E001C0
E001C0
E001C0
E001C0
F003C0
700380
7C0F80
3FFF00
1FFE00
07F800
ENDCHAR
STARTCHAR V
ENCODING 86
SWIDTH 688 0
DWIDTH 22 0
BBX 21 23 1 0
BITMAP
E00038
F00078
700070
700070
7800F0
3800E0
3C01E0
1C01C0
1C01C0
1E03C0
0E0380
0E0380
0F0780
070700
078F00
038E00
038E00
03DE00
01DC00
01FC00
01FC00
00F800
00F800
ENDCHAR
STARTCHAR W
ENCODING 87
SWIDTH 969 0
DWIDTH 31 0
BBX 30 23 1 0
BITMAP
E007801C
E007801C
E007801C
F00FC03C
700FC038
700FC038
781FE078
381CE070
381CE070
3C3CF0F0
1C3870E0
1C3870E0
1E7879E0
0E7039C0
0E7039C0
0FF03FC0
07E01F80
07E01F80
07E01F80
03C00F00
03C00F00
03C00F00
03C00F00
ENDCHAR
STARTCHAR X
ENCODING 88
SWIDTH 656 0
DWIDTH 21 0
BBX 20 23 1 0
BITMAP
7000E0
7801E0
3801C0
3C03C0
1E0780
0F0F00
070E00
079E00
03FC00
01F800
00F000
00F000
01F800
03FC00
039C00
079E00
0F0F00
1E0780
1C0380
3C03C0
7801E0
F000F0
E00070
ENDCHAR
STARTCHAR Y
ENCODING 89
SWIDTH 688 0
DWIDTH 22 0
BBX 21 23 1 0
BITMAP
E00038
F00078
7800F0
3C01E0
1C01C0
1E03C0
0F0780
078F00
038E00
03DE00
01FC00
00F800
007000
007000
007000
007000
007000
007000
007000
007000
007000
007000
007000
ENDCHAR
STARTCHAR Z
ENCODING 90
SWIDTH 625 0
DWIDTH 20 0
BBX 19 23 1 0
BITMAP
7FFFC0
7FFFC0
7FFFC0
0003C0
000780
000F00
001E00
003C00
007800
007000
00F000
01E000
03C000
078000
070000
0F0000
1E0000
3C0000
780000
F00000
FFFFE0
FFFFE0
FFFFE0
ENDCHAR
STARTCHAR bracketleft
ENCODING 91
SWIDTH 281 0
DWIDTH 9 0
BBX 6 30 2 -7
BITMAP
FC
FC
FC
E0
E0
E0
E0
E0
E0
E0
E0
E0
E0
E0
E0
E0
E0
E0
E0
E0
E0
E0
E0
E0
E0
E0
E0
FC
FC
FC
ENDCHAR
STARTCHAR backslash
ENCODING 92
SWIDTH 281 0
DWIDTH 9 0
BBX 9 23 0 0
BITMAP
E000
E000
E000
7000
7000
7000
7000
3800
3800
3800
1C00
1C00
1C00
1C00
0E00
0E00
0E00
0700
0700
0700
0380
0380
0380
ENDCHAR
STARTCHAR bracketright
ENCODING 93
SWIDTH 281 0
DWIDTH 9 0
BBX 6 30 1 -7
BITMAP
FC
FC
FC
1C
1C
1C
1C
1C
1C
1C
1C
1C
1C
1C
1C
1C
1C
1C
1C
1C
1C
1C
1C
1C
1C
1C
1C
FC
FC
FC
ENDCHAR
STARTCHAR asciicircum
ENCODING 94
SWIDTH 469 0
DWIDTH 15 0
BBX 13 5 1 18
BITMAP
0F80
1FC0
3DE0
7070
C018
ENDCHAR
STARTCHAR underscore
ENCODING 95
SWIDTH 562 0
DWIDTH 18 0
BBX 18 2 0 -3
BITMAP
FFFFC0
FFFFC0
ENDCHAR
STARTCHAR grave
ENCODING 96
SWIDTH 344 0
DWIDTH 11 0
BBX 7 4 2 19
BITMAP
F8
3C
0E
02
ENDCHAR
STARTCHAR a
ENCODING 97
SWIDTH 562 0
DWIDTH 18 0
BBX 17 16 1 0
BITMAP
0FF000
3FFC00
381C00
700E00
000E00
001E00
0FFE00
3FEE00
780E00
700E00
E00E00
E00E00
E01E00
703F00
7FF780
1FC380
ENDCHAR
STARTCHAR b
ENCODING 98
SWIDTH 562 0
DWIDTH 18 0
BBX 15 23 2 0
BITMAP
E000
E000
E000
E000
E000
E000
E000
E7E0
FFF8
FC7C
F01C
F01E
E00E
E00E
E00E
E00E
E00E
E00E
F01E
F01C
FC7C
FFF8
E7E0
ENDCHAR
STARTCHAR c
ENCODING 99
SWIDTH 500 0
DWIDTH 16 0
BBX 15 16 1 0
BITMAP
0FF0
3FFC
7C3E
700E
F00E
E000
E000
E000
E000
E000
E000
F00E
700E
7C3E
3FFC
0FF0
ENDCHAR
STARTCHAR d
ENCODING 100
SWIDTH 562 0
DWIDTH 18 0
BBX 15 23 1 0
BITMAP
000E
000E
000E
000E
000E
000E
000E
0FCE
3FFE
7C7E
701E
F01E
E00E
E00E
E00E
E00E
E00E
E00E
F01E
701E
7C7E
3FFE
0FCE
ENDCHAR
STARTCHAR e
ENCODING 101
SWIDTH 531 0
DWIDTH 17 0
BBX 15 16 1 0
BITMAP
0FE0
3FF8
7C7C
701C
F01E
E00E
FFFE
FFFE
E000
E000
E000
F01E
701C
7C7C
3FF8
0FE0
ENDCHAR
STARTCHAR f
ENCODING 102
SWIDTH 281 0
DWIDTH 9 0
BBX 9 23 0 0
BITMAP
0380
0F80
0E00
1C00
1C00
1C00
1C00
FF80
FF80
1C00
1C00
1C00
1C00
1C00
1C00
1C00
1C00
1C00
1C00
1C00
1C00
1C00
1C00
ENDCHAR
STARTCHAR g
ENCODING 103
SWIDTH 562 0
DWIDTH 18 0
BBX 15 23 1 -7
BITMAP
0FCE
3FFE
7C7E
701E
F01E
E00E
E00E
E00E
E00E
E00E
E00E
F01E
701E
7C7E
3FFE
0FCE
000E
000E
701C
701C
3C78
1FF0
07C0
ENDCHAR
STARTCHAR h
ENCODING 104
SWIDTH 562 0
DWIDTH 18 0
BBX 14 23 2 0
BITMAP
E000
E000
E000
E000
E000
E000
E000
E7E0
EFF8
F878
F03C
E01C
E01C
E01C
E01C
E01C
E01C
E01C
E01C
E01C
E01C
E01C
E01C
ENDCHAR
STARTCHAR i
ENCODING 105
SWIDTH 219 0
DWIDTH 7 0
BBX 3 23 2 0
BITMAP
E0
E0
E0
00
00
00
00
E0
E0
E0
E0
E0
E0
E0
E0
E0
E0
E0
E0
E0
E0
E0
E0
ENDCHAR
STARTCHAR j
ENCODING 106
SWIDTH 219 0
DWIDTH 7 0
BBX 5 30 0 -7
BITMAP
38
38
38
00
00
00
00
38
38
38
38
38
38
38
38
38
38
38
38
38
38
38
38
38
38
38
38
78
F0
E0
ENDCHAR
STARTCHAR k
ENCODING 107
SWIDTH 500 0
DWIDTH 16 0
BBX 14 23 2 0
BITMAP
E000
E000
E000
E000
E000
E000
E000
E070
E0E0
E1C0
E380
E700
EE00
FE00
FF00
F780
E3C0
E1C0
E1E0
E0F0
E078
E038
E03C
ENDCHAR
STARTCHAR l
ENCODING 108
SWIDTH 219 0
DWIDTH 7 0
BBX 3 23 2 0
BITMAP
E0
E0
E0
E0
E0
E0
E0
E0
E0
E0
E0
E0
E0
E0
E0
E0
E0
E0
E0
E0
E0
E0
E0
ENDCHAR
STARTCHAR m
ENCODING 109
SWIDTH 844 0
DWIDTH 27 0
BBX 23 16 2 0
BITMAP
E7C1F0
EFF3FC
F8F63C
F07C1E
E0380E
E0380E
E0380E
E0380E
E0380E
E0380E
E0380E
E0380E
E0380E
E0380E
E0380E
E0380E
ENDCHAR
STARTCHAR n
ENCODING 110
SWIDTH 562 0
DWIDTH 18 0
BBX 14 16 2 0
BITMAP
E7E0
EFF8
F878
F03C
E01C
E01C
E01C
E01C
E01C
E01C
E01C
E01C
E01C
E01C
E01C
E01C
ENDCHAR
STARTCHAR o
ENCODING 111
SWIDTH 562 0
DWIDTH 18 0
BBX 16 16 1 0
BITMAP
0FF0
3FFC
7C3E
700E
F00F
E007
E007
E007
E007
E007
E007
F00F
700E
7C3E
3FFC
0FF0
ENDCHAR
STARTCHAR p
ENCODING 112
SWIDTH 562 0
DWIDTH 18 0
BBX 15 22 2 -6
BITMAP
E7E0
FFF8
FC7C
F01C
F01E
E00E
E00E
E00E
E00E
E00E
E00E
F01E
F01C
FC7C
FFF8
E7E0
E000
E000
E000
E000
E000
E000
ENDCHAR
STARTCHAR q
ENCODING 113
SWIDTH 562 0
DWIDTH 18 0
BBX 15 22 1 -6
BITMAP
0FCE
3FFE
7C7E
701E
F01E
E00E
E00E
E00E
E00E
E00E
E00E
F01E
701E
7C7E
3FFE
0FCE
000E
000E
000E
000E
000E
000E
ENDCHAR
STARTCHAR r
ENCODING 114
SWIDTH 344 0
DWIDTH 11 0
BBX 9 16 2 0
BITMAP
E780
EF80
F800
F000
E000
E000
E000
E000
E000
E000
E000
E000
E000
E000
E000
E000
ENDCHAR
STARTCHAR s
ENCODING 115
SWIDTH 500 0
DWIDTH 16 0
BBX 14 16 1 0
BITMAP
1FC0
7FF0
7070
E038
E000
E000
7000
7FE0
1FF8
0038
001C
E01C
E01C
7038
7FF8
1FE0
ENDCHAR
STARTCHAR t
ENCODING 116
SWIDTH 281 0
DWIDTH 9 0
BBX 9 22 0 0
BITMAP
1C00
1C00
1C00
1C00
1C00
1C00
FF80
FF80
1C00
1C00
1C00
1C00
1C00
1C00
1C00
1C00
1C00
1C00
1C00
0E00
0F80
0380
ENDCHAR
STARTCHAR u
ENCODING 117
SWIDTH 562 0
DWIDTH 18 0
BBX 14 16 2 0
BITMAP
E01C
E01C
E01C
E01C
E01C
E01C
E01C
E01C
E01C
E01C
E01C
E01C
F03C
787C
7FDC
1F9C
ENDCHAR
STARTCHAR v
ENCODING 118
SWIDTH 469 0
DWIDTH 15 0
BBX 15 16 0 0
BITMAP
E00E
E00E
E00E
701C
701C
3838
3838
1C70
1C70
0EE0
0EE0
0FE0
07C0
07C0
0380
0380
ENDCHAR
STARTCHAR w
ENCODING 119
SWIDTH 719 0
DWIDTH 23 0
BBX 23 16 0 0
BITMAP
E0380E
E0380E
E0380E
707C1C
707C1C
38EE38
38EE38
38EE38
1DC770
1DC770
1DC770
0F83E0
0F83E0
0701C0
0701C0
0701C0
ENDCHAR
STARTCHAR x
ENCODING 120
SWIDTH 469 0
DWIDTH 15 0
BBX 15 16 0 0
BITMAP
E00E
F01E
783C
3C78
1C70
1EF0
0FE0
07C0
07C0
0FE0
1EF0
1C70
3C78
783C
F01E
E00E
ENDCHAR
STARTCHAR y
ENCODING 121
SWIDTH 469 0
DWIDTH 15 0
BBX 15 23 0 -7
BITMAP
E00E
E00E
E00E
701C
701C
3838
3838
1C70
1C70
0EE0
0EE0
07C0
07C0
0380
0380
0700
0700
0E00
0E00
1C00
3C00
F800
E000
ENDCHAR
STARTCHAR z
ENCODING 122
SWIDTH 500 0
DWIDTH 16 0
BBX 14 16 1 0
BITMAP
FFF8
FFF8
FFF8
0078
00F0
01E0
03C0
0780
0700
0F00
1E00
3C00
7800
FFFC
FFFC
FFFC
ENDCHAR
STARTCHAR braceleft
ENCODING 123
SWIDTH 344 0
DWIDTH 11 0
BBX 10 25 1 -1
BITMAP
03C0
0FC0
0F00
1E00
1C00
1C00
1C00
1C00
1C00
1800
3800
7000
E000
7000
3800
1800
1C00
1C00
1C00
1C00
1C00
1E00
0F00
0FC0
03C0
ENDCHAR
STARTCHAR bar
ENCODING 124
SWIDTH 219 0
DWIDTH 7 0
BBX 3 23 2 0
BITMAP
E0
E0
E0
E0
E0
E0
E0
E0
E0
E0
E0
E0
E0
E0
E0
E0
E0
E0
E0
E0
E0
E0
E0
ENDCHAR
STARTCHAR braceright
ENCODING 125
SWIDTH 344 0
DWIDTH 11 0
BBX 10 25 1 -1
BITMAP
F000
FC00
3C00
1E00
0E00
0E00
0E00
0E00
0E00
0E00
0700
0780
03C0
0380
0700
0600
0E00
0E00
0E00
0E00
0E00
1E00
3C00
FC00
F000
ENDCHAR
STARTCHAR asciitilde
ENCODING 126
SWIDTH 594 0
DWIDTH 19 0
BBX 16 5 2 18
BITMAP
3E07
7F07
F3CF
E0FE
E07C
ENDCHAR
STARTCHAR uni007F
ENCODING 127
SWIDTH 344 0
DWIDTH 11 0
BBX 5 23 3 0
BITMAP
F8
F8
F8
F8
F8
F8
F8
F8
F8
F8
F8
F8
F8
F8
F8
F8
F8
F8
F8
F8
F8
F8
F8
ENDCHAR
STARTCHAR Euro
ENCODING 128
SWIDTH 562 0
DWIDTH 18 0
BBX 16 23 0 0
BITMAP
03F0
0FF8
1E1C
3C0E
380E
3807
7007
7000
FF80
FF80
7000
7000
7000
FF00
FF00
7007
7007
3807
380E
3C0E
1E1C
0FF8
03F0
ENDCHAR
STARTCHAR NameMe.129
ENCODING 129
SWIDTH 344 0
DWIDTH 11 0
BBX 5 23 3 0
BITMAP
F8
F8
F8
F8
F8
F8
F8
F8
F8
F8
F8
F8
F8
F8
F8
F8
F8
F8
F8
F8
F8
F8
F8
ENDCHAR
STARTCHAR quotesinglbase
ENCODING 130
SWIDTH 344 0
DWIDTH 11 0
BBX 5 23 3 0
BITMAP
F8
F8
F8
F8
F8
F8
F8
F8
F8
F8
F8
F8
F8
F8
F8
F8
F8
F8
F8
F8
F8
F8
F8
ENDCHAR
STARTCHAR florin
ENCODING 131
SWIDTH 344 0
DWIDTH 11 0
BBX 5 23 3 0
BITMAP
F8
F8
F8
F8
F8
F8
F8
F8
F8
F8
F8
F8
F8
F8
F8
F8
F8
F8
F8
F8
F8
F8
F8
ENDCHAR
STARTCHAR quotedblbase
ENCODING 132
SWIDTH 344 0
DWIDTH 11 0
BBX 5 23 3 0
BITMAP
F8
F8
F8
F8
F8
F8
F8
F8
F8
F8
F8
F8
F8
F8
F8
F8
F8
F8
F8
F8
F8
F8
F8
ENDCHAR
STARTCHAR ellipsis
ENCODING 133
SWIDTH 344 0
DWIDTH 11 0
BBX 5 23 3 0
BITMAP
F8
F8
F8
F8
F8
F8
F8
F8
F8
F8
F8
F8
F8
F8
F8
F8
F8
F8
F8
F8
F8
F8
F8
ENDCHAR
STARTCHAR dagger
ENCODING 134
SWIDTH 344 0
DWIDTH 11 0
BBX 5 23 3 0
BITMAP
F8
F8
F8
F8
F8
F8
F8
F8
F8
F8
F8
F8
F8
F8
F8
F8
F8
F8
F8
F8
F8
F8
F8
ENDCHAR
STARTCHAR daggerdbl
ENCODING 135
SWIDTH 344 0
DWIDTH 11 0
BBX 5 23 3 0
BITMAP
F8
F8
F8
F8
F8
F8
F8
F8
F8
F8
F8
F8
F8
F8
F8
F8
F8
F8
F8
F8
F8
F8
F8
ENDCHAR
STARTCHAR circumflex
ENCODING 136
SWIDTH 344 0
DWIDTH 11 0
BBX 5 23 3 0
BITMAP
F8
F8
F8
F8
F8
F8
F8
F8
F8
F8
F8
F8
F8
F8
F8
F8
F8
F8
F8
F8
F8
F8
F8
ENDCHAR
STARTCHAR perthousand
ENCODING 137
SWIDTH 344 0
DWIDTH 11 0
BBX 5 23 3 0
BITMAP
F8
F8
F8
F8
F8
F8
F8
F8
F8
F8
F8
F8
F8
F8
F8
F8
F8
F8
F8
F8
F8
F8
F8
ENDCHAR
STARTCHAR Scaron
ENCODING 138
SWIDTH 344 0
DWIDTH 11 0
BBX 5 23 3 0
BITMAP
F8
F8
F8
F8
F8
F8
F8
F8
F8
F8
F8
F8
F8
F8
F8
F8
F8
F8
F8
F8
F8
F8
F8
ENDCHAR
STARTCHAR guilsinglleft
ENCODING 139
SWIDTH 344 0
DWIDTH 11 0
BBX 5 23 3 0
BITMAP
F8
F8
F8
F8
F8
F8
F8
F8
F8
F8
F8
F8
F8
F8
F8
F8
F8
F8
F8
F8
F8
F8
F8
ENDCHAR
STARTCHAR OE
ENCODING 140
SWIDTH 344 0
DWIDTH 11 0
BBX 5 23 3 0
BITMAP
F8
F8
F8
F8
F8
F8
F8
F8
F8
F8
F8
F8
F8
F8
F8
F8
F8
F8
F8
F8
F8
F8
F8
ENDCHAR
STARTCHAR NameMe.141
ENCODING 141
SWIDTH 344 0
DWIDTH 11 0
BBX 5 23 3 0
BITMAP
F8
F8
F8
F8
F8
F8
F8
F8
F8
F8
F8
F8
F8
F8
F8
F8
F8
F8
F8
F8
F8
F8
F8
ENDCHAR
STARTCHAR Zcaron
ENCODING 142
SWIDTH 344 0
DWIDTH 11 0
BBX 5 23 3 0
BITMAP
F8
F8
F8
F8
F8
F8
F8
F8
F8
F8
F8
F8
F8
F8
F8
F8
F8
F8
F8
F8
F8
F8
F8
ENDCHAR
STARTCHAR NameMe.143
ENCODING 143
SWIDTH 344 0
DWIDTH 11 0
BBX 5 23 3 0
BITMAP
F8
F8
F8
F8
F8
F8
F8
F8
F8
F8
F8
F8
F8
F8
F8
F8
F8
F8
F8
F8
F8
F8
F8
ENDCHAR
STARTCHAR NameMe.144
ENCODING 144
SWIDTH 344 0
DWIDTH 11 0
BBX 5 23 3 0
BITMAP
F8
F8
F8
F8
F8
F8
F8
F8
F8
F8
F8
F8
F8
F8
F8
F8
F8
F8
F8
F8
F8
F8
F8
ENDCHAR
STARTCHAR quoteleft
ENCODING 145
SWIDTH 281 0
DWIDTH 9 0
BBX 3 6 3 17
BITMAP
20
40
80
E0
E0
E0
ENDCHAR
STARTCHAR quoteright
ENCODING 146
SWIDTH 281 0
DWIDTH 9 0
BBX 3 6 3 17
BITMAP
E0
E0
E0
20
40
80
ENDCHAR
STARTCHAR quotedblleft
ENCODING 147
SWIDTH 344 0
DWIDTH 11 0
BBX 5 23 3 0
BITMAP
F8
F8
F8
F8
F8
F8
F8
F8
F8
F8
F8
F8
F8
F8
F8
F8
F8
F8
F8
F8
F8
F8
F8
ENDCHAR
STARTCHAR quotedblright
ENCODING 148
SWIDTH 344 0
DWIDTH 11 0
BBX 5 23 3 0
BITMAP
F8
F8
F8
F8
F8
F8
F8
F8
F8
F8
F8
F8
F8
F8
F8
F8
F8
F8
F8
F8
F8
F8
F8
ENDCHAR
STARTCHAR bullet
ENCODING 149
SWIDTH 344 0
DWIDTH 11 0
BBX 5 23 3 0
BITMAP
F8
F8
F8
F8
F8
F8
F8
F8
F8
F8
F8
F8
F8
F8
F8
F8
F8
F8
F8
F8
F8
F8
F8
ENDCHAR
STARTCHAR endash
ENCODING 150
SWIDTH 344 0
DWIDTH 11 0
BBX 5 23 3 0
BITMAP
F8
F8
F8
F8
F8
F8
F8
F8
F8
F8
F8
F8
F8
F8
F8
F8
F8
F8
F8
F8
F8
F8
F8
ENDCHAR
STARTCHAR emdash
ENCODING 151
SWIDTH 344 0
DWIDTH 11 0
BBX 5 23 3 0
BITMAP
F8
F8
F8
F8
F8
F8
F8
F8
F8
F8
F8
F8
F8
F8
F8
F8
F8
F8
F8
F8
F8
F8
F8
ENDCHAR
STARTCHAR tilde
ENCODING 152
SWIDTH 344 0
DWIDTH 11 0
BBX 5 23 3 0
BITMAP
F8
F8
F8
F8
F8
F8
F8
F8
F8
F8
F8
F8
F8
F8
F8
F8
F8
F8
F8
F8
F8
F8
F8
ENDCHAR
STARTCHAR trademark
ENCODING 153
SWIDTH 344 0
DWIDTH 11 0
BBX 5 23 3 0
BITMAP
F8
F8
F8
F8
F8
F8
F8
F8
F8
F8
F8
F8
F8
F8
F8
F8
F8
F8
F8
F8
F8
F8
F8
ENDCHAR
STARTCHAR scaron
ENCODING 154
SWIDTH 344 0
DWIDTH 11 0
BBX 5 23 3 0
BITMAP
F8
F8
F8
F8
F8
F8
F8
F8
F8
F8
F8
F8
F8
F8
F8
F8
F8
F8
F8
F8
F8
F8
F8
ENDCHAR
STARTCHAR guilsinglright
ENCODING 155
SWIDTH 344 0
DWIDTH 11 0
BBX 5 23 3 0
BITMAP
F8
F8
F8
F8
F8
F8
F8
F8
F8
F8
F8
F8
F8
F8
F8
F8
F8
F8
F8
F8
F8
F8
F8
ENDCHAR
STARTCHAR oe
ENCODING 156
SWIDTH 344 0
DWIDTH 11 0
BBX 5 23 3 0
BITMAP
F8
F8
F8
F8
F8
F8
F8
F8
F8
F8
F8
F8
F8
F8
F8
F8
F8
F8
F8
F8
F8
F8
F8
ENDCHAR
STARTCHAR NameMe.157
ENCODING 157
SWIDTH 344 0
DWIDTH 11 0
BBX 5 23 3 0
BITMAP
F8
F8
F8
F8
F8
F8
F8
F8
F8
F8
F8
F8
F8
F8
F8
F8
F8
F8
F8
F8
F8
F8
F8
ENDCHAR
STARTCHAR zcaron
ENCODING 158
SWIDTH 344 0
DWIDTH 11 0
BBX 5 23 3 0
BITMAP
F8
F8
F8
F8
F8
F8
F8
F8
F8
F8
F8
F8
F8
F8
F8
F8
F8
F8
F8
F8
F8
F8
F8
ENDCHAR
STARTCHAR Ydieresis
ENCODING 159
SWIDTH 344 0
DWIDTH 11 0
BBX 5 23 3 0
BITMAP
F8
F8
F8
F8
F8
F8
F8
F8
F8
F8
F8
F8
F8
F8
F8
F8
F8
F8
F8
F8
F8
F8
F8
ENDCHAR
STARTCHAR uni00A0
ENCODING 160
SWIDTH 281 0
DWIDTH 9 0
BBX 1 1 8 -8
BITMAP
00
ENDCHAR
STARTCHAR exclamdown
ENCODING 161
SWIDTH 281 0
DWIDTH 9 0
BBX 3 23 3 0
BITMAP
E0
E0
E0
00
00
00
40
40
40
E0
E0
E0
E0
E0
E0
E0
E0
E0
E0
E0
E0
E0
E0
ENDCHAR
STARTCHAR cent
ENCODING 162
SWIDTH 562 0
DWIDTH 18 0
BBX 14 22 2 -3
BITMAP
0060
0060
0060
0FE0
3FF8
7CFC
719C
F19C
E180
E300
E300
E300
E300
E600
F61C
761C
7C7C
3FF8
0FE0
1800
1800
1800
ENDCHAR
STARTCHAR sterling
ENCODING 163
SWIDTH 562 0
DWIDTH 18 0
BBX 16 23 1 0
BITMAP
03C0
0FF0
1FF8
3C3C
381C
700E
700E
7000
7000
3800
3800
FFC0
FFC0
0C00
0C00
0C00
0C00
0C00
1C00
1B83
3FFF
7FFF
307E
ENDCHAR
STARTCHAR currency
ENCODING 164
SWIDTH 562 0
DWIDTH 18 0
BBX 12 14 3 8
BITMAP
4020
EF70
7FE0
70E0
6060
C030
C030
C030
C030
6060
70E0
7FE0
EF70
4020
ENDCHAR
STARTCHAR yen
ENCODING 165
SWIDTH 562 0
DWIDTH 18 0
BBX 16 23 1 0
BITMAP
C003
E007
6006
700E
300C
381C
1818
1C38
0C30
0E70
0660
7FFE
7FFE
03C0
0180
0180
7FFE
7FFE
0180
0180
0180
0180
0180
ENDCHAR
STARTCHAR brokenbar
ENCODING 166
SWIDTH 219 0
DWIDTH 7 0
BBX 3 23 2 0
BITMAP
E0
E0
E0
E0
E0
E0
E0
E0
E0
00
00
00
00
E0
E0
E0
E0
E0
E0
E0
E0
E0
E0
ENDCHAR
STARTCHAR section
ENCODING 167
SWIDTH 562 0
DWIDTH 18 0
BBX 14 29 2 -6
BITMAP
0380
0FE0
1C70
3830
3838
3838
3C00
1E00
0F80
1FE0
39F0
7078
E038
E01C
E01C
E01C
701C
7838
3E70
1FE0
07C0
01E0
00F0
7070
7070
3070
38E0
1FC0
0700
ENDCHAR
STARTCHAR dieresis
ENCODING 168
SWIDTH 344 0
DWIDTH 11 0
BBX 8 3 2 20
BITMAP
E7
E7
E7
ENDCHAR
STARTCHAR copyright
ENCODING 169
SWIDTH 750 0
DWIDTH 24 0
BBX 22 23 1 0
BITMAP
007800
03FF00
0F03C0
1C00E0
380070
300030
607C18
60FE18
41C608
C1800C
C1800C
C1800C
C1800C
C1800C
41C608
60FE18
607C18
300030
380070
1C00E0
0F03C0
03FF00
007800
ENDCHAR
STARTCHAR ordfeminine
ENCODING 170
SWIDTH 375 0
DWIDTH 12 0
BBX 9 14 2 9
BITMAP
3C00
7E00
E300
0F00
7F00
F300
C300
C700
FF00
7980
0000
0000
FF00
FF00
ENDCHAR
STARTCHAR guillemotleft
ENCODING 171
SWIDTH 562 0
DWIDTH 18 0
BBX 15 11 1 3
BITMAP
0E0E
1C1C
3838
7070
E0E0
C0C0
E0E0
7070
3838
1C1C
0E0E
ENDCHAR
STARTCHAR logicalnot
ENCODING 172
SWIDTH 594 0
DWIDTH 19 0
BBX 16 7 2 5
BITMAP
FFFF
FFFF
FFFF
0007
0007
0007
0007
ENDCHAR
STARTCHAR uni00AD
ENCODING 173
SWIDTH 312 0
DWIDTH 10 0
BBX 8 2 1 6
BITMAP
FF
FF
ENDCHAR
STARTCHAR registered
ENCODING 174
SWIDTH 750 0
DWIDTH 24 0
BBX 22 23 1 0
BITMAP
007800
03FF00
0F03C0
1C00E0
380070
300030
61FC18
61FC18
418608
C1860C
C1860C
C1FC0C
C1FE0C
C1860C
418608
618618
618618
300030
380070
1C00E0
0F03C0
03FF00
007800
ENDCHAR
STARTCHAR macron
ENCODING 175
SWIDTH 500 0
DWIDTH 16 0
BBX 16 2 0 24
BITMAP
FFFF
FFFF
ENDCHAR
STARTCHAR degree
ENCODING 176
SWIDTH 344 0
DWIDTH 11 0
BBX 9 9 1 14
BITMAP
1C00
7F00
6300
C180
C180
C180
6300
7F00
1C00
ENDCHAR
STARTCHAR plusminus
ENCODING 177
SWIDTH 594 0
DWIDTH 19 0
BBX 17 22 1 0
BITMAP
01C000
01C000
01C000
01C000
01C000
01C000
01C000
FFFF80
FFFF80
FFFF80
01C000
01C000
01C000
01C000
01C000
01C000
01C000
000000
000000
FFFF80
FFFF80
FFFF80
ENDCHAR
STARTCHAR uni00B2
ENCODING 178
SWIDTH 281 0
DWIDTH 9 0
BBX 8 11 1 12
BITMAP
3C
7E
C3
03
0E
3C
70
60
C0
FF
FF
ENDCHAR
STARTCHAR uni00B3
ENCODING 179
SWIDTH 281 0
DWIDTH 9 0
BBX 8 11 1 12
BITMAP
3C
7E
C3
03
1E
1E
03
03
C3
7E
3C
ENDCHAR
STARTCHAR acute
ENCODING 180
SWIDTH 344 0
DWIDTH 11 0
BBX 7 4 2 19
BITMAP
3E
78
E0
80
ENDCHAR
STARTCHAR uni00B5
ENCODING 181
SWIDTH 562 0
DWIDTH 18 0
BBX 16 23 2 -7
BITMAP
E01C
E01C
E01C
E01C
E01C
E01C
E01C
E01C
E01C
E01C
E01C
E01C
F03C
F87E
FFCF
FF87
E000
E000
E000
E000
E000
E000
E000
ENDCHAR
STARTCHAR paragraph
ENCODING 182
SWIDTH 531 0
DWIDTH 17 0
BBX 14 28 2 -5
BITMAP
0FFC
3FFC
7F30
7F30
FF30
FF30
FF30
FF30
FF30
7F30
7F30
3F30
0F30
0330
0330
0330
0330
0330
0330
0330
0330
0330
0330
0330
0330
0330
0330
0330
ENDCHAR
STARTCHAR periodcentered
ENCODING 183
SWIDTH 281 0
DWIDTH 9 0
BBX 3 3 3 11
BITMAP
E0
E0
E0
ENDCHAR
STARTCHAR cedilla
ENCODING 184
SWIDTH 344 0
DWIDTH 11 0
BBX 7 7 2 -7
BITMAP
30
30
60
7C
06
06
FC
ENDCHAR
STARTCHAR uni00B9
ENCODING 185
SWIDTH 281 0
DWIDTH 9 0
BBX 4 11 2 12
BITMAP
30
F0
F0
30
30
30
30
30
30
30
30
ENDCHAR
STARTCHAR ordmasculine
ENCODING 186
SWIDTH 375 0
DWIDTH 12 0
BBX 8 14 2 9
BITMAP
3C
7E
E7
C3
C3
C3
C3
E7
7E
3C
00
00
FF
FF
ENDCHAR
STARTCHAR guillemotright
ENCODING 187
SWIDTH 562 0
DWIDTH 18 0
BBX 15 11 2 3
BITMAP
E0E0
7070
3838
1C1C
0E0E
0606
0E0E
1C1C
3838
7070
E0E0
ENDCHAR
STARTCHAR onequarter
ENCODING 188
SWIDTH 719 0
DWIDTH 23 0
BBX 19 23 3 0
BITMAP
3001C0
F00380
F00300
300700
300E00
300C00
301C00
303800
303000
307000
30E000
00C000
01C0C0
0381C0
0303C0
0706C0
0E06C0
0C0CC0
1C18C0
381FE0
301FE0
7000C0
E000C0
ENDCHAR
STARTCHAR onehalf
ENCODING 189
SWIDTH 719 0
DWIDTH 23 0
BBX 19 23 3 0
BITMAP
3001C0
F00380
F00300
300700
300E00
300C00
301C00
303800
303000
307000
30E000
00C000
01C780
038FC0
031860
071860
0E01C0
0C0780
1C0E00
380C00
301800
701FE0
E01FE0
ENDCHAR
STARTCHAR threequarters
ENCODING 190
SWIDTH 719 0
DWIDTH 23 0
BBX 20 23 2 0
BITMAP
3C00E0
7E01C0
C30180
030380
1E0700
1E0600
030E00
031C00
C31800
7E3800
3C7000
006000
00E060
01C0E0
0181E0
038360
070360
060660
0E0C60
1C0FF0
180FF0
380060
700060
ENDCHAR
STARTCHAR questiondown
ENCODING 191
SWIDTH 531 0
DWIDTH 17 0
BBX 15 23 1 0
BITMAP
0380
0380
0380
0000
0000
0000
0380
0380
0700
0F00
1E00
3C00
7800
7000
E000
E000
E00E
E00E
701C
783C
3FF8
1FF0
07C0
ENDCHAR
STARTCHAR Agrave
ENCODING 192
SWIDTH 688 0
DWIDTH 22 0
BBX 21 29 1 0
BITMAP
03E000
00F000
003800
000800
000000
000000
00F800
00F800
01FC00
01FC00
01DC00
03DE00
038E00
038E00
078F00
070700
0F0780
0E0380
0E0380
1E03C0
1C01C0
1FFFC0
3FFFE0
3FFFE0
7800F0
700070
700070
F00078
E00038
ENDCHAR
STARTCHAR Aacute
ENCODING 193
SWIDTH 688 0
DWIDTH 22 0
BBX 21 29 1 0
BITMAP
003E00
007800
00E000
008000
000000
000000
00F800
00F800
01FC00
01FC00
01DC00
03DE00
038E00
038E00
078F00
070700
0F0780
0E0380
0E0380
1E03C0
1C01C0
1FFFC0
3FFFE0
3FFFE0
7800F0
700070
700070
F00078
E00038
ENDCHAR
STARTCHAR Acircumflex
ENCODING 194
SWIDTH 688 0
DWIDTH 22 0
BBX 21 29 1 0
BITMAP
007000
00F800
01DC00
010400
000000
000000
00F800
00F800
01FC00
01FC00
01DC00
03DE00
038E00
038E00
078F00
070700
0F0780
0E0380
0E0380
1E03C0
1C01C0
1FFFC0
3FFFE0
3FFFE0
7800F0
700070
700070
F00078
E00038
ENDCHAR
STARTCHAR Atilde
ENCODING 195
SWIDTH 688 0
DWIDTH 22 0
BBX 21 29 1 0
BITMAP
03E180
07F380
0E7F00
0C3E00
000000
000000
00F800
00F800
01FC00
01FC00
01DC00
03DE00
038E00
038E00
078F00
070700
0F0780
0E0380
0E0380
1E03C0
1C01C0
1FFFC0
3FFFE0
3FFFE0
7800F0
700070
700070
F00078
E00038
ENDCHAR
STARTCHAR Adieresis
ENCODING 196
SWIDTH 688 0
DWIDTH 22 0
BBX 21 29 1 0
BITMAP
070700
070700
070700
000000
000000
000000
00F800
00F800
01FC00
01FC00
01DC00
03DE00
038E00
038E00
078F00
070700
0F0780
0E0380
0E0380
1E03C0
1C01C0
1FFFC0
3FFFE0
3FFFE0
7800F0
700070
700070
F00078
E00038
ENDCHAR
STARTCHAR Aring
ENCODING 197
SWIDTH 688 0
DWIDTH 22 0
BBX 21 29 1 0
BITMAP
007000
00F800
018C00
018C00
018C00
00F800
00F800
00F800
01FC00
01FC00
01DC00
03DE00
038E00
038E00
078F00
070700
0F0780
0E0380
0E0380
1E03C0
1C01C0
1FFFC0
3FFFE0
3FFFE0
7800F0
700070
700070
F00078
E00038
ENDCHAR
STARTCHAR AE
ENCODING 198
SWIDTH 1000 0
DWIDTH 32 0
BBX 30 23 1 0
BITMAP
001FFFFC
003FFFFC
003FFFFC
007F0000
007F0000
00E70000
00E70000
01C70000
01C70000
0387FFF0
0387FFF0
0707FFF0
07070000
0E070000
0E070000
1FFF0000
1FFF0000
3FFF0000
38070000
70070000
7007FFFC
E007FFFC
E007FFFC
ENDCHAR
STARTCHAR Ccedilla
ENCODING 199
SWIDTH 719 0
DWIDTH 23 0
BBX 21 30 2 -7
BITMAP
00FC00
07FF80
0FFFC0
1F03E0
3C00F0
780078
700038
700038
E00000
E00000
E00000
E00000
E00000
E00000
E00000
700038
700038
780078
3C00F0
1F03E0
0FFFC0
07FF80
00FC00
003000
003800
003C00
000E00
008E00
00FC00
007800
ENDCHAR
STARTCHAR Egrave
ENCODING 200
SWIDTH 656 0
DWIDTH 21 0
BBX 17 29 3 0
BITMAP
0F8000
03C000
00E000
002000
000000
000000
FFFF80
FFFF80
FFFF80
E00000
E00000
E00000
E00000
E00000
E00000
FFFE00
FFFE00
FFFE00
E00000
E00000
E00000
E00000
E00000
E00000
E00000
E00000
FFFF80
FFFF80
FFFF80
ENDCHAR
STARTCHAR Eacute
ENCODING 201
SWIDTH 656 0
DWIDTH 21 0
BBX 17 29 3 0
BITMAP
007C00
00F000
01C000
010000
000000
000000
FFFF80
FFFF80
FFFF80
E00000
E00000
E00000
E00000
E00000
E00000
FFFE00
FFFE00
FFFE00
E00000
E00000
E00000
E00000
E00000
E00000
E00000
E00000
FFFF80
FFFF80
FFFF80
ENDCHAR
STARTCHAR Ecircumflex
ENCODING 202
SWIDTH 656 0
DWIDTH 21 0
BBX 17 29 3 0
BITMAP
01E000
03F000
073800
040800
000000
000000
FFFF80
FFFF80
FFFF80
E00000
E00000
E00000
E00000
E00000
E00000
FFFE00
FFFE00
FFFE00
E00000
E00000
E00000
E00000
E00000
E00000
E00000
E00000
FFFF80
FFFF80
FFFF80
ENDCHAR
STARTCHAR Edieresis
ENCODING 203
SWIDTH 656 0
DWIDTH 21 0
BBX 17 29 3 0
BITMAP
0E1C00
0E1C00
0E1C00
000000
000000
000000
FFFF80
FFFF80
FFFF80
E00000
E00000
E00000
E00000
E00000
E00000
FFFC00
FFFC00
FFFC00
E00000
E00000
E00000
E00000
E00000
E00000
E00000
E00000
FFFF80
FFFF80
FFFF80
ENDCHAR
STARTCHAR Igrave
ENCODING 204
SWIDTH 250 0
DWIDTH 8 0
BBX 7 29 0 0
BITMAP
F8
3C
0E
02
00
00
1C
1C
1C
1C
1C
1C
1C
1C
1C
1C
1C
1C
1C
1C
1C
1C
1C
1C
1C
1C
1C
1C
1C
ENDCHAR
STARTCHAR Iacute
ENCODING 205
SWIDTH 250 0
DWIDTH 8 0
BBX 6 29 2 0
BITMAP
3C
78
E0
80
00
00
70
70
70
70
70
70
70
70
70
70
70
70
70
70
70
70
70
70
70
70
70
70
70
ENDCHAR
STARTCHAR Icircumflex
ENCODING 206
SWIDTH 250 0
DWIDTH 8 0
BBX 7 29 1 0
BITMAP
38
7C
EE
82
00
00
38
38
38
38
38
38
38
38
38
38
38
38
38
38
38
38
38
38
38
38
38
38
38
ENDCHAR
STARTCHAR Idieresis
ENCODING 207
SWIDTH 250 0
DWIDTH 8 0
BBX 7 29 1 0
BITMAP
EE
EE
EE
00
00
00
38
38
38
38
38
38
38
38
38
38
38
38
38
38
38
38
38
38
38
38
38
38
38
ENDCHAR
STARTCHAR Eth
ENCODING 208
SWIDTH 719 0
DWIDTH 23 0
BBX 21 23 1 0
BITMAP
3FF800
3FFF00
3FFF80
3807C0
3801E0
3800F0
380070
380070
380038
380038
FF8038
FF8038
FF8038
380038
380038
380070
380070
3800F0
3801E0
3807C0
3FFF80
3FFF00
3FF800
ENDCHAR
STARTCHAR Ntilde
ENCODING 209
SWIDTH 750 0
DWIDTH 24 0
BBX 19 29 3 0
BITMAP
07C300
0FE700
1CFE00
187C00
000000
000000
F000E0
F800E0
F800E0
FC00E0
FE00E0
EE00E0
EF00E0
E780E0
E380E0
E3C0E0
E1E0E0
E0E0E0
E0F0E0
E078E0
E038E0
E03CE0
E01EE0
E00EE0
E00FE0
E007E0
E003E0
E003E0
E001E0
ENDCHAR
STARTCHAR Ograve
ENCODING 210
SWIDTH 781 0
DWIDTH 25 0
BBX 22 29 2 0
BITMAP
03E000
00F000
003800
000800
000000
000000
00FC00
07FF80
0FFFC0
1F03E0
3C00F0
780078
700038
700038
E0001C
E0001C
E0001C
E0001C
E0001C
E0001C
E0001C
700038
700038
780078
3C00F0
1F03E0
0FFFC0
07FF80
00FC00
ENDCHAR
STARTCHAR Oacute
ENCODING 211
SWIDTH 781 0
DWIDTH 25 0
BBX 22 29 2 0
BITMAP
001F00
003C00
007000
004000
000000
000000
00FC00
07FF80
0FFFC0
1F03E0
3C00F0
780078
700038
700038
E0001C
E0001C
E0001C
E0001C
E0001C
E0001C
E0001C
700038
700038
780078
3C00F0
1F03E0
0FFFC0
07FF80
00FC00
ENDCHAR
STARTCHAR Ocircumflex
ENCODING 212
SWIDTH 781 0
DWIDTH 25 0
BBX 22 29 2 0
BITMAP
007800
00FC00
01CE00
010200
000000
000000
00FC00
07FF80
0FFFC0
1F03E0
3C00F0
780078
700038
700038
E0001C
E0001C
E0001C
E0001C
E0001C
E0001C
E0001C
700038
700038
780078
3C00F0
1F03E0
0FFFC0
07FF80
00FC00
ENDCHAR
STARTCHAR Otilde
ENCODING 213
SWIDTH 781 0
DWIDTH 25 0
BBX 22 29 2 0
BITMAP
01E180
03F380
073F00
061E00
000000
000000
00FC00
07FF80
0FFFC0
1F03E0
3C00F0
780078
700038
700038
E0001C
E0001C
E0001C
E0001C
E0001C
E0001C
E0001C
700038
700038
780078
3C00F0
1F03E0
0FFFC0
07FF80
00FC00
ENDCHAR
STARTCHAR Odieresis
ENCODING 214
SWIDTH 781 0
DWIDTH 25 0
BBX 22 29 2 0
BITMAP
070380
070380
070380
000000
000000
000000
00FC00
07FF80
0FFFC0
1F03E0
3C00F0
780078
700038
700038
E0001C
E0001C
E0001C
E0001C
E0001C
E0001C
E0001C
700038
700038
780078
3C00F0
1F03E0
0FFFC0
07FF80
00FC00
ENDCHAR
STARTCHAR multiply
ENCODING 215
SWIDTH 594 0
DWIDTH 19 0
BBX 17 19 1 2
BITMAP
C00180
E00380
F00780
780F00
3C1E00
1E3C00
0F7800
07F000
03E000
03E000
03E000
07F000
0F7800
1E3C00
3C1E00
780F00
F00780
E00380
C00180
ENDCHAR
STARTCHAR Oslash
ENCODING 216
SWIDTH 781 0
DWIDTH 25 0
BBX 24 23 1 0
BITMAP
007E07
03FFCE
0FFFFC
0F81F8
1E0078
3C00FC
3801DC
38039C
70070E
700E0E
701C0E
70180E
70380E
70700E
70E00E
39C01C
3B801C
3F003C
1E0078
1F81F0
3FFFE0
73FFC0
E07E00
ENDCHAR
STARTCHAR Ugrave
ENCODING 217
SWIDTH 719 0
DWIDTH 23 0
BBX 18 29 3 0
BITMAP
0F8000
03C000
00E000
002000
000000
000000
E001C0
E001C0
E001C0
E001C0
E001C0
E001C0
E001C0
E001C0
E001C0
E001C0
E001C0
E001C0
E001C0
E001C0
E001C0
E001C0
E001C0
F003C0
700380
7C0F80
3FFF00
1FFE00
07F800
ENDCHAR
STARTCHAR Uacute
ENCODING 218
SWIDTH 719 0
DWIDTH 23 0
BBX 18 29 3 0
BITMAP
007C00
00F000
01C000
010000
000000
000000
E001C0
E001C0
E001C0
E001C0
E001C0
E001C0
E001C0
E001C0
E001C0
E001C0
E001C0
E001C0
E001C0
E001C0
E001C0
E001C0
E001C0
F003C0
700380
7C0F80
3FFF00
1FFE00
07F800
ENDCHAR
STARTCHAR Ucircumflex
ENCODING 219
SWIDTH 719 0
DWIDTH 23 0
BBX 18 29 3 0
BITMAP
01E000
03F000
073800
040800
000000
000000
E001C0
E001C0
E001C0
E001C0
E001C0
E001C0
E001C0
E001C0
E001C0
E001C0
E001C0
E001C0
E001C0
E001C0
E001C0
E001C0
E001C0
F003C0
700380
7C0F80
3FFF00
1FFE00
07F800
ENDCHAR
STARTCHAR Udieresis
ENCODING 220
SWIDTH 719 0
DWIDTH 23 0
BBX 18 29 3 0
BITMAP
0E1C00
0E1C00
0E1C00
000000
000000
000000
E001C0
E001C0
E001C0
E001C0
E001C0
E001C0
E001C0
E001C0
E001C0
E001C0
E001C0
E001C0
E001C0
E001C0
E001C0
E001C0
E001C0
F003C0
700380
7C0F80
3FFF00
1FFE00
07F800
ENDCHAR
STARTCHAR Yacute
ENCODING 221
SWIDTH 688 0
DWIDTH 22 0
BBX 21 29 1 0
BITMAP
003E00
007800
00E000
008000
000000
000000
E00038
F00078
7800F0
3C01E0
1C01C0
1E03C0
0F0780
078F00
038E00
03DE00
01FC00
00F800
007000
007000
007000
007000
007000
007000
007000
007000
007000
007000
007000
ENDCHAR
STARTCHAR Thorn
ENCODING 222
SWIDTH 656 0
DWIDTH 21 0
BBX 17 23 3 0
BITMAP
E00000
E00000
E00000
E00000
E00000
FFF800
FFFE00
FFFF00
E00F00
E00780
E00380
E00380
E00380
E00780
E00F00
FFFF00
FFFE00
FFF800
E00000
E00000
E00000
E00000
E00000
ENDCHAR
STARTCHAR germandbls
ENCODING 223
SWIDTH 594 0
DWIDTH 19 0
BBX 16 23 2 0
BITMAP
0FE0
3FF8
7C7C
701C
F01E
E00E
E00E
E01E
E01C
E07C
E3F8
E3FC
E03E
E00E
E00F
E007
E007
E007
E00F
E00E
E03E
E7FC
E7F0
ENDCHAR
STARTCHAR agrave
ENCODING 224
SWIDTH 562 0
DWIDTH 18 0
BBX 17 23 1 0
BITMAP
1F0000
078000
01C000
004000
000000
000000
000000
0FF000
3FFC00
381C00
700E00
000E00
001E00
0FFE00
3FEE00
780E00
700E00
E00E00
E00E00
E01E00
703F00
7FF780
1FC380
ENDCHAR
STARTCHAR aacute
ENCODING 225
SWIDTH 562 0
DWIDTH 18 0
BBX 17 23 1 0
BITMAP
00F800
01E000
038000
020000
000000
000000
000000
0FF000
3FFC00
381C00
700E00
000E00
001E00
0FFE00
3FEE00
780E00
700E00
E00E00
E00E00
E01E00
703F00
7FF780
1FC380
ENDCHAR
STARTCHAR acircumflex
ENCODING 226
SWIDTH 562 0
DWIDTH 18 0
BBX 17 23 1 0
BITMAP
03C000
07E000
0E7000
081000
000000
000000
000000
0FF000
3FFC00
381C00
700E00
000E00
001E00
0FFE00
3FEE00
780E00
700E00
E00E00
E00E00
E01E00
703F00
7FF780
1FC380
ENDCHAR
STARTCHAR atilde
ENCODING 227
SWIDTH 562 0
DWIDTH 18 0
BBX 17 23 1 0
BITMAP
0F0C00
1F9C00
39F800
30F000
000000
000000
000000
0FF000
3FFC00
381C00
700E00
000E00
001E00
0FFE00
3FEE00
780E00
700E00
E00E00
E00E00
E01E00
703F00
7FF780
1FC380
ENDCHAR
STARTCHAR adieresis
ENCODING 228
SWIDTH 562 0
DWIDTH 18 0
BBX 17 22 1 0
BITMAP
1C3800
1C3800
1C3800
000000
000000
000000
0FF000
3FFC00
381C00
700E00
000E00
001E00
0FFE00
3FEE00
780E00
700E00
E00E00
E00E00
E01E00
703F00
7FF780
1FC380
ENDCHAR
STARTCHAR aring
ENCODING 229
SWIDTH 562 0
DWIDTH 18 0
BBX 17 24 1 0
BITMAP
018000
03C000
066000
066000
03C000
018000
000000
000000
0FF000
3FFC00
381C00
700E00
000E00
001E00
0FFE00
3FEE00
780E00
700E00
E00E00
E00E00
E01E00
703F00
7FF780
1FC380
ENDCHAR
STARTCHAR ae
ENCODING 230
SWIDTH 906 0
DWIDTH 29 0
BBX 27 16 1 0
BITMAP
0FF0FE00
3FFDFF80
381FC7C0
700F01C0
000F01E0
001E00E0
0FFFFFE0
3FEFFFE0
780E0000
700E0000
E00E0000
E00F01E0
E01F01C0
703BC7C0
7FF3FF80
1FC0FE00
ENDCHAR
STARTCHAR ccedilla
ENCODING 231
SWIDTH 500 0
DWIDTH 16 0
BBX 15 23 1 -7
BITMAP
0FF0
3FFC
7C3E
700E
F00E
E000
E000
E000
E000
E000
E000
F00E
700E
7C3E
3FFC
0FF0
0180
01C0
01E0
0070
0470
07E0
03C0
ENDCHAR
STARTCHAR egrave
ENCODING 232
SWIDTH 531 0
DWIDTH 17 0
BBX 15 23 1 0
BITMAP
1F00
0780
01C0
0040
0000
0000
0000
0FE0
3FF8
7C7C
701C
F01E
E00E
FFFE
FFFE
E000
E000
E000
F01E
701C
7C7C
3FF8
0FE0
ENDCHAR
STARTCHAR eacute
ENCODING 233
SWIDTH 531 0
DWIDTH 17 0
BBX 15 23 1 0
BITMAP
01F0
03C0
0700
0400
0000
0000
0000
0FE0
3FF8
7C7C
701C
F01E
E00E
FFFE
FFFE
E000
E000
E000
F01E
701C
7C7C
3FF8
0FE0
ENDCHAR
STARTCHAR ecircumflex
ENCODING 234
SWIDTH 531 0
DWIDTH 17 0
BBX 15 23 1 0
BITMAP
0380
07C0
0EE0
0820
0000
0000
0000
0FE0
3FF8
7C7C
701C
F01E
E00E
FFFE
FFFE
E000
E000
E000
F01E
701C
7C7C
3FF8
0FE0
ENDCHAR
STARTCHAR edieresis
ENCODING 235
SWIDTH 531 0
DWIDTH 17 0
BBX 15 23 1 0
BITMAP
1C70
1C70
1C70
0000
0000
0000
0000
0FE0
3FF8
7C7C
701C
F01E
E00E
FFFE
FFFE
E000
E000
E000
F01E
701C
7C7C
3FF8
0FE0
ENDCHAR
STARTCHAR igrave
ENCODING 236
SWIDTH 219 0
DWIDTH 7 0
BBX 6 23 0 0
BITMAP
F0
78
1C
04
00
00
00
38
38
38
38
38
38
38
38
38
38
38
38
38
38
38
38
ENDCHAR
STARTCHAR iacute
ENCODING 237
SWIDTH 219 0
DWIDTH 7 0
BBX 6 23 1 0
BITMAP
3C
78
E0
80
00
00
00
70
70
70
70
70
70
70
70
70
70
70
70
70
70
70
70
ENDCHAR
STARTCHAR icircumflex
ENCODING 238
SWIDTH 219 0
DWIDTH 7 0
BBX 7 23 0 0
BITMAP
38
7C
EE
82
00
00
00
38
38
38
38
38
38
38
38
38
38
38
38
38
38
38
38
ENDCHAR
STARTCHAR idieresis
ENCODING 239
SWIDTH 219 0
DWIDTH 7 0
BBX 7 23 0 0
BITMAP
EE
EE
EE
00
00
00
00
38
38
38
38
38
38
38
38
38
38
38
38
38
38
38
38
ENDCHAR
STARTCHAR eth
ENCODING 240
SWIDTH 562 0
DWIDTH 18 0
BBX 16 23 1 0
BITMAP
3C70
0FE0
03C0
07E0
0E70
0038
001C
0FFC
3FFE
7C3E
700E
F00F
E007
E007
E007
E007
E007
E007
F00F
700E
7C3E
3FFC
0FF0
ENDCHAR
STARTCHAR ntilde
ENCODING 241
SWIDTH 562 0
DWIDTH 18 0
BBX 14 23 2 0
BITMAP
1E18
3F38
73F0
61E0
0000
0000
0000
E7E0
EFF8
F878
F03C
E01C
E01C
E01C
E01C
E01C
E01C
E01C
E01C
E01C
E01C
E01C
E01C
ENDCHAR
STARTCHAR ograve
ENCODING 242
SWIDTH 562 0
DWIDTH 18 0
BBX 16 23 1 0
BITMAP
1F00
0780
01C0
0040
0000
0000
0000
0FF0
3FFC
7C3E
700E
F00F
E007
E007
E007
E007
E007
E007
F00F
700E
7C3E
3FFC
0FF0
ENDCHAR
STARTCHAR oacute
ENCODING 243
SWIDTH 562 0
DWIDTH 18 0
BBX 16 23 1 0
BITMAP
00F8
01E0
0380
0200
0000
0000
0000
0FF0
3FFC
7C3E
700E
F00F
E007
E007
E007
E007
E007
E007
F00F
700E
7C3E
3FFC
0FF0
ENDCHAR
STARTCHAR ocircumflex
ENCODING 244
SWIDTH 562 0
DWIDTH 18 0
BBX 16 23 1 0
BITMAP
03C0
07E0
0E70
0810
0000
0000
0000
0FF0
3FFC
7C3E
700E
F00F
E007
E007
E007
E007
E007
E007
F00F
700E
7C3E
3FFC
0FF0
ENDCHAR
STARTCHAR otilde
ENCODING 245
SWIDTH 562 0
DWIDTH 18 0
BBX 16 23 1 0
BITMAP
0F0C
1F9C
39F8
30F0
0000
0000
0000
0FF0
3FFC
7C3E
700E
F00F
E007
E007
E007
E007
E007
E007
F00F
700E
7C3E
3FFC
0FF0
ENDCHAR
STARTCHAR odieresis
ENCODING 246
SWIDTH 562 0
DWIDTH 18 0
BBX 16 23 1 0
BITMAP
1C38
1C38
1C38
0000
0000
0000
0000
0FF0
3FFC
7C3E
700E
F00F
E007
E007
E007
E007
E007
E007
F00F
700E
7C3E
3FFC
0FF0
ENDCHAR
STARTCHAR divide
ENCODING 247
SWIDTH 594 0
DWIDTH 19 0
BBX 17 15 1 4
BITMAP
01C000
01C000
01C000
000000
000000
000000
FFFF80
FFFF80
FFFF80
000000
000000
000000
01C000
01C000
01C000
ENDCHAR
STARTCHAR oslash
ENCODING 248
SWIDTH 562 0
DWIDTH 18 0
BBX 16 16 1 0
BITMAP
0FF2
3FFF
7C3E
701E
F03F
E077
E0E7
E1C7
E387
E707
EE07
FC0F
780E
7C3E
FFFC
4FF0
ENDCHAR
STARTCHAR ugrave
ENCODING 249
SWIDTH 562 0
DWIDTH 18 0
BBX 14 23 2 0
BITMAP
3E00
0F00
0380
0080
0000
0000
0000
E01C
E01C
E01C
E01C
E01C
E01C
E01C
E01C
E01C
E01C
E01C
E01C
F03C
787C
7FDC
1F9C
ENDCHAR
STARTCHAR uacute
ENCODING 250
SWIDTH 562 0
DWIDTH 18 0
BBX 14 23 2 0
BITMAP
01F0
03C0
0700
0400
0000
0000
0000
E01C
E01C
E01C
E01C
E01C
E01C
E01C
E01C
E01C
E01C
E01C
E01C
F03C
787C
7FDC
1F9C
ENDCHAR
STARTCHAR ucircumflex
ENCODING 251
SWIDTH 562 0
DWIDTH 18 0
BBX 14 23 2 0
BITMAP
0780
0FC0
1CE0
1020
0000
0000
0000
E01C
E01C
E01C
E01C
E01C
E01C
E01C
E01C
E01C
E01C
E01C
E01C
F03C
787C
7FDC
1F9C
ENDCHAR
STARTCHAR udieresis
ENCODING 252
SWIDTH 562 0
DWIDTH 18 0
BBX 14 22 2 0
BITMAP
3870
3870
3870
0000
0000
0000
E01C
E01C
E01C
E01C
E01C
E01C
E01C
E01C
E01C
E01C
E01C
E01C
F03C
787C
7FDC
1F9C
ENDCHAR
STARTCHAR yacute
ENCODING 253
SWIDTH 469 0
DWIDTH 15 0
BBX 15 30 0 -7
BITMAP
01F0
03C0
0700
0400
0000
0000
0000
E00E
E00E
E00E
701C
701C
3838
3838
1C70
1C70
0EE0
0EE0
07C0
07C0
0380
0380
0700
0700
0E00
0E00
1C00
3C00
F800
E000
ENDCHAR
STARTCHAR thorn
ENCODING 254
SWIDTH 562 0
DWIDTH 18 0
BBX 15 30 2 -7
BITMAP
E000
E000
E000
E000
E000
E000
E000
E7E0
FFF8
FC7C
F01C
F01E
E00E
E00E
E00E
E00E
E00E
E00E
F01E
F01C
FC7C
FFF8
E7E0
E000
E000
E000
E000
E000
E000
E000
ENDCHAR
STARTCHAR ydieresis
ENCODING 255
SWIDTH 469 0
DWIDTH 15 0
BBX 15 29 0 -7
BITMAP
1C70
1C70
1C70
0000
0000
0000
E00E
E00E
E00E
701C
701C
3838
3838
1C70
1C70
0EE0
0EE0
07C0
07C0
0380
0380
0700
0700
0E00
0E00
1C00
3C00
F800
E000
ENDCHAR
ENDFONT
