STARTFONT 2.1
FONT -FontForge-MS Serif-Normal-R-Normal--11-80-96-96-P-51-WinRoman-0
SIZE 8 96 96
FONTBOUNDINGBOX 10 13 0 -2
COMMENT "Generated by fontforge, http://fontforge.sourceforge.net"
COMMENT "Copyright (c) 1985 Xiphias, Los Angeles, Ca."
STARTPROPERTIES 33
FOUNDRY "FontForge"
FAMILY_NAME "MS Serif"
WEIGHT_NAME "Normal"
SLANT "R"
SETWIDTH_NAME "Normal"
ADD_STYLE_NAME ""
PIXEL_SIZE 11
POINT_SIZE 80
RESOLUTION_X 96
RESOLUTION_Y 96
SPACING "P"
AVERAGE_WIDTH 51
CHARSET_REGISTRY "WinRoman"
CHARSET_ENCODING "0"
FONTNAME_REGISTRY ""
CHARSET_COLLECTIONS "WinRoman"
FONT_NAME "MSSerif"
FACE_NAME "MS Serif"
FONT_VERSION "001.000"
FONT_ASCENT 9
FONT_DESCENT 2
UNDERLINE_POSITION -1
UNDERLINE_THICKNESS 1
X_HEIGHT 5
CAP_HEIGHT 8
RAW_ASCENT 800
RAW_DESCENT 200
NORM_SPACE 2
RELATIVE_WEIGHT 40
RELATIVE_SETWIDTH 50
FIGURE_WIDTH 5
AVG_LOWERCASE_WIDTH 46
AVG_UPPERCASE_WIDTH 70
ENDPROPERTIES
CHARS 224
STARTCHAR space
ENCODING 32
SWIDTH 250 0
DWIDTH 2 0
BBX 1 1 1 -2
BITMAP
00
ENDCHAR
STARTCHAR exclam
ENCODING 33
SWIDTH 281 0
DWIDTH 3 0
BBX 1 9 1 0
BITMAP
80
80
80
80
80
80
00
00
80
ENDCHAR
STARTCHAR quotedbl
ENCODING 34
SWIDTH 375 0
DWIDTH 4 0
BBX 3 3 1 6
BITMAP
A0
A0
A0
ENDCHAR
STARTCHAR numbersign
ENCODING 35
SWIDTH 500 0
DWIDTH 6 0
BBX 5 9 1 0
BITMAP
50
50
F8
50
50
50
F8
50
50
ENDCHAR
STARTCHAR dollar
ENCODING 36
SWIDTH 500 0
DWIDTH 5 0
BBX 4 10 1 -1
BITMAP
20
60
90
80
40
20
10
90
60
20
ENDCHAR
STARTCHAR percent
ENCODING 37
SWIDTH 875 0
DWIDTH 10 0
BBX 9 9 1 0
BITMAP
6080
9100
9200
6400
0800
1300
2480
4480
8300
ENDCHAR
STARTCHAR ampersand
ENCODING 38
SWIDTH 781 0
DWIDTH 8 0
BBX 7 9 1 0
BITMAP
60
90
90
60
60
96
94
88
74
ENDCHAR
STARTCHAR quotesingle
ENCODING 39
SWIDTH 281 0
DWIDTH 2 0
BBX 1 3 1 6
BITMAP
80
80
80
ENDCHAR
STARTCHAR parenleft
ENCODING 40
SWIDTH 344 0
DWIDTH 3 0
BBX 2 11 1 -2
BITMAP
40
40
80
80
80
80
80
80
80
40
40
ENDCHAR
STARTCHAR parenright
ENCODING 41
SWIDTH 344 0
DWIDTH 3 0
BBX 2 11 1 -2
BITMAP
80
80
40
40
40
40
40
40
40
80
80
ENDCHAR
STARTCHAR asterisk
ENCODING 42
SWIDTH 500 0
DWIDTH 5 0
BBX 4 4 1 5
BITMAP
90
60
60
90
ENDCHAR
STARTCHAR plus
ENCODING 43
SWIDTH 562 0
DWIDTH 6 0
BBX 5 5 1 2
BITMAP
20
20
F8
20
20
ENDCHAR
STARTCHAR comma
ENCODING 44
SWIDTH 250 0
DWIDTH 2 0
BBX 1 2 1 -1
BITMAP
80
80
ENDCHAR
STARTCHAR hyphen
ENCODING 45
SWIDTH 312 0
DWIDTH 3 0
BBX 2 1 1 4
BITMAP
C0
ENDCHAR
STARTCHAR period
ENCODING 46
SWIDTH 250 0
DWIDTH 2 0
BBX 1 1 1 0
BITMAP
80
ENDCHAR
STARTCHAR slash
ENCODING 47
SWIDTH 250 0
DWIDTH 3 0
BBX 2 9 1 0
BITMAP
40
40
40
40
40
80
80
80
80
ENDCHAR
STARTCHAR zero
ENCODING 48
SWIDTH 500 0
DWIDTH 5 0
BBX 4 9 1 0
BITMAP
60
90
90
90
90
90
90
90
60
ENDCHAR
STARTCHAR one
ENCODING 49
SWIDTH 500 0
DWIDTH 5 0
BBX 3 9 2 0
BITMAP
40
C0
40
40
40
40
40
40
E0
ENDCHAR
STARTCHAR two
ENCODING 50
SWIDTH 500 0
DWIDTH 5 0
BBX 4 9 1 0
BITMAP
60
90
10
10
20
40
80
90
F0
ENDCHAR
STARTCHAR three
ENCODING 51
SWIDTH 500 0
DWIDTH 5 0
BBX 4 9 1 0
BITMAP
60
90
10
10
60
10
10
90
60
ENDCHAR
STARTCHAR four
ENCODING 52
SWIDTH 500 0
DWIDTH 5 0
BBX 4 9 1 0
BITMAP
10
30
30
50
50
90
F0
10
10
ENDCHAR
STARTCHAR five
ENCODING 53
SWIDTH 500 0
DWIDTH 5 0
BBX 4 9 1 0
BITMAP
F0
80
80
E0
90
10
10
90
60
ENDCHAR
STARTCHAR six
ENCODING 54
SWIDTH 500 0
DWIDTH 5 0
BBX 4 9 1 0
BITMAP
60
90
80
80
E0
90
90
90
60
ENDCHAR
STARTCHAR seven
ENCODING 55
SWIDTH 500 0
DWIDTH 5 0
BBX 4 9 1 0
BITMAP
F0
90
90
20
20
20
40
40
40
ENDCHAR
STARTCHAR eight
ENCODING 56
SWIDTH 500 0
DWIDTH 5 0
BBX 4 9 1 0
BITMAP
60
90
90
90
60
90
90
90
60
ENDCHAR
STARTCHAR nine
ENCODING 57
SWIDTH 500 0
DWIDTH 5 0
BBX 4 9 1 0
BITMAP
60
90
90
90
70
10
10
10
60
ENDCHAR
STARTCHAR colon
ENCODING 58
SWIDTH 250 0
DWIDTH 2 0
BBX 1 7 1 0
BITMAP
80
00
00
00
00
00
80
ENDCHAR
STARTCHAR semicolon
ENCODING 59
SWIDTH 250 0
DWIDTH 2 0
BBX 1 8 1 -1
BITMAP
80
00
00
00
00
00
80
80
ENDCHAR
STARTCHAR less
ENCODING 60
SWIDTH 562 0
DWIDTH 6 0
BBX 5 5 1 1
BITMAP
18
60
80
60
18
ENDCHAR
STARTCHAR equal
ENCODING 61
SWIDTH 562 0
DWIDTH 6 0
BBX 5 3 1 2
BITMAP
F8
00
F8
ENDCHAR
STARTCHAR greater
ENCODING 62
SWIDTH 562 0
DWIDTH 6 0
BBX 5 5 1 1
BITMAP
C0
30
08
30
C0
ENDCHAR
STARTCHAR question
ENCODING 63
SWIDTH 438 0
DWIDTH 5 0
BBX 4 9 1 0
BITMAP
60
90
90
10
20
40
40
00
40
ENDCHAR
STARTCHAR at
ENCODING 64
SWIDTH 906 0
DWIDTH 9 0
BBX 8 10 1 -1
BITMAP
3C
42
9D
A5
A5
A5
A5
9A
40
3C
ENDCHAR
STARTCHAR A
ENCODING 65
SWIDTH 688 0
DWIDTH 8 0
BBX 7 9 1 0
BITMAP
10
10
28
28
28
44
7C
44
EE
ENDCHAR
STARTCHAR B
ENCODING 66
SWIDTH 656 0
DWIDTH 7 0
BBX 5 9 1 0
BITMAP
F0
48
48
48
70
48
48
48
F0
ENDCHAR
STARTCHAR C
ENCODING 67
SWIDTH 656 0
DWIDTH 7 0
BBX 5 9 2 0
BITMAP
78
88
80
80
80
80
80
88
70
ENDCHAR
STARTCHAR D
ENCODING 68
SWIDTH 719 0
DWIDTH 8 0
BBX 6 9 1 0
BITMAP
F0
48
44
44
44
44
44
48
F0
ENDCHAR
STARTCHAR E
ENCODING 69
SWIDTH 625 0
DWIDTH 7 0
BBX 5 9 1 0
BITMAP
F8
48
40
50
70
50
40
48
F8
ENDCHAR
STARTCHAR F
ENCODING 70
SWIDTH 562 0
DWIDTH 6 0
BBX 5 9 1 0
BITMAP
F8
48
40
50
70
50
40
40
E0
ENDCHAR
STARTCHAR G
ENCODING 71
SWIDTH 719 0
DWIDTH 8 0
BBX 6 9 2 0
BITMAP
78
88
80
80
9C
88
88
88
70
ENDCHAR
STARTCHAR H
ENCODING 72
SWIDTH 719 0
DWIDTH 8 0
BBX 7 9 1 0
BITMAP
EE
44
44
44
7C
44
44
44
EE
ENDCHAR
STARTCHAR I
ENCODING 73
SWIDTH 344 0
DWIDTH 4 0
BBX 3 9 1 0
BITMAP
E0
40
40
40
40
40
40
40
E0
ENDCHAR
STARTCHAR J
ENCODING 74
SWIDTH 406 0
DWIDTH 5 0
BBX 4 9 1 0
BITMAP
70
20
20
20
20
20
20
A0
C0
ENDCHAR
STARTCHAR K
ENCODING 75
SWIDTH 688 0
DWIDTH 8 0
BBX 7 9 1 0
BITMAP
EC
48
50
60
60
50
48
44
E6
ENDCHAR
STARTCHAR L
ENCODING 76
SWIDTH 625 0
DWIDTH 6 0
BBX 5 9 1 0
BITMAP
E0
40
40
40
40
40
40
48
F8
ENDCHAR
STARTCHAR M
ENCODING 77
SWIDTH 875 0
DWIDTH 10 0
BBX 9 9 1 0
BITMAP
C180
4100
6300
6300
5500
5500
4900
4900
E380
ENDCHAR
STARTCHAR N
ENCODING 78
SWIDTH 719 0
DWIDTH 8 0
BBX 7 9 1 0
BITMAP
CE
44
64
64
54
54
4C
4C
E4
ENDCHAR
STARTCHAR O
ENCODING 79
SWIDTH 719 0
DWIDTH 8 0
BBX 5 9 2 0
BITMAP
70
88
88
88
88
88
88
88
70
ENDCHAR
STARTCHAR P
ENCODING 80
SWIDTH 562 0
DWIDTH 6 0
BBX 5 9 1 0
BITMAP
F0
48
48
48
70
40
40
40
E0
ENDCHAR
STARTCHAR Q
ENCODING 81
SWIDTH 719 0
DWIDTH 8 0
BBX 5 11 2 -2
BITMAP
70
88
88
88
88
88
88
88
70
30
18
ENDCHAR
STARTCHAR R
ENCODING 82
SWIDTH 656 0
DWIDTH 7 0
BBX 6 9 1 0
BITMAP
F0
48
48
48
70
50
48
48
EC
ENDCHAR
STARTCHAR S
ENCODING 83
SWIDTH 562 0
DWIDTH 6 0
BBX 3 9 2 0
BITMAP
60
A0
80
80
40
20
20
A0
C0
ENDCHAR
STARTCHAR T
ENCODING 84
SWIDTH 594 0
DWIDTH 6 0
BBX 5 9 1 0
BITMAP
F8
A8
20
20
20
20
20
20
70
ENDCHAR
STARTCHAR U
ENCODING 85
SWIDTH 719 0
DWIDTH 8 0
BBX 7 9 1 0
BITMAP
EE
44
44
44
44
44
44
44
38
ENDCHAR
STARTCHAR V
ENCODING 86
SWIDTH 688 0
DWIDTH 8 0
BBX 7 9 1 0
BITMAP
EE
44
44
44
28
28
28
10
10
ENDCHAR
STARTCHAR W
ENCODING 87
SWIDTH 1031 0
DWIDTH 10 0
BBX 9 9 1 0
BITMAP
E380
4100
4100
4900
4900
5500
5500
2200
2200
ENDCHAR
STARTCHAR X
ENCODING 88
SWIDTH 719 0
DWIDTH 8 0
BBX 7 9 1 0
BITMAP
EE
44
28
28
10
28
28
44
EE
ENDCHAR
STARTCHAR Y
ENCODING 89
SWIDTH 688 0
DWIDTH 8 0
BBX 7 9 1 0
BITMAP
EE
44
44
28
28
10
10
10
38
ENDCHAR
STARTCHAR Z
ENCODING 90
SWIDTH 656 0
DWIDTH 6 0
BBX 5 9 1 0
BITMAP
F8
88
10
10
20
40
40
88
F8
ENDCHAR
STARTCHAR bracketleft
ENCODING 91
SWIDTH 344 0
DWIDTH 3 0
BBX 2 11 1 -2
BITMAP
C0
80
80
80
80
80
80
80
80
80
C0
ENDCHAR
STARTCHAR backslash
ENCODING 92
SWIDTH 250 0
DWIDTH 3 0
BBX 2 9 1 0
BITMAP
80
80
80
80
80
40
40
40
40
ENDCHAR
STARTCHAR bracketright
ENCODING 93
SWIDTH 344 0
DWIDTH 3 0
BBX 2 11 1 -2
BITMAP
C0
40
40
40
40
40
40
40
40
40
C0
ENDCHAR
STARTCHAR asciicircum
ENCODING 94
SWIDTH 500 0
DWIDTH 5 0
BBX 4 2 1 7
BITMAP
60
90
ENDCHAR
STARTCHAR underscore
ENCODING 95
SWIDTH 500 0
DWIDTH 5 0
BBX 5 1 0 -2
BITMAP
F8
ENDCHAR
STARTCHAR grave
ENCODING 96
SWIDTH 344 0
DWIDTH 3 0
BBX 2 2 1 7
BITMAP
80
40
ENDCHAR
STARTCHAR a
ENCODING 97
SWIDTH 438 0
DWIDTH 5 0
BBX 4 6 1 0
BITMAP
60
10
70
90
90
70
ENDCHAR
STARTCHAR b
ENCODING 98
SWIDTH 531 0
DWIDTH 5 0
BBX 5 9 0 0
BITMAP
C0
40
40
70
48
48
48
48
30
ENDCHAR
STARTCHAR c
ENCODING 99
SWIDTH 438 0
DWIDTH 5 0
BBX 4 6 1 0
BITMAP
60
90
80
80
90
60
ENDCHAR
STARTCHAR d
ENCODING 100
SWIDTH 531 0
DWIDTH 5 0
BBX 4 9 1 0
BITMAP
30
10
10
70
90
90
90
90
70
ENDCHAR
STARTCHAR e
ENCODING 101
SWIDTH 438 0
DWIDTH 5 0
BBX 4 6 1 0
BITMAP
60
90
F0
80
90
60
ENDCHAR
STARTCHAR f
ENCODING 102
SWIDTH 312 0
DWIDTH 3 0
BBX 3 9 0 0
BITMAP
20
40
40
E0
40
40
40
40
60
ENDCHAR
STARTCHAR g
ENCODING 103
SWIDTH 500 0
DWIDTH 5 0
BBX 4 8 1 -2
BITMAP
70
90
90
90
90
70
10
60
ENDCHAR
STARTCHAR h
ENCODING 104
SWIDTH 500 0
DWIDTH 5 0
BBX 5 9 0 0
BITMAP
C0
40
40
70
48
48
48
48
48
ENDCHAR
STARTCHAR i
ENCODING 105
SWIDTH 250 0
DWIDTH 2 0
BBX 2 9 0 0
BITMAP
40
00
00
C0
40
40
40
40
40
ENDCHAR
STARTCHAR j
ENCODING 106
SWIDTH 281 0
DWIDTH 2 0
BBX 2 11 0 -2
BITMAP
40
00
00
C0
40
40
40
40
40
40
80
ENDCHAR
STARTCHAR k
ENCODING 107
SWIDTH 500 0
DWIDTH 5 0
BBX 5 9 0 0
BITMAP
C0
40
40
48
50
60
60
50
48
ENDCHAR
STARTCHAR l
ENCODING 108
SWIDTH 250 0
DWIDTH 2 0
BBX 2 9 0 0
BITMAP
C0
40
40
40
40
40
40
40
40
ENDCHAR
STARTCHAR m
ENCODING 109
SWIDTH 750 0
DWIDTH 8 0
BBX 8 6 0 0
BITMAP
B6
49
49
49
49
49
ENDCHAR
STARTCHAR n
ENCODING 110
SWIDTH 500 0
DWIDTH 5 0
BBX 5 6 0 0
BITMAP
B0
48
48
48
48
48
ENDCHAR
STARTCHAR o
ENCODING 111
SWIDTH 531 0
DWIDTH 5 0
BBX 4 6 1 0
BITMAP
60
90
90
90
90
60
ENDCHAR
STARTCHAR p
ENCODING 112
SWIDTH 531 0
DWIDTH 5 0
BBX 5 8 0 -2
BITMAP
B0
48
48
48
48
70
40
E0
ENDCHAR
STARTCHAR q
ENCODING 113
SWIDTH 531 0
DWIDTH 5 0
BBX 4 8 1 -2
BITMAP
60
90
90
90
90
70
10
30
ENDCHAR
STARTCHAR r
ENCODING 114
SWIDTH 344 0
DWIDTH 4 0
BBX 4 6 0 0
BITMAP
B0
50
40
40
40
60
ENDCHAR
STARTCHAR s
ENCODING 115
SWIDTH 406 0
DWIDTH 4 0
BBX 3 6 1 0
BITMAP
60
80
40
20
20
C0
ENDCHAR
STARTCHAR t
ENCODING 116
SWIDTH 250 0
DWIDTH 3 0
BBX 3 8 0 0
BITMAP
40
40
E0
40
40
40
40
20
ENDCHAR
STARTCHAR u
ENCODING 117
SWIDTH 500 0
DWIDTH 5 0
BBX 5 6 0 0
BITMAP
D8
48
48
48
48
38
ENDCHAR
STARTCHAR v
ENCODING 118
SWIDTH 531 0
DWIDTH 5 0
BBX 5 6 0 0
BITMAP
88
88
50
50
20
20
ENDCHAR
STARTCHAR w
ENCODING 119
SWIDTH 781 0
DWIDTH 8 0
BBX 7 6 1 0
BITMAP
D6
92
AA
AA
44
44
ENDCHAR
STARTCHAR x
ENCODING 120
SWIDTH 500 0
DWIDTH 5 0
BBX 5 6 0 0
BITMAP
D8
50
20
20
50
D8
ENDCHAR
STARTCHAR y
ENCODING 121
SWIDTH 531 0
DWIDTH 5 0
BBX 4 8 1 -2
BITMAP
90
90
90
90
60
40
40
80
ENDCHAR
STARTCHAR z
ENCODING 122
SWIDTH 438 0
DWIDTH 5 0
BBX 4 6 1 0
BITMAP
F0
90
20
40
90
F0
ENDCHAR
STARTCHAR braceleft
ENCODING 123
SWIDTH 406 0
DWIDTH 4 0
BBX 3 11 1 -2
BITMAP
20
40
40
40
40
80
40
40
40
40
20
ENDCHAR
STARTCHAR bar
ENCODING 124
SWIDTH 281 0
DWIDTH 2 0
BBX 1 9 1 -1
BITMAP
80
80
80
80
80
80
80
80
80
ENDCHAR
STARTCHAR braceright
ENCODING 125
SWIDTH 406 0
DWIDTH 4 0
BBX 3 11 1 -2
BITMAP
80
40
40
40
40
20
40
40
40
40
80
ENDCHAR
STARTCHAR asciitilde
ENCODING 126
SWIDTH 500 0
DWIDTH 6 0
BBX 5 2 1 7
BITMAP
68
B0
ENDCHAR
STARTCHAR uni007F
ENCODING 127
SWIDTH 344 0
DWIDTH 4 0
BBX 2 9 1 -1
BITMAP
C0
C0
C0
C0
C0
C0
C0
C0
C0
ENDCHAR
STARTCHAR Euro
ENCODING 128
SWIDTH 344 0
DWIDTH 4 0
BBX 2 9 1 -1
BITMAP
C0
C0
C0
C0
C0
C0
C0
C0
C0
ENDCHAR
STARTCHAR NameMe.129
ENCODING 129
SWIDTH 344 0
DWIDTH 4 0
BBX 2 9 1 -1
BITMAP
C0
C0
C0
C0
C0
C0
C0
C0
C0
ENDCHAR
STARTCHAR quotesinglbase
ENCODING 130
SWIDTH 344 0
DWIDTH 4 0
BBX 2 9 1 -1
BITMAP
C0
C0
C0
C0
C0
C0
C0
C0
C0
ENDCHAR
STARTCHAR florin
ENCODING 131
SWIDTH 344 0
DWIDTH 4 0
BBX 2 9 1 -1
BITMAP
C0
C0
C0
C0
C0
C0
C0
C0
C0
ENDCHAR
STARTCHAR quotedblbase
ENCODING 132
SWIDTH 344 0
DWIDTH 4 0
BBX 2 9 1 -1
BITMAP
C0
C0
C0
C0
C0
C0
C0
C0
C0
ENDCHAR
STARTCHAR ellipsis
ENCODING 133
SWIDTH 344 0
DWIDTH 4 0
BBX 2 9 1 -1
BITMAP
C0
C0
C0
C0
C0
C0
C0
C0
C0
ENDCHAR
STARTCHAR dagger
ENCODING 134
SWIDTH 344 0
DWIDTH 4 0
BBX 2 9 1 -1
BITMAP
C0
C0
C0
C0
C0
C0
C0
C0
C0
ENDCHAR
STARTCHAR daggerdbl
ENCODING 135
SWIDTH 344 0
DWIDTH 4 0
BBX 2 9 1 -1
BITMAP
C0
C0
C0
C0
C0
C0
C0
C0
C0
ENDCHAR
STARTCHAR circumflex
ENCODING 136
SWIDTH 344 0
DWIDTH 4 0
BBX 2 9 1 -1
BITMAP
C0
C0
C0
C0
C0
C0
C0
C0
C0
ENDCHAR
STARTCHAR perthousand
ENCODING 137
SWIDTH 344 0
DWIDTH 4 0
BBX 2 9 1 -1
BITMAP
C0
C0
C0
C0
C0
C0
C0
C0
C0
ENDCHAR
STARTCHAR Scaron
ENCODING 138
SWIDTH 344 0
DWIDTH 4 0
BBX 2 9 1 -1
BITMAP
C0
C0
C0
C0
C0
C0
C0
C0
C0
ENDCHAR
STARTCHAR guilsinglleft
ENCODING 139
SWIDTH 344 0
DWIDTH 4 0
BBX 2 9 1 -1
BITMAP
C0
C0
C0
C0
C0
C0
C0
C0
C0
ENDCHAR
STARTCHAR OE
ENCODING 140
SWIDTH 344 0
DWIDTH 4 0
BBX 2 9 1 -1
BITMAP
C0
C0
C0
C0
C0
C0
C0
C0
C0
ENDCHAR
STARTCHAR NameMe.141
ENCODING 141
SWIDTH 344 0
DWIDTH 4 0
BBX 2 9 1 -1
BITMAP
C0
C0
C0
C0
C0
C0
C0
C0
C0
ENDCHAR
STARTCHAR Zcaron
ENCODING 142
SWIDTH 344 0
DWIDTH 4 0
BBX 2 9 1 -1
BITMAP
C0
C0
C0
C0
C0
C0
C0
C0
C0
ENDCHAR
STARTCHAR NameMe.143
ENCODING 143
SWIDTH 344 0
DWIDTH 4 0
BBX 2 9 1 -1
BITMAP
C0
C0
C0
C0
C0
C0
C0
C0
C0
ENDCHAR
STARTCHAR NameMe.144
ENCODING 144
SWIDTH 344 0
DWIDTH 4 0
BBX 2 9 1 -1
BITMAP
C0
C0
C0
C0
C0
C0
C0
C0
C0
ENDCHAR
STARTCHAR quoteleft
ENCODING 145
SWIDTH 250 0
DWIDTH 2 0
BBX 1 2 1 7
BITMAP
80
80
ENDCHAR
STARTCHAR quoteright
ENCODING 146
SWIDTH 250 0
DWIDTH 2 0
BBX 1 2 1 7
BITMAP
80
80
ENDCHAR
STARTCHAR quotedblleft
ENCODING 147
SWIDTH 344 0
DWIDTH 4 0
BBX 2 9 1 -1
BITMAP
C0
C0
C0
C0
C0
C0
C0
C0
C0
ENDCHAR
STARTCHAR quotedblright
ENCODING 148
SWIDTH 344 0
DWIDTH 4 0
BBX 2 9 1 -1
BITMAP
C0
C0
C0
C0
C0
C0
C0
C0
C0
ENDCHAR
STARTCHAR bullet
ENCODING 149
SWIDTH 344 0
DWIDTH 4 0
BBX 2 9 1 -1
BITMAP
C0
C0
C0
C0
C0
C0
C0
C0
C0
ENDCHAR
STARTCHAR endash
ENCODING 150
SWIDTH 344 0
DWIDTH 4 0
BBX 2 9 1 -1
BITMAP
C0
C0
C0
C0
C0
C0
C0
C0
C0
ENDCHAR
STARTCHAR emdash
ENCODING 151
SWIDTH 344 0
DWIDTH 4 0
BBX 2 9 1 -1
BITMAP
C0
C0
C0
C0
C0
C0
C0
C0
C0
ENDCHAR
STARTCHAR tilde
ENCODING 152
SWIDTH 344 0
DWIDTH 4 0
BBX 2 9 1 -1
BITMAP
C0
C0
C0
C0
C0
C0
C0
C0
C0
ENDCHAR
STARTCHAR trademark
ENCODING 153
SWIDTH 344 0
DWIDTH 4 0
BBX 2 9 1 -1
BITMAP
C0
C0
C0
C0
C0
C0
C0
C0
C0
ENDCHAR
STARTCHAR scaron
ENCODING 154
SWIDTH 344 0
DWIDTH 4 0
BBX 2 9 1 -1
BITMAP
C0
C0
C0
C0
C0
C0
C0
C0
C0
ENDCHAR
STARTCHAR guilsinglright
ENCODING 155
SWIDTH 344 0
DWIDTH 4 0
BBX 2 9 1 -1
BITMAP
C0
C0
C0
C0
C0
C0
C0
C0
C0
ENDCHAR
STARTCHAR oe
ENCODING 156
SWIDTH 344 0
DWIDTH 4 0
BBX 2 9 1 -1
BITMAP
C0
C0
C0
C0
C0
C0
C0
C0
C0
ENDCHAR
STARTCHAR NameMe.157
ENCODING 157
SWIDTH 344 0
DWIDTH 4 0
BBX 2 9 1 -1
BITMAP
C0
C0
C0
C0
C0
C0
C0
C0
C0
ENDCHAR
STARTCHAR zcaron
ENCODING 158
SWIDTH 344 0
DWIDTH 4 0
BBX 2 9 1 -1
BITMAP
C0
C0
C0
C0
C0
C0
C0
C0
C0
ENDCHAR
STARTCHAR Ydieresis
ENCODING 159
SWIDTH 344 0
DWIDTH 4 0
BBX 2 9 1 -1
BITMAP
C0
C0
C0
C0
C0
C0
C0
C0
C0
ENDCHAR
STARTCHAR uni00A0
ENCODING 160
SWIDTH 250 0
DWIDTH 2 0
BBX 1 1 1 -2
BITMAP
00
ENDCHAR
STARTCHAR exclamdown
ENCODING 161
SWIDTH 281 0
DWIDTH 3 0
BBX 1 9 1 -2
BITMAP
80
00
00
80
80
80
80
80
80
ENDCHAR
STARTCHAR cent
ENCODING 162
SWIDTH 500 0
DWIDTH 5 0
BBX 4 8 1 -1
BITMAP
20
60
90
80
80
90
60
40
ENDCHAR
STARTCHAR sterling
ENCODING 163
SWIDTH 500 0
DWIDTH 5 0
BBX 4 9 1 0
BITMAP
40
A0
A0
80
40
E0
40
40
F0
ENDCHAR
STARTCHAR currency
ENCODING 164
SWIDTH 500 0
DWIDTH 5 0
BBX 4 4 1 3
BITMAP
90
60
60
90
ENDCHAR
STARTCHAR yen
ENCODING 165
SWIDTH 531 0
DWIDTH 5 0
BBX 5 9 0 0
BITMAP
D8
88
F8
50
F8
20
20
20
70
ENDCHAR
STARTCHAR brokenbar
ENCODING 166
SWIDTH 281 0
DWIDTH 2 0
BBX 1 11 1 -2
BITMAP
80
80
80
80
80
00
80
80
80
80
80
ENDCHAR
STARTCHAR section
ENCODING 167
SWIDTH 500 0
DWIDTH 5 0
BBX 4 11 1 -2
BITMAP
60
90
80
40
A0
90
50
20
90
90
60
ENDCHAR
STARTCHAR dieresis
ENCODING 168
SWIDTH 344 0
DWIDTH 3 0
BBX 3 1 0 8
BITMAP
A0
ENDCHAR
STARTCHAR copyright
ENCODING 169
SWIDTH 750 0
DWIDTH 8 0
BBX 7 8 1 1
BITMAP
38
44
BA
A2
A2
BA
44
38
ENDCHAR
STARTCHAR ordfeminine
ENCODING 170
SWIDTH 281 0
DWIDTH 3 0
BBX 2 6 1 3
BITMAP
80
40
C0
C0
00
C0
ENDCHAR
STARTCHAR guillemotleft
ENCODING 171
SWIDTH 500 0
DWIDTH 5 0
BBX 4 4 1 0
BITMAP
50
A0
A0
50
ENDCHAR
STARTCHAR logicalnot
ENCODING 172
SWIDTH 562 0
DWIDTH 6 0
BBX 5 2 1 3
BITMAP
F8
08
ENDCHAR
STARTCHAR uni00AD
ENCODING 173
SWIDTH 312 0
DWIDTH 3 0
BBX 2 1 1 3
BITMAP
C0
ENDCHAR
STARTCHAR registered
ENCODING 174
SWIDTH 750 0
DWIDTH 8 0
BBX 7 8 1 1
BITMAP
38
44
B2
AA
B2
AA
44
38
ENDCHAR
STARTCHAR macron
ENCODING 175
SWIDTH 500 0
DWIDTH 5 0
BBX 5 1 0 10
BITMAP
F8
ENDCHAR
STARTCHAR degree
ENCODING 176
SWIDTH 344 0
DWIDTH 3 0
BBX 3 3 0 6
BITMAP
40
A0
40
ENDCHAR
STARTCHAR plusminus
ENCODING 177
SWIDTH 562 0
DWIDTH 6 0
BBX 5 7 1 0
BITMAP
20
20
F8
20
20
00
F8
ENDCHAR
STARTCHAR uni00B2
ENCODING 178
SWIDTH 250 0
DWIDTH 3 0
BBX 3 5 0 4
BITMAP
C0
20
40
80
E0
ENDCHAR
STARTCHAR uni00B3
ENCODING 179
SWIDTH 250 0
DWIDTH 3 0
BBX 3 5 0 4
BITMAP
C0
20
40
20
C0
ENDCHAR
STARTCHAR acute
ENCODING 180
SWIDTH 344 0
DWIDTH 3 0
BBX 2 2 1 7
BITMAP
40
80
ENDCHAR
STARTCHAR uni00B5
ENCODING 181
SWIDTH 500 0
DWIDTH 6 0
BBX 5 6 1 -2
BITMAP
90
90
90
E8
80
80
ENDCHAR
STARTCHAR paragraph
ENCODING 182
SWIDTH 469 0
DWIDTH 5 0
BBX 4 10 1 -1
BITMAP
70
E0
E0
E0
60
20
20
20
20
20
ENDCHAR
STARTCHAR periodcentered
ENCODING 183
SWIDTH 250 0
DWIDTH 2 0
BBX 1 1 1 4
BITMAP
80
ENDCHAR
STARTCHAR cedilla
ENCODING 184
SWIDTH 344 0
DWIDTH 3 0
BBX 2 2 1 -2
BITMAP
40
C0
ENDCHAR
STARTCHAR uni00B9
ENCODING 185
SWIDTH 250 0
DWIDTH 3 0
BBX 3 5 0 4
BITMAP
40
C0
40
40
E0
ENDCHAR
STARTCHAR ordmasculine
ENCODING 186
SWIDTH 281 0
DWIDTH 3 0
BBX 2 6 1 3
BITMAP
C0
C0
C0
C0
00
C0
ENDCHAR
STARTCHAR guillemotright
ENCODING 187
SWIDTH 500 0
DWIDTH 5 0
BBX 4 4 1 0
BITMAP
A0
50
50
A0
ENDCHAR
STARTCHAR onequarter
ENCODING 188
SWIDTH 688 0
DWIDTH 8 0
BBX 7 9 1 0
BITMAP
40
C2
44
48
F2
26
4A
8E
02
ENDCHAR
STARTCHAR onehalf
ENCODING 189
SWIDTH 688 0
DWIDTH 8 0
BBX 7 9 1 0
BITMAP
40
C2
44
48
FC
22
44
88
0E
ENDCHAR
STARTCHAR threequarters
ENCODING 190
SWIDTH 688 0
DWIDTH 8 0
BBX 7 9 1 0
BITMAP
C0
22
44
28
D2
26
4A
8E
02
ENDCHAR
STARTCHAR questiondown
ENCODING 191
SWIDTH 438 0
DWIDTH 5 0
BBX 4 9 0 -2
BITMAP
20
00
20
20
40
80
90
90
60
ENDCHAR
STARTCHAR Agrave
ENCODING 192
SWIDTH 688 0
DWIDTH 8 0
BBX 7 11 1 0
BITMAP
20
10
00
10
10
28
28
44
7C
44
EE
ENDCHAR
STARTCHAR Aacute
ENCODING 193
SWIDTH 688 0
DWIDTH 8 0
BBX 7 11 1 0
BITMAP
08
10
00
10
10
28
28
44
7C
44
EE
ENDCHAR
STARTCHAR Acircumflex
ENCODING 194
SWIDTH 688 0
DWIDTH 8 0
BBX 7 11 1 0
BITMAP
10
28
00
10
10
28
28
44
7C
44
EE
ENDCHAR
STARTCHAR Atilde
ENCODING 195
SWIDTH 688 0
DWIDTH 8 0
BBX 7 11 1 0
BITMAP
34
58
10
10
28
28
28
44
7C
44
EE
ENDCHAR
STARTCHAR Adieresis
ENCODING 196
SWIDTH 688 0
DWIDTH 8 0
BBX 7 11 1 0
BITMAP
44
00
10
10
28
28
28
44
7C
44
EE
ENDCHAR
STARTCHAR Aring
ENCODING 197
SWIDTH 688 0
DWIDTH 8 0
BBX 7 11 1 0
BITMAP
10
28
10
10
28
28
28
44
7C
44
EE
ENDCHAR
STARTCHAR AE
ENCODING 198
SWIDTH 906 0
DWIDTH 9 0
BBX 8 9 1 0
BITMAP
3F
19
18
2A
2E
2A
78
49
DF
ENDCHAR
STARTCHAR Ccedilla
ENCODING 199
SWIDTH 656 0
DWIDTH 7 0
BBX 5 11 2 -2
BITMAP
78
88
80
80
80
80
80
88
70
20
60
ENDCHAR
STARTCHAR Egrave
ENCODING 200
SWIDTH 625 0
DWIDTH 7 0
BBX 5 11 1 0
BITMAP
40
20
F8
48
40
50
70
50
40
48
F8
ENDCHAR
STARTCHAR Eacute
ENCODING 201
SWIDTH 625 0
DWIDTH 7 0
BBX 5 11 1 0
BITMAP
10
20
F8
48
40
50
70
50
40
48
F8
ENDCHAR
STARTCHAR Ecircumflex
ENCODING 202
SWIDTH 625 0
DWIDTH 7 0
BBX 5 11 1 0
BITMAP
20
50
F8
48
40
50
70
50
40
48
F8
ENDCHAR
STARTCHAR Edieresis
ENCODING 203
SWIDTH 625 0
DWIDTH 7 0
BBX 5 11 1 0
BITMAP
48
00
F8
48
40
50
70
50
40
48
F8
ENDCHAR
STARTCHAR Igrave
ENCODING 204
SWIDTH 344 0
DWIDTH 4 0
BBX 3 11 1 0
BITMAP
80
40
E0
40
40
40
40
40
40
40
E0
ENDCHAR
STARTCHAR Iacute
ENCODING 205
SWIDTH 344 0
DWIDTH 4 0
BBX 3 11 1 0
BITMAP
20
40
E0
40
40
40
40
40
40
40
E0
ENDCHAR
STARTCHAR Icircumflex
ENCODING 206
SWIDTH 344 0
DWIDTH 4 0
BBX 3 11 1 0
BITMAP
40
A0
00
E0
40
40
40
40
40
40
E0
ENDCHAR
STARTCHAR Idieresis
ENCODING 207
SWIDTH 344 0
DWIDTH 4 0
BBX 3 11 1 0
BITMAP
A0
00
E0
40
40
40
40
40
40
40
E0
ENDCHAR
STARTCHAR Eth
ENCODING 208
SWIDTH 719 0
DWIDTH 8 0
BBX 6 9 1 0
BITMAP
F0
48
44
44
E4
44
44
48
F0
ENDCHAR
STARTCHAR Ntilde
ENCODING 209
SWIDTH 719 0
DWIDTH 8 0
BBX 7 11 1 0
BITMAP
34
58
CE
44
64
64
54
54
4C
4C
E4
ENDCHAR
STARTCHAR Ograve
ENCODING 210
SWIDTH 719 0
DWIDTH 8 0
BBX 5 11 2 0
BITMAP
40
20
70
88
88
88
88
88
88
88
70
ENDCHAR
STARTCHAR Oacute
ENCODING 211
SWIDTH 719 0
DWIDTH 8 0
BBX 5 11 2 0
BITMAP
10
20
70
88
88
88
88
88
88
88
70
ENDCHAR
STARTCHAR Ocircumflex
ENCODING 212
SWIDTH 719 0
DWIDTH 8 0
BBX 5 11 2 0
BITMAP
20
50
70
88
88
88
88
88
88
88
70
ENDCHAR
STARTCHAR Otilde
ENCODING 213
SWIDTH 719 0
DWIDTH 8 0
BBX 5 11 2 0
BITMAP
68
B0
70
88
88
88
88
88
88
88
70
ENDCHAR
STARTCHAR Odieresis
ENCODING 214
SWIDTH 719 0
DWIDTH 8 0
BBX 5 11 2 0
BITMAP
88
00
70
88
88
88
88
88
88
88
70
ENDCHAR
STARTCHAR multiply
ENCODING 215
SWIDTH 562 0
DWIDTH 6 0
BBX 5 5 1 2
BITMAP
88
50
20
50
88
ENDCHAR
STARTCHAR Oslash
ENCODING 216
SWIDTH 719 0
DWIDTH 8 0
BBX 5 9 2 0
BITMAP
78
88
98
98
A8
C8
C8
88
F0
ENDCHAR
STARTCHAR Ugrave
ENCODING 217
SWIDTH 719 0
DWIDTH 8 0
BBX 7 11 1 0
BITMAP
20
10
EE
44
44
44
44
44
44
44
38
ENDCHAR
STARTCHAR Uacute
ENCODING 218
SWIDTH 719 0
DWIDTH 8 0
BBX 7 11 1 0
BITMAP
08
10
EE
44
44
44
44
44
44
44
38
ENDCHAR
STARTCHAR Ucircumflex
ENCODING 219
SWIDTH 719 0
DWIDTH 8 0
BBX 7 11 1 0
BITMAP
10
28
EE
44
44
44
44
44
44
44
38
ENDCHAR
STARTCHAR Udieresis
ENCODING 220
SWIDTH 719 0
DWIDTH 8 0
BBX 7 11 1 0
BITMAP
44
00
EE
44
44
44
44
44
44
44
38
ENDCHAR
STARTCHAR Yacute
ENCODING 221
SWIDTH 719 0
DWIDTH 8 0
BBX 7 11 1 0
BITMAP
08
10
EE
44
44
28
28
10
10
10
38
ENDCHAR
STARTCHAR Thorn
ENCODING 222
SWIDTH 562 0
DWIDTH 6 0
BBX 5 9 1 0
BITMAP
C0
40
70
48
48
48
70
40
E0
ENDCHAR
STARTCHAR germandbls
ENCODING 223
SWIDTH 500 0
DWIDTH 5 0
BBX 4 9 1 0
BITMAP
60
90
90
90
A0
90
90
90
A0
ENDCHAR
STARTCHAR agrave
ENCODING 224
SWIDTH 438 0
DWIDTH 5 0
BBX 4 9 1 0
BITMAP
40
20
00
60
10
70
90
90
70
ENDCHAR
STARTCHAR aacute
ENCODING 225
SWIDTH 438 0
DWIDTH 5 0
BBX 4 9 1 0
BITMAP
20
40
00
60
10
70
90
90
70
ENDCHAR
STARTCHAR acircumflex
ENCODING 226
SWIDTH 438 0
DWIDTH 5 0
BBX 4 9 1 0
BITMAP
20
50
00
60
10
70
90
90
70
ENDCHAR
STARTCHAR atilde
ENCODING 227
SWIDTH 438 0
DWIDTH 5 0
BBX 4 9 1 0
BITMAP
50
A0
00
60
10
70
90
90
70
ENDCHAR
STARTCHAR adieresis
ENCODING 228
SWIDTH 438 0
DWIDTH 5 0
BBX 4 8 1 0
BITMAP
50
00
60
10
70
90
90
70
ENDCHAR
STARTCHAR aring
ENCODING 229
SWIDTH 438 0
DWIDTH 5 0
BBX 4 10 1 0
BITMAP
20
50
20
00
60
10
70
90
90
70
ENDCHAR
STARTCHAR ae
ENCODING 230
SWIDTH 656 0
DWIDTH 8 0
BBX 7 6 1 0
BITMAP
6C
12
7E
90
92
6C
ENDCHAR
STARTCHAR ccedilla
ENCODING 231
SWIDTH 438 0
DWIDTH 5 0
BBX 4 8 1 -2
BITMAP
60
90
80
80
90
60
20
60
ENDCHAR
STARTCHAR egrave
ENCODING 232
SWIDTH 438 0
DWIDTH 5 0
BBX 4 9 1 0
BITMAP
40
20
00
60
90
F0
80
90
60
ENDCHAR
STARTCHAR eacute
ENCODING 233
SWIDTH 438 0
DWIDTH 5 0
BBX 4 9 1 0
BITMAP
20
40
00
60
90
F0
80
90
60
ENDCHAR
STARTCHAR ecircumflex
ENCODING 234
SWIDTH 438 0
DWIDTH 5 0
BBX 4 9 1 0
BITMAP
60
90
00
60
90
F0
80
90
60
ENDCHAR
STARTCHAR edieresis
ENCODING 235
SWIDTH 438 0
DWIDTH 5 0
BBX 4 8 1 0
BITMAP
90
00
60
90
F0
80
90
60
ENDCHAR
STARTCHAR igrave
ENCODING 236
SWIDTH 250 0
DWIDTH 2 0
BBX 2 9 0 0
BITMAP
80
40
00
C0
40
40
40
40
40
ENDCHAR
STARTCHAR iacute
ENCODING 237
SWIDTH 250 0
DWIDTH 2 0
BBX 2 9 0 0
BITMAP
40
80
00
C0
40
40
40
40
40
ENDCHAR
STARTCHAR icircumflex
ENCODING 238
SWIDTH 250 0
DWIDTH 2 0
BBX 2 9 0 0
BITMAP
C0
00
00
C0
40
40
40
40
40
ENDCHAR
STARTCHAR idieresis
ENCODING 239
SWIDTH 250 0
DWIDTH 2 0
BBX 2 8 0 0
BITMAP
C0
00
C0
40
40
40
40
40
ENDCHAR
STARTCHAR eth
ENCODING 240
SWIDTH 531 0
DWIDTH 5 0
BBX 4 9 1 0
BITMAP
A0
40
A0
10
70
90
90
90
60
ENDCHAR
STARTCHAR ntilde
ENCODING 241
SWIDTH 500 0
DWIDTH 5 0
BBX 5 9 0 0
BITMAP
28
50
00
B0
48
48
48
48
48
ENDCHAR
STARTCHAR ograve
ENCODING 242
SWIDTH 531 0
DWIDTH 5 0
BBX 4 9 1 0
BITMAP
40
20
00
60
90
90
90
90
60
ENDCHAR
STARTCHAR oacute
ENCODING 243
SWIDTH 531 0
DWIDTH 5 0
BBX 4 9 1 0
BITMAP
20
40
00
60
90
90
90
90
60
ENDCHAR
STARTCHAR ocircumflex
ENCODING 244
SWIDTH 531 0
DWIDTH 5 0
BBX 4 9 1 0
BITMAP
60
90
00
60
90
90
90
90
60
ENDCHAR
STARTCHAR otilde
ENCODING 245
SWIDTH 531 0
DWIDTH 5 0
BBX 4 9 1 0
BITMAP
50
A0
00
60
90
90
90
90
60
ENDCHAR
STARTCHAR odieresis
ENCODING 246
SWIDTH 531 0
DWIDTH 5 0
BBX 4 8 1 0
BITMAP
90
00
60
90
90
90
90
60
ENDCHAR
STARTCHAR divide
ENCODING 247
SWIDTH 562 0
DWIDTH 6 0
BBX 5 5 1 2
BITMAP
20
00
F8
00
20
ENDCHAR
STARTCHAR oslash
ENCODING 248
SWIDTH 500 0
DWIDTH 5 0
BBX 4 6 1 0
BITMAP
70
B0
B0
D0
D0
E0
ENDCHAR
STARTCHAR ugrave
ENCODING 249
SWIDTH 500 0
DWIDTH 5 0
BBX 5 9 0 0
BITMAP
40
20
00
D8
48
48
48
48
38
ENDCHAR
STARTCHAR uacute
ENCODING 250
SWIDTH 500 0
DWIDTH 5 0
BBX 5 9 0 0
BITMAP
10
20
00
D8
48
48
48
48
38
ENDCHAR
STARTCHAR ucircumflex
ENCODING 251
SWIDTH 500 0
DWIDTH 5 0
BBX 5 9 0 0
BITMAP
20
50
00
D8
48
48
48
48
38
ENDCHAR
STARTCHAR udieresis
ENCODING 252
SWIDTH 500 0
DWIDTH 5 0
BBX 5 8 0 0
BITMAP
48
00
D8
48
48
48
48
38
ENDCHAR
STARTCHAR yacute
ENCODING 253
SWIDTH 531 0
DWIDTH 5 0
BBX 4 11 1 -2
BITMAP
20
40
00
90
90
90
90
60
40
40
80
ENDCHAR
STARTCHAR thorn
ENCODING 254
SWIDTH 531 0
DWIDTH 5 0
BBX 5 11 0 -2
BITMAP
C0
40
40
70
48
48
48
48
70
40
E0
ENDCHAR
STARTCHAR ydieresis
ENCODING 255
SWIDTH 531 0
DWIDTH 5 0
BBX 4 10 1 -2
BITMAP
90
00
90
90
90
90
60
40
40
80
ENDCHAR
ENDFONT
