STARTFONT 2.1
FONT -FontForge-MS Serif-Normal-R-Normal--24-180-96-96-P-116-WinRoman-0
SIZE 18 96 96
FONTBOUNDINGBOX 22 27 0 -6
COMMENT "Generated by fontforge, http://fontforge.sourceforge.net"
COMMENT "Copyright (c) 1985 Xiphias, Los Angeles, Ca."
STARTPROPERTIES 33
FOUNDRY "FontForge"
FAMILY_NAME "MS Serif"
WEIGHT_NAME "Normal"
SLANT "R"
SETWIDTH_NAME "Normal"
ADD_STYLE_NAME ""
PIXEL_SIZE 24
POINT_SIZE 180
RESOLUTION_X 96
RESOLUTION_Y 96
SPACING "P"
AVERAGE_WIDTH 116
CHARSET_REGISTRY "WinRoman"
CHARSET_ENCODING "0"
FONTNAME_REGISTRY ""
CHARSET_COLLECTIONS "WinRoman"
FONT_NAME "MSSerif"
FACE_NAME "MS Serif"
FONT_VERSION "001.000"
FONT_ASCENT 19
FONT_DESCENT 5
UNDERLINE_POSITION -2
UNDERLINE_THICKNESS 2
X_HEIGHT 10
CAP_HEIGHT 15
RAW_ASCENT 800
RAW_DESCENT 200
NORM_SPACE 6
RELATIVE_WEIGHT 40
RELATIVE_SETWIDTH 50
FIGURE_WIDTH 12
AVG_LOWERCASE_WIDTH 107
AVG_UPPERCASE_WIDTH 151
ENDPROPERTIES
CHARS 224
STARTCHAR space
ENCODING 32
SWIDTH 250 0
DWIDTH 6 0
BBX 1 1 5 -6
BITMAP
00
ENDCHAR
STARTCHAR exclam
ENCODING 33
SWIDTH 281 0
DWIDTH 7 0
BBX 3 17 2 0
BITMAP
40
E0
E0
E0
E0
E0
E0
E0
40
40
40
40
00
40
E0
E0
40
ENDCHAR
STARTCHAR quotedbl
ENCODING 34
SWIDTH 375 0
DWIDTH 10 0
BBX 8 6 1 11
BITMAP
42
E7
E7
42
42
42
ENDCHAR
STARTCHAR numbersign
ENCODING 35
SWIDTH 500 0
DWIDTH 12 0
BBX 12 17 0 0
BITMAP
18C0
18C0
18C0
18C0
18C0
7FF0
3180
3180
3180
3180
3180
FFE0
6300
6300
6300
6300
6300
ENDCHAR
STARTCHAR dollar
ENCODING 36
SWIDTH 500 0
DWIDTH 12 0
BBX 10 21 1 -3
BITMAP
0400
0400
1F40
35C0
64C0
6440
6440
7400
3C00
1F00
0780
0580
05C0
84C0
84C0
C4C0
E580
BF00
0400
0400
0400
ENDCHAR
STARTCHAR percent
ENCODING 37
SWIDTH 875 0
DWIDTH 20 0
BBX 18 17 1 0
BITMAP
1E0600
33FE00
611C00
C11800
C11800
C23000
C46000
786000
00C000
018780
018CC0
031840
063040
063040
0C3080
183100
181E00
ENDCHAR
STARTCHAR ampersand
ENCODING 38
SWIDTH 781 0
DWIDTH 19 0
BBX 17 17 1 0
BITMAP
038000
06C000
0C6000
0C2000
0C6000
06C000
078000
0F1F00
3B8E00
618400
60CC00
C0E800
C07800
C03800
607C80
79CF80
1F0700
ENDCHAR
STARTCHAR quotesingle
ENCODING 39
SWIDTH 281 0
DWIDTH 6 0
BBX 3 6 2 11
BITMAP
40
E0
E0
40
40
40
ENDCHAR
STARTCHAR parenleft
ENCODING 40
SWIDTH 344 0
DWIDTH 8 0
BBX 6 22 1 -5
BITMAP
04
08
10
30
20
60
60
C0
C0
C0
C0
C0
C0
C0
C0
60
60
20
30
10
08
04
ENDCHAR
STARTCHAR parenright
ENCODING 41
SWIDTH 344 0
DWIDTH 8 0
BBX 6 22 1 -5
BITMAP
80
40
20
30
10
18
18
0C
0C
0C
0C
0C
0C
0C
0C
0C
18
18
10
30
20
40
ENDCHAR
STARTCHAR asterisk
ENCODING 42
SWIDTH 500 0
DWIDTH 8 0
BBX 7 9 1 9
BITMAP
10
38
D6
FE
38
FE
D6
38
10
ENDCHAR
STARTCHAR plus
ENCODING 43
SWIDTH 562 0
DWIDTH 14 0
BBX 10 9 2 2
BITMAP
0C00
0C00
0C00
0C00
FFC0
0C00
0C00
0C00
0C00
ENDCHAR
STARTCHAR comma
ENCODING 44
SWIDTH 250 0
DWIDTH 6 0
BBX 3 7 2 -3
BITMAP
40
E0
E0
60
20
20
40
ENDCHAR
STARTCHAR hyphen
ENCODING 45
SWIDTH 312 0
DWIDTH 8 0
BBX 6 1 1 6
BITMAP
FC
ENDCHAR
STARTCHAR period
ENCODING 46
SWIDTH 250 0
DWIDTH 6 0
BBX 3 4 2 0
BITMAP
40
E0
E0
40
ENDCHAR
STARTCHAR slash
ENCODING 47
SWIDTH 250 0
DWIDTH 7 0
BBX 7 18 0 -1
BITMAP
06
06
06
0C
0C
0C
18
18
18
30
30
30
60
60
60
C0
C0
C0
ENDCHAR
STARTCHAR zero
ENCODING 48
SWIDTH 500 0
DWIDTH 12 0
BBX 10 16 1 0
BITMAP
1E00
3300
6180
6180
C0C0
C0C0
C0C0
C0C0
C0C0
C0C0
C0C0
C0C0
6180
6180
3300
1E00
ENDCHAR
STARTCHAR one
ENCODING 49
SWIDTH 500 0
DWIDTH 12 0
BBX 6 16 3 0
BITMAP
10
30
70
F0
30
30
30
30
30
30
30
30
30
30
78
FC
ENDCHAR
STARTCHAR two
ENCODING 50
SWIDTH 500 0
DWIDTH 12 0
BBX 10 16 1 0
BITMAP
1E00
6780
4180
01C0
00C0
00C0
0080
0180
0100
0200
0400
0800
1040
20C0
7F80
FF80
ENDCHAR
STARTCHAR three
ENCODING 51
SWIDTH 500 0
DWIDTH 12 0
BBX 10 16 1 0
BITMAP
1E00
6300
4380
0180
0180
0300
1F00
0780
0180
01C0
00C0
00C0
00C0
C180
E380
3E00
ENDCHAR
STARTCHAR four
ENCODING 52
SWIDTH 500 0
DWIDTH 12 0
BBX 11 16 1 0
BITMAP
0380
0380
0780
0D80
1980
1180
3180
6180
C180
C180
FFE0
FFE0
0180
0180
0180
0180
ENDCHAR
STARTCHAR five
ENCODING 53
SWIDTH 500 0
DWIDTH 12 0
BBX 10 16 1 0
BITMAP
3F80
3F00
2000
4000
4000
7E00
7F80
0380
01C0
00C0
00C0
00C0
00C0
E180
F380
3E00
ENDCHAR
STARTCHAR six
ENCODING 54
SWIDTH 500 0
DWIDTH 12 0
BBX 10 16 1 0
BITMAP
0300
0C00
1800
3000
6000
6000
EE00
F380
E180
C0C0
C0C0
C0C0
C0C0
6180
7380
1E00
ENDCHAR
STARTCHAR seven
ENCODING 55
SWIDTH 500 0
DWIDTH 12 0
BBX 10 16 1 0
BITMAP
7FC0
7F80
C100
8100
0300
0200
0200
0600
0400
0C00
0800
0800
1800
1000
3000
2000
ENDCHAR
STARTCHAR eight
ENCODING 56
SWIDTH 500 0
DWIDTH 12 0
BBX 10 16 1 0
BITMAP
1E00
7380
6180
C0C0
C0C0
6180
3B00
1E00
3F00
6380
C1C0
C0C0
C0C0
6180
7380
1E00
ENDCHAR
STARTCHAR nine
ENCODING 57
SWIDTH 500 0
DWIDTH 12 0
BBX 10 16 1 0
BITMAP
1E00
7380
6180
C0C0
C0C0
C0C0
C0C0
61C0
73C0
1DC0
0180
0180
0300
0600
0C00
3000
ENDCHAR
STARTCHAR colon
ENCODING 58
SWIDTH 250 0
DWIDTH 7 0
BBX 3 11 2 0
BITMAP
40
E0
E0
40
00
00
00
40
E0
E0
40
ENDCHAR
STARTCHAR semicolon
ENCODING 59
SWIDTH 250 0
DWIDTH 7 0
BBX 3 14 2 -3
BITMAP
40
E0
E0
40
00
00
00
40
E0
E0
60
20
20
40
ENDCHAR
STARTCHAR less
ENCODING 60
SWIDTH 562 0
DWIDTH 14 0
BBX 11 13 1 1
BITMAP
0060
01C0
0380
0E00
1C00
7000
E000
7000
1C00
0E00
0380
01C0
0060
ENDCHAR
STARTCHAR equal
ENCODING 61
SWIDTH 562 0
DWIDTH 14 0
BBX 12 7 1 4
BITMAP
FFF0
FFF0
0000
0000
0000
FFF0
FFF0
ENDCHAR
STARTCHAR greater
ENCODING 62
SWIDTH 562 0
DWIDTH 14 0
BBX 11 13 2 1
BITMAP
C000
7000
3800
0E00
0700
01C0
00E0
01C0
0700
0E00
3800
7000
C000
ENDCHAR
STARTCHAR question
ENCODING 63
SWIDTH 438 0
DWIDTH 11 0
BBX 9 17 1 0
BITMAP
3E00
6700
C380
E380
E380
4300
0300
0600
0C00
0800
0800
0800
0000
0800
1C00
1C00
0800
ENDCHAR
STARTCHAR at
ENCODING 64
SWIDTH 906 0
DWIDTH 23 0
BBX 21 17 1 -3
BITMAP
01FC00
070700
1C01C0
300060
60F830
618E30
C30618
C60618
C60C18
C60C30
C31E70
61F7C0
600000
300000
1C0000
070600
01F800
ENDCHAR
STARTCHAR A
ENCODING 65
SWIDTH 688 0
DWIDTH 17 0
BBX 17 16 0 0
BITMAP
008000
008000
01C000
01C000
03E000
026000
067000
043000
0C3800
081800
1FFC00
100C00
300E00
200600
600700
F81F80
ENDCHAR
STARTCHAR B
ENCODING 66
SWIDTH 656 0
DWIDTH 16 0
BBX 14 16 1 0
BITMAP
FFE0
3030
3018
3018
3018
3018
3030
3FF0
3038
3018
300C
300C
300C
3018
3038
FFE0
ENDCHAR
STARTCHAR C
ENCODING 67
SWIDTH 656 0
DWIDTH 16 0
BBX 14 16 1 0
BITMAP
07E4
1C3C
300C
6004
6004
C000
C000
C000
C000
C000
C000
6000
6004
3008
1C30
07C0
ENDCHAR
STARTCHAR D
ENCODING 68
SWIDTH 719 0
DWIDTH 17 0
BBX 15 16 1 0
BITMAP
FFC0
3070
3018
300C
300C
3006
3006
3006
3006
3006
3006
300C
300C
3018
3070
FFC0
ENDCHAR
STARTCHAR E
ENCODING 69
SWIDTH 625 0
DWIDTH 15 0
BBX 13 16 1 0
BITMAP
FFF0
3030
3010
3000
3000
3080
3080
3F80
3080
3080
3000
3000
3000
3008
3018
FFF0
ENDCHAR
STARTCHAR F
ENCODING 70
SWIDTH 562 0
DWIDTH 13 0
BBX 12 16 1 0
BITMAP
FFF0
3030
3010
3000
3000
3080
3080
3F80
3080
3080
3000
3000
3000
3000
3000
FC00
ENDCHAR
STARTCHAR G
ENCODING 71
SWIDTH 719 0
DWIDTH 17 0
BBX 16 16 1 0
BITMAP
07C8
1C38
3018
6008
6008
C000
C000
C000
C03F
C00C
C00C
600C
600C
3008
1C30
07C0
ENDCHAR
STARTCHAR H
ENCODING 72
SWIDTH 719 0
DWIDTH 17 0
BBX 15 16 1 0
BITMAP
FC7E
3018
3018
3018
3018
3018
3018
3FF8
3018
3018
3018
3018
3018
3018
3018
FC7E
ENDCHAR
STARTCHAR I
ENCODING 73
SWIDTH 344 0
DWIDTH 8 0
BBX 6 16 1 0
BITMAP
FC
30
30
30
30
30
30
30
30
30
30
30
30
30
30
FC
ENDCHAR
STARTCHAR J
ENCODING 74
SWIDTH 406 0
DWIDTH 9 0
BBX 8 16 0 0
BITMAP
3F
0C
0C
0C
0C
0C
0C
0C
0C
0C
0C
0C
0C
CC
CC
78
ENDCHAR
STARTCHAR K
ENCODING 75
SWIDTH 688 0
DWIDTH 17 0
BBX 16 16 1 0
BITMAP
FCFC
3030
3060
30C0
3180
3300
3600
3E00
3F00
3380
31C0
30E0
3070
3038
301C
FC7F
ENDCHAR
STARTCHAR L
ENCODING 76
SWIDTH 625 0
DWIDTH 15 0
BBX 13 16 1 0
BITMAP
FE00
3000
3000
3000
3000
3000
3000
3000
3000
3000
3000
3000
3000
3008
3018
FFF0
ENDCHAR
STARTCHAR M
ENCODING 77
SWIDTH 875 0
DWIDTH 21 0
BBX 19 16 1 0
BITMAP
F803E0
380380
380380
3C0780
2C0580
2E0D80
260980
260980
271980
231180
23B180
21A180
21A180
21E180
20C180
F8C7E0
ENDCHAR
STARTCHAR N
ENCODING 78
SWIDTH 719 0
DWIDTH 17 0
BBX 15 16 1 0
BITMAP
E03E
7008
3808
3C08
3C08
2E08
2708
2788
2388
21C8
20E8
2078
2078
2038
2018
F808
ENDCHAR
STARTCHAR O
ENCODING 79
SWIDTH 719 0
DWIDTH 17 0
BBX 15 16 1 0
BITMAP
07C0
1C70
3018
600C
600C
C006
C006
C006
C006
C006
C006
600C
600C
3018
1C70
07C0
ENDCHAR
STARTCHAR P
ENCODING 80
SWIDTH 562 0
DWIDTH 13 0
BBX 12 16 1 0
BITMAP
FF80
30E0
3060
3030
3030
3030
3060
30E0
3F80
3000
3000
3000
3000
3000
3000
FC00
ENDCHAR
STARTCHAR Q
ENCODING 81
SWIDTH 719 0
DWIDTH 17 0
BBX 15 19 1 -3
BITMAP
07C0
1C70
3018
600C
600C
C006
C006
C006
C006
C006
C006
600C
600C
3018
1C70
07C0
03C0
01E0
007C
ENDCHAR
STARTCHAR R
ENCODING 82
SWIDTH 656 0
DWIDTH 16 0
BBX 15 16 1 0
BITMAP
FFC0
3070
3030
3018
3018
3018
3030
3070
3FC0
30C0
30E0
3060
3070
3030
3038
FC1E
ENDCHAR
STARTCHAR S
ENCODING 83
SWIDTH 562 0
DWIDTH 13 0
BBX 11 16 1 0
BITMAP
3F40
61C0
C0C0
C040
E040
7000
3C00
1F00
0780
01C0
00E0
8060
8060
C0C0
E1C0
BF00
ENDCHAR
STARTCHAR T
ENCODING 84
SWIDTH 594 0
DWIDTH 14 0
BBX 14 16 0 0
BITMAP
FFFC
C30C
8304
8304
0300
0300
0300
0300
0300
0300
0300
0300
0300
0300
0300
0FC0
ENDCHAR
STARTCHAR U
ENCODING 85
SWIDTH 719 0
DWIDTH 17 0
BBX 15 16 1 0
BITMAP
FC3E
3008
3008
3008
3008
3008
3008
3008
3008
3008
3008
3008
3008
1810
1C30
07C0
ENDCHAR
STARTCHAR V
ENCODING 86
SWIDTH 688 0
DWIDTH 17 0
BBX 17 16 0 0
BITMAP
FC0F80
700300
300200
380600
180400
1C0C00
0C0800
0E1800
061000
073000
032000
03E000
01C000
01C000
008000
008000
ENDCHAR
STARTCHAR W
ENCODING 87
SWIDTH 1031 0
DWIDTH 22 0
BBX 22 16 0 0
BITMAP
FDF87C
306010
387030
183020
183020
1C3860
0C3840
0E7CC0
064C80
064C80
074E80
038700
038700
010200
010200
010200
ENDCHAR
STARTCHAR X
ENCODING 88
SWIDTH 719 0
DWIDTH 17 0
BBX 17 16 0 0
BITMAP
FE1F80
380600
1C0C00
0C1800
0E1000
073000
03E000
01C000
01C000
03E000
067000
043800
0C1800
181C00
300E00
FC3F80
ENDCHAR
STARTCHAR Y
ENCODING 89
SWIDTH 688 0
DWIDTH 18 0
BBX 18 16 0 0
BITMAP
FE0FC0
380300
1C0600
0C0400
0E0C00
071800
031000
03B000
01E000
00C000
00C000
00C000
00C000
00C000
00C000
03F000
ENDCHAR
STARTCHAR Z
ENCODING 90
SWIDTH 656 0
DWIDTH 15 0
BBX 13 16 1 0
BITMAP
7FF8
6070
4060
00E0
01C0
0180
0380
0700
0600
0E00
1C00
1800
3800
7008
6018
FFF8
ENDCHAR
STARTCHAR bracketleft
ENCODING 91
SWIDTH 344 0
DWIDTH 8 0
BBX 5 22 2 -5
BITMAP
F8
E0
C0
C0
C0
C0
C0
C0
C0
C0
C0
C0
C0
C0
C0
C0
C0
C0
C0
C0
E0
F8
ENDCHAR
STARTCHAR backslash
ENCODING 92
SWIDTH 250 0
DWIDTH 7 0
BBX 7 17 0 0
BITMAP
C0
C0
C0
60
60
60
30
30
30
18
18
18
0C
0C
0C
06
06
ENDCHAR
STARTCHAR bracketright
ENCODING 93
SWIDTH 344 0
DWIDTH 8 0
BBX 5 22 1 -5
BITMAP
F8
38
18
18
18
18
18
18
18
18
18
18
18
18
18
18
18
18
18
18
38
F8
ENDCHAR
STARTCHAR asciicircum
ENCODING 94
SWIDTH 500 0
DWIDTH 11 0
BBX 9 5 1 12
BITMAP
0800
1C00
3E00
6300
C180
ENDCHAR
STARTCHAR underscore
ENCODING 95
SWIDTH 500 0
DWIDTH 12 0
BBX 12 1 0 -2
BITMAP
FFF0
ENDCHAR
STARTCHAR grave
ENCODING 96
SWIDTH 344 0
DWIDTH 8 0
BBX 4 3 2 14
BITMAP
C0
60
10
ENDCHAR
STARTCHAR a
ENCODING 97
SWIDTH 438 0
DWIDTH 11 0
BBX 10 11 1 0
BITMAP
3E00
6300
6300
0300
0F00
3B00
6300
C300
C740
EFC0
7980
ENDCHAR
STARTCHAR b
ENCODING 98
SWIDTH 531 0
DWIDTH 12 0
BBX 10 17 1 0
BITMAP
2000
E000
6000
6000
6000
6000
6F00
7380
61C0
61C0
60C0
60C0
60C0
60C0
7080
3980
0E00
ENDCHAR
STARTCHAR c
ENCODING 99
SWIDTH 438 0
DWIDTH 11 0
BBX 9 11 1 0
BITMAP
1E00
6380
4180
C000
C000
C000
E000
E000
7080
7980
1E00
ENDCHAR
STARTCHAR d
ENCODING 100
SWIDTH 531 0
DWIDTH 12 0
BBX 10 17 1 0
BITMAP
0080
0380
0180
0180
0180
0180
1D80
6780
4380
C180
C180
C180
C180
E180
E180
73C0
3D00
ENDCHAR
STARTCHAR e
ENCODING 101
SWIDTH 438 0
DWIDTH 11 0
BBX 10 11 1 0
BITMAP
1E00
6780
4380
FFC0
C000
C000
E000
E000
7080
7980
1E00
ENDCHAR
STARTCHAR f
ENCODING 102
SWIDTH 312 0
DWIDTH 7 0
BBX 6 17 1 0
BITMAP
38
6C
6C
60
60
60
F8
60
60
60
60
60
60
60
60
60
F8
ENDCHAR
STARTCHAR g
ENCODING 103
SWIDTH 500 0
DWIDTH 12 0
BBX 12 17 0 -6
BITMAP
1E00
3380
61E0
6180
6180
6180
3300
3E00
6000
7000
3F80
10E0
6070
C030
C030
E060
7F80
ENDCHAR
STARTCHAR h
ENCODING 104
SWIDTH 500 0
DWIDTH 12 0
BBX 10 17 1 0
BITMAP
2000
E000
6000
6000
6000
6000
6700
6B80
7180
6180
6180
6180
6180
6180
6180
6180
F3C0
ENDCHAR
STARTCHAR i
ENCODING 105
SWIDTH 250 0
DWIDTH 6 0
BBX 4 17 1 0
BITMAP
60
60
00
00
00
00
20
E0
60
60
60
60
60
60
60
60
F0
ENDCHAR
STARTCHAR j
ENCODING 106
SWIDTH 281 0
DWIDTH 6 0
BBX 4 22 0 -5
BITMAP
30
30
00
00
00
00
10
70
30
30
30
30
30
30
30
30
30
30
30
30
B0
E0
ENDCHAR
STARTCHAR k
ENCODING 107
SWIDTH 500 0
DWIDTH 12 0
BBX 11 17 1 0
BITMAP
2000
E000
6000
6000
6000
6000
6780
6200
6400
6800
7800
7800
6C00
6600
6300
6180
F3E0
ENDCHAR
STARTCHAR l
ENCODING 108
SWIDTH 250 0
DWIDTH 6 0
BBX 4 17 1 0
BITMAP
20
E0
60
60
60
60
60
60
60
60
60
60
60
60
60
60
F0
ENDCHAR
STARTCHAR m
ENCODING 109
SWIDTH 750 0
DWIDTH 18 0
BBX 16 11 1 0
BITMAP
271C
EBAE
71C6
6186
6186
6186
6186
6186
6186
6186
F3CF
ENDCHAR
STARTCHAR n
ENCODING 110
SWIDTH 500 0
DWIDTH 12 0
BBX 10 11 1 0
BITMAP
2700
EB80
7180
6180
6180
6180
6180
6180
6180
6180
F3C0
ENDCHAR
STARTCHAR o
ENCODING 111
SWIDTH 531 0
DWIDTH 12 0
BBX 10 11 1 0
BITMAP
1E00
6780
4380
C1C0
C1C0
C0C0
E0C0
E0C0
7080
7980
1E00
ENDCHAR
STARTCHAR p
ENCODING 112
SWIDTH 531 0
DWIDTH 12 0
BBX 10 16 1 -5
BITMAP
2F00
F380
61C0
61C0
60C0
60C0
60C0
60C0
7080
7980
6E00
6000
6000
6000
6000
F000
ENDCHAR
STARTCHAR q
ENCODING 113
SWIDTH 531 0
DWIDTH 12 0
BBX 10 16 1 -5
BITMAP
1C80
6780
4380
C180
C180
C180
C180
E180
E180
7380
3D80
0180
0180
0180
0180
03C0
ENDCHAR
STARTCHAR r
ENCODING 114
SWIDTH 344 0
DWIDTH 8 0
BBX 7 11 1 0
BITMAP
2E
F6
60
60
60
60
60
60
60
60
F0
ENDCHAR
STARTCHAR s
ENCODING 115
SWIDTH 406 0
DWIDTH 10 0
BBX 8 11 1 0
BITMAP
3E
66
C2
E0
78
1E
07
83
C3
E6
9C
ENDCHAR
STARTCHAR t
ENCODING 116
SWIDTH 250 0
DWIDTH 7 0
BBX 6 15 0 0
BITMAP
10
10
30
30
FC
30
30
30
30
30
30
30
30
34
18
ENDCHAR
STARTCHAR u
ENCODING 117
SWIDTH 500 0
DWIDTH 12 0
BBX 10 11 1 0
BITMAP
E380
6180
6180
6180
6180
6180
6180
6180
6380
35C0
1900
ENDCHAR
STARTCHAR v
ENCODING 118
SWIDTH 531 0
DWIDTH 11 0
BBX 11 11 0 0
BITMAP
F0E0
6040
6040
3080
3080
1900
1900
0E00
0E00
0400
0400
ENDCHAR
STARTCHAR w
ENCODING 119
SWIDTH 781 0
DWIDTH 17 0
BBX 17 11 0 0
BITMAP
F3C380
618100
618100
30C200
30C200
196400
196400
0E3800
0E3800
041000
041000
ENDCHAR
STARTCHAR x
ENCODING 120
SWIDTH 500 0
DWIDTH 12 0
BBX 10 11 1 0
BITMAP
F3C0
6100
3200
3A00
1C00
0C00
0E00
1600
2300
6180
F3C0
ENDCHAR
STARTCHAR y
ENCODING 121
SWIDTH 531 0
DWIDTH 11 0
BBX 11 16 0 -5
BITMAP
F0E0
6040
6040
3080
3080
1900
1900
0E00
0E00
0400
0400
0800
0800
1000
D000
E000
ENDCHAR
STARTCHAR z
ENCODING 122
SWIDTH 438 0
DWIDTH 11 0
BBX 9 11 1 0
BITMAP
7F80
4300
4600
0600
0C00
1800
1800
3000
6080
6080
FF80
ENDCHAR
STARTCHAR braceleft
ENCODING 123
SWIDTH 406 0
DWIDTH 10 0
BBX 6 22 2 -5
BITMAP
0C
18
30
30
30
30
30
30
30
30
60
C0
60
30
30
30
30
30
30
30
18
0C
ENDCHAR
STARTCHAR bar
ENCODING 124
SWIDTH 281 0
DWIDTH 6 0
BBX 2 22 2 -5
BITMAP
C0
C0
C0
C0
C0
C0
C0
C0
C0
C0
C0
C0
C0
C0
C0
C0
C0
C0
C0
C0
C0
C0
ENDCHAR
STARTCHAR braceright
ENCODING 125
SWIDTH 406 0
DWIDTH 10 0
BBX 6 22 2 -5
BITMAP
C0
60
30
30
30
30
30
30
30
30
18
0C
18
30
30
30
30
30
30
30
60
C0
ENDCHAR
STARTCHAR asciitilde
ENCODING 126
SWIDTH 500 0
DWIDTH 12 0
BBX 10 4 1 13
BITMAP
3840
7CC0
CF80
8700
ENDCHAR
STARTCHAR uni007F
ENCODING 127
SWIDTH 344 0
DWIDTH 8 0
BBX 4 17 2 0
BITMAP
F0
F0
F0
F0
F0
F0
F0
F0
F0
F0
F0
F0
F0
F0
F0
F0
F0
ENDCHAR
STARTCHAR Euro
ENCODING 128
SWIDTH 344 0
DWIDTH 8 0
BBX 4 17 2 0
BITMAP
F0
F0
F0
F0
F0
F0
F0
F0
F0
F0
F0
F0
F0
F0
F0
F0
F0
ENDCHAR
STARTCHAR NameMe.129
ENCODING 129
SWIDTH 344 0
DWIDTH 8 0
BBX 4 17 2 0
BITMAP
F0
F0
F0
F0
F0
F0
F0
F0
F0
F0
F0
F0
F0
F0
F0
F0
F0
ENDCHAR
STARTCHAR quotesinglbase
ENCODING 130
SWIDTH 344 0
DWIDTH 8 0
BBX 4 17 2 0
BITMAP
F0
F0
F0
F0
F0
F0
F0
F0
F0
F0
F0
F0
F0
F0
F0
F0
F0
ENDCHAR
STARTCHAR florin
ENCODING 131
SWIDTH 344 0
DWIDTH 8 0
BBX 4 17 2 0
BITMAP
F0
F0
F0
F0
F0
F0
F0
F0
F0
F0
F0
F0
F0
F0
F0
F0
F0
ENDCHAR
STARTCHAR quotedblbase
ENCODING 132
SWIDTH 344 0
DWIDTH 8 0
BBX 4 17 2 0
BITMAP
F0
F0
F0
F0
F0
F0
F0
F0
F0
F0
F0
F0
F0
F0
F0
F0
F0
ENDCHAR
STARTCHAR ellipsis
ENCODING 133
SWIDTH 344 0
DWIDTH 8 0
BBX 4 17 2 0
BITMAP
F0
F0
F0
F0
F0
F0
F0
F0
F0
F0
F0
F0
F0
F0
F0
F0
F0
ENDCHAR
STARTCHAR dagger
ENCODING 134
SWIDTH 344 0
DWIDTH 8 0
BBX 4 17 2 0
BITMAP
F0
F0
F0
F0
F0
F0
F0
F0
F0
F0
F0
F0
F0
F0
F0
F0
F0
ENDCHAR
STARTCHAR daggerdbl
ENCODING 135
SWIDTH 344 0
DWIDTH 8 0
BBX 4 17 2 0
BITMAP
F0
F0
F0
F0
F0
F0
F0
F0
F0
F0
F0
F0
F0
F0
F0
F0
F0
ENDCHAR
STARTCHAR circumflex
ENCODING 136
SWIDTH 344 0
DWIDTH 8 0
BBX 4 17 2 0
BITMAP
F0
F0
F0
F0
F0
F0
F0
F0
F0
F0
F0
F0
F0
F0
F0
F0
F0
ENDCHAR
STARTCHAR perthousand
ENCODING 137
SWIDTH 344 0
DWIDTH 8 0
BBX 4 17 2 0
BITMAP
F0
F0
F0
F0
F0
F0
F0
F0
F0
F0
F0
F0
F0
F0
F0
F0
F0
ENDCHAR
STARTCHAR Scaron
ENCODING 138
SWIDTH 344 0
DWIDTH 8 0
BBX 4 17 2 0
BITMAP
F0
F0
F0
F0
F0
F0
F0
F0
F0
F0
F0
F0
F0
F0
F0
F0
F0
ENDCHAR
STARTCHAR guilsinglleft
ENCODING 139
SWIDTH 344 0
DWIDTH 8 0
BBX 4 17 2 0
BITMAP
F0
F0
F0
F0
F0
F0
F0
F0
F0
F0
F0
F0
F0
F0
F0
F0
F0
ENDCHAR
STARTCHAR OE
ENCODING 140
SWIDTH 344 0
DWIDTH 8 0
BBX 4 17 2 0
BITMAP
F0
F0
F0
F0
F0
F0
F0
F0
F0
F0
F0
F0
F0
F0
F0
F0
F0
ENDCHAR
STARTCHAR NameMe.141
ENCODING 141
SWIDTH 344 0
DWIDTH 8 0
BBX 4 17 2 0
BITMAP
F0
F0
F0
F0
F0
F0
F0
F0
F0
F0
F0
F0
F0
F0
F0
F0
F0
ENDCHAR
STARTCHAR Zcaron
ENCODING 142
SWIDTH 344 0
DWIDTH 8 0
BBX 4 17 2 0
BITMAP
F0
F0
F0
F0
F0
F0
F0
F0
F0
F0
F0
F0
F0
F0
F0
F0
F0
ENDCHAR
STARTCHAR NameMe.143
ENCODING 143
SWIDTH 344 0
DWIDTH 8 0
BBX 4 17 2 0
BITMAP
F0
F0
F0
F0
F0
F0
F0
F0
F0
F0
F0
F0
F0
F0
F0
F0
F0
ENDCHAR
STARTCHAR NameMe.144
ENCODING 144
SWIDTH 344 0
DWIDTH 8 0
BBX 4 17 2 0
BITMAP
F0
F0
F0
F0
F0
F0
F0
F0
F0
F0
F0
F0
F0
F0
F0
F0
F0
ENDCHAR
STARTCHAR quoteleft
ENCODING 145
SWIDTH 250 0
DWIDTH 6 0
BBX 3 6 1 11
BITMAP
40
80
C0
E0
E0
40
ENDCHAR
STARTCHAR quoteright
ENCODING 146
SWIDTH 250 0
DWIDTH 6 0
BBX 3 6 2 11
BITMAP
40
E0
E0
60
20
40
ENDCHAR
STARTCHAR quotedblleft
ENCODING 147
SWIDTH 344 0
DWIDTH 8 0
BBX 4 17 2 0
BITMAP
F0
F0
F0
F0
F0
F0
F0
F0
F0
F0
F0
F0
F0
F0
F0
F0
F0
ENDCHAR
STARTCHAR quotedblright
ENCODING 148
SWIDTH 344 0
DWIDTH 8 0
BBX 4 17 2 0
BITMAP
F0
F0
F0
F0
F0
F0
F0
F0
F0
F0
F0
F0
F0
F0
F0
F0
F0
ENDCHAR
STARTCHAR bullet
ENCODING 149
SWIDTH 344 0
DWIDTH 8 0
BBX 4 17 2 0
BITMAP
F0
F0
F0
F0
F0
F0
F0
F0
F0
F0
F0
F0
F0
F0
F0
F0
F0
ENDCHAR
STARTCHAR endash
ENCODING 150
SWIDTH 344 0
DWIDTH 8 0
BBX 4 17 2 0
BITMAP
F0
F0
F0
F0
F0
F0
F0
F0
F0
F0
F0
F0
F0
F0
F0
F0
F0
ENDCHAR
STARTCHAR emdash
ENCODING 151
SWIDTH 344 0
DWIDTH 8 0
BBX 4 17 2 0
BITMAP
F0
F0
F0
F0
F0
F0
F0
F0
F0
F0
F0
F0
F0
F0
F0
F0
F0
ENDCHAR
STARTCHAR tilde
ENCODING 152
SWIDTH 344 0
DWIDTH 8 0
BBX 4 17 2 0
BITMAP
F0
F0
F0
F0
F0
F0
F0
F0
F0
F0
F0
F0
F0
F0
F0
F0
F0
ENDCHAR
STARTCHAR trademark
ENCODING 153
SWIDTH 344 0
DWIDTH 8 0
BBX 4 17 2 0
BITMAP
F0
F0
F0
F0
F0
F0
F0
F0
F0
F0
F0
F0
F0
F0
F0
F0
F0
ENDCHAR
STARTCHAR scaron
ENCODING 154
SWIDTH 344 0
DWIDTH 8 0
BBX 4 17 2 0
BITMAP
F0
F0
F0
F0
F0
F0
F0
F0
F0
F0
F0
F0
F0
F0
F0
F0
F0
ENDCHAR
STARTCHAR guilsinglright
ENCODING 155
SWIDTH 344 0
DWIDTH 8 0
BBX 4 17 2 0
BITMAP
F0
F0
F0
F0
F0
F0
F0
F0
F0
F0
F0
F0
F0
F0
F0
F0
F0
ENDCHAR
STARTCHAR oe
ENCODING 156
SWIDTH 344 0
DWIDTH 8 0
BBX 4 17 2 0
BITMAP
F0
F0
F0
F0
F0
F0
F0
F0
F0
F0
F0
F0
F0
F0
F0
F0
F0
ENDCHAR
STARTCHAR NameMe.157
ENCODING 157
SWIDTH 344 0
DWIDTH 8 0
BBX 4 17 2 0
BITMAP
F0
F0
F0
F0
F0
F0
F0
F0
F0
F0
F0
F0
F0
F0
F0
F0
F0
ENDCHAR
STARTCHAR zcaron
ENCODING 158
SWIDTH 344 0
DWIDTH 8 0
BBX 4 17 2 0
BITMAP
F0
F0
F0
F0
F0
F0
F0
F0
F0
F0
F0
F0
F0
F0
F0
F0
F0
ENDCHAR
STARTCHAR Ydieresis
ENCODING 159
SWIDTH 344 0
DWIDTH 8 0
BBX 4 17 2 0
BITMAP
F0
F0
F0
F0
F0
F0
F0
F0
F0
F0
F0
F0
F0
F0
F0
F0
F0
ENDCHAR
STARTCHAR uni00A0
ENCODING 160
SWIDTH 250 0
DWIDTH 6 0
BBX 1 1 5 -6
BITMAP
00
ENDCHAR
STARTCHAR exclamdown
ENCODING 161
SWIDTH 281 0
DWIDTH 7 0
BBX 3 17 2 -5
BITMAP
40
E0
E0
40
00
40
40
40
40
E0
E0
E0
E0
E0
E0
E0
40
ENDCHAR
STARTCHAR cent
ENCODING 162
SWIDTH 500 0
DWIDTH 12 0
BBX 9 16 2 -2
BITMAP
0080
0080
0100
1F00
6380
4580
C400
C800
C800
D000
D000
6080
7180
7F00
8000
8000
ENDCHAR
STARTCHAR sterling
ENCODING 163
SWIDTH 500 0
DWIDTH 12 0
BBX 12 17 0 0
BITMAP
0F80
18C0
30E0
3040
3000
3000
1800
7F00
1800
1800
1800
1800
3800
7800
9E10
BF30
61E0
ENDCHAR
STARTCHAR currency
ENCODING 164
SWIDTH 500 0
DWIDTH 12 0
BBX 10 10 1 6
BITMAP
DEC0
FFC0
6180
C0C0
C0C0
C0C0
C0C0
6180
FFC0
DEC0
ENDCHAR
STARTCHAR yen
ENCODING 165
SWIDTH 531 0
DWIDTH 12 0
BBX 12 17 0 0
BITMAP
F070
6020
6020
3040
3040
1880
1880
FDF0
0F00
0E00
FFF0
0600
0600
0600
0600
0600
1F80
ENDCHAR
STARTCHAR brokenbar
ENCODING 166
SWIDTH 281 0
DWIDTH 6 0
BBX 2 17 2 0
BITMAP
C0
C0
C0
C0
C0
C0
C0
00
00
00
C0
C0
C0
C0
C0
C0
C0
ENDCHAR
STARTCHAR section
ENCODING 167
SWIDTH 500 0
DWIDTH 12 0
BBX 9 20 2 -3
BITMAP
1E00
3300
6300
6000
3000
1800
3C00
4E00
C700
C380
E180
7180
3900
1E00
0C00
0600
0300
6300
6600
3C00
ENDCHAR
STARTCHAR dieresis
ENCODING 168
SWIDTH 344 0
DWIDTH 8 0
BBX 6 2 1 15
BITMAP
CC
CC
ENDCHAR
STARTCHAR copyright
ENCODING 169
SWIDTH 750 0
DWIDTH 18 0
BBX 16 16 1 1
BITMAP
07E0
1C38
300C
6006
63E6
C663
CC23
CC03
CC03
CC23
C643
6386
6006
300C
1C38
07E0
ENDCHAR
STARTCHAR ordfeminine
ENCODING 170
SWIDTH 281 0
DWIDTH 8 0
BBX 7 10 1 7
BITMAP
78
CC
0C
1C
6C
CC
DE
66
00
FE
ENDCHAR
STARTCHAR guillemotleft
ENCODING 171
SWIDTH 500 0
DWIDTH 12 0
BBX 10 10 1 2
BITMAP
0CC0
1980
3300
6600
CC00
CC00
6600
3300
1980
0CC0
ENDCHAR
STARTCHAR logicalnot
ENCODING 172
SWIDTH 562 0
DWIDTH 14 0
BBX 12 4 1 6
BITMAP
FFF0
FFF0
0030
0030
ENDCHAR
STARTCHAR uni00AD
ENCODING 173
SWIDTH 312 0
DWIDTH 8 0
BBX 6 1 1 6
BITMAP
FC
ENDCHAR
STARTCHAR registered
ENCODING 174
SWIDTH 750 0
DWIDTH 18 0
BBX 16 16 1 1
BITMAP
07E0
1C38
300C
6006
6FC6
C663
C623
C663
C7C3
C6C3
C663
6F36
6006
300C
1C38
07E0
ENDCHAR
STARTCHAR macron
ENCODING 175
SWIDTH 500 0
DWIDTH 12 0
BBX 12 1 0 17
BITMAP
FFF0
ENDCHAR
STARTCHAR degree
ENCODING 176
SWIDTH 344 0
DWIDTH 8 0
BBX 6 6 1 12
BITMAP
30
78
CC
CC
78
30
ENDCHAR
STARTCHAR plusminus
ENCODING 177
SWIDTH 562 0
DWIDTH 14 0
BBX 10 15 2 0
BITMAP
0C00
0C00
0C00
0C00
FFC0
FFC0
0C00
0C00
0C00
0C00
0000
0000
0000
FFC0
FFC0
ENDCHAR
STARTCHAR uni00B2
ENCODING 178
SWIDTH 250 0
DWIDTH 6 0
BBX 5 8 0 9
BITMAP
70
D8
18
18
30
60
48
F8
ENDCHAR
STARTCHAR uni00B3
ENCODING 179
SWIDTH 250 0
DWIDTH 6 0
BBX 5 8 0 9
BITMAP
70
D8
18
70
18
18
D8
70
ENDCHAR
STARTCHAR acute
ENCODING 180
SWIDTH 344 0
DWIDTH 8 0
BBX 4 3 2 14
BITMAP
30
60
80
ENDCHAR
STARTCHAR uni00B5
ENCODING 181
SWIDTH 500 0
DWIDTH 12 0
BBX 11 16 1 -5
BITMAP
E1C0
60C0
60C0
60C0
60C0
60C0
60C0
60C0
61C0
72E0
7C80
6000
6000
6000
6000
6000
ENDCHAR
STARTCHAR paragraph
ENCODING 182
SWIDTH 469 0
DWIDTH 11 0
BBX 9 16 1 -2
BITMAP
3F80
7F80
F900
F900
F900
F900
7900
3900
0900
0900
0900
0900
0900
0900
0900
0900
ENDCHAR
STARTCHAR periodcentered
ENCODING 183
SWIDTH 250 0
DWIDTH 6 0
BBX 3 4 2 6
BITMAP
40
E0
E0
40
ENDCHAR
STARTCHAR cedilla
ENCODING 184
SWIDTH 344 0
DWIDTH 8 0
BBX 6 5 1 -5
BITMAP
10
20
38
8C
78
ENDCHAR
STARTCHAR uni00B9
ENCODING 185
SWIDTH 250 0
DWIDTH 6 0
BBX 4 8 1 9
BITMAP
20
E0
60
60
60
60
60
F0
ENDCHAR
STARTCHAR ordmasculine
ENCODING 186
SWIDTH 281 0
DWIDTH 8 0
BBX 6 10 1 7
BITMAP
78
CC
CC
CC
CC
CC
CC
78
00
FC
ENDCHAR
STARTCHAR guillemotright
ENCODING 187
SWIDTH 500 0
DWIDTH 12 0
BBX 10 10 1 3
BITMAP
CC00
6600
3300
1980
0CC0
0CC0
1980
3300
6600
CC00
ENDCHAR
STARTCHAR onequarter
ENCODING 188
SWIDTH 688 0
DWIDTH 16 0
BBX 14 17 1 0
BITMAP
6030
E030
6060
60C0
60C0
6180
6300
F300
0600
0C18
0C38
1838
3058
3058
60FC
C018
C018
ENDCHAR
STARTCHAR onehalf
ENCODING 189
SWIDTH 688 0
DWIDTH 16 0
BBX 14 17 1 0
BITMAP
2018
E018
6030
6060
6060
60C0
6180
F180
0300
0638
066C
0C0C
180C
1818
3030
6024
607C
ENDCHAR
STARTCHAR threequarters
ENCODING 190
SWIDTH 688 0
DWIDTH 16 0
BBX 14 17 1 0
BITMAP
7018
D818
1830
7060
1860
18C0
D980
7180
0300
0618
0638
0C38
1858
1858
30FC
6018
6018
ENDCHAR
STARTCHAR questiondown
ENCODING 191
SWIDTH 438 0
DWIDTH 11 0
BBX 9 17 1 -5
BITMAP
0800
1C00
1C00
0800
0000
0800
0800
0800
1800
3000
6000
6100
E380
E380
E180
7300
3E00
ENDCHAR
STARTCHAR Agrave
ENCODING 192
SWIDTH 688 0
DWIDTH 17 0
BBX 17 21 0 0
BITMAP
030000
018000
004000
000000
000000
008000
008000
01C000
01C000
03E000
026000
067000
043000
0C3800
081800
1FFC00
100C00
300E00
200600
600700
F81F80
ENDCHAR
STARTCHAR Aacute
ENCODING 193
SWIDTH 688 0
DWIDTH 17 0
BBX 17 21 0 0
BITMAP
006000
00C000
010000
000000
000000
008000
008000
01C000
01C000
03E000
026000
067000
043000
0C3800
081800
1FFC00
100C00
300E00
200600
600700
F81F80
ENDCHAR
STARTCHAR Acircumflex
ENCODING 194
SWIDTH 688 0
DWIDTH 17 0
BBX 17 21 0 0
BITMAP
008000
01C000
022000
041000
000000
008000
008000
01C000
01C000
03E000
026000
067000
043000
0C3800
081800
1FFC00
100C00
300E00
200600
600700
F81F80
ENDCHAR
STARTCHAR Atilde
ENCODING 195
SWIDTH 688 0
DWIDTH 17 0
BBX 17 21 0 0
BITMAP
030800
07F000
086000
000000
000000
008000
008000
01C000
01C000
03E000
026000
067000
043000
0C3800
081800
1FFC00
100C00
300E00
200600
600700
F81F80
ENDCHAR
STARTCHAR Adieresis
ENCODING 196
SWIDTH 688 0
DWIDTH 17 0
BBX 17 20 0 0
BITMAP
063000
063000
000000
000000
008000
008000
01C000
01C000
03E000
026000
067000
043000
0C3800
081800
1FFC00
100C00
300E00
200600
600700
F81F80
ENDCHAR
STARTCHAR Aring
ENCODING 197
SWIDTH 688 0
DWIDTH 17 0
BBX 17 21 0 0
BITMAP
01C000
022000
022000
01C000
000000
008000
008000
01C000
01C000
03E000
026000
067000
043000
0C3800
081800
1FFC00
100C00
300E00
200600
600700
F81F80
ENDCHAR
STARTCHAR AE
ENCODING 198
SWIDTH 906 0
DWIDTH 22 0
BBX 20 16 1 0
BITMAP
03FFE0
00F060
01B020
013000
033000
023080
063080
043F80
0FF080
083080
183000
103000
303000
203010
603030
F8FFE0
ENDCHAR
STARTCHAR Ccedilla
ENCODING 199
SWIDTH 656 0
DWIDTH 16 0
BBX 14 21 1 -5
BITMAP
07E4
1C3C
300C
6004
6004
C000
C000
C000
C000
C000
C000
6000
6004
3008
1C30
07C0
0100
0200
0380
08C0
0780
ENDCHAR
STARTCHAR Egrave
ENCODING 200
SWIDTH 625 0
DWIDTH 15 0
BBX 13 21 1 0
BITMAP
0C00
0600
0100
0000
0000
FFF0
3030
3010
3000
3000
3040
3040
3FC0
3040
3040
3000
3000
3000
3008
3018
FFF0
ENDCHAR
STARTCHAR Eacute
ENCODING 201
SWIDTH 625 0
DWIDTH 15 0
BBX 12 21 1 0
BITMAP
0300
0600
0800
0000
0000
FFF0
3030
3010
3000
3000
3080
3080
3F80
3080
3080
3000
3000
3000
3010
3030
FFE0
ENDCHAR
STARTCHAR Ecircumflex
ENCODING 202
SWIDTH 625 0
DWIDTH 15 0
BBX 12 21 1 0
BITMAP
0600
0F00
1080
2040
0000
FFE0
3060
3020
3000
3000
3080
3080
3F80
3080
3080
3000
3000
3000
3010
3030
FFE0
ENDCHAR
STARTCHAR Edieresis
ENCODING 203
SWIDTH 625 0
DWIDTH 15 0
BBX 12 20 1 0
BITMAP
18C0
18C0
0000
0000
FFE0
3020
3010
3000
3000
3080
3080
3F80
3080
3080
3000
3000
3000
3010
3030
FFE0
ENDCHAR
STARTCHAR Igrave
ENCODING 204
SWIDTH 344 0
DWIDTH 8 0
BBX 6 21 1 0
BITMAP
60
30
08
00
00
FC
30
30
30
30
30
30
30
30
30
30
30
30
30
30
FC
ENDCHAR
STARTCHAR Iacute
ENCODING 205
SWIDTH 344 0
DWIDTH 8 0
BBX 6 21 1 0
BITMAP
18
30
40
00
00
FC
30
30
30
30
30
30
30
30
30
30
30
30
30
30
FC
ENDCHAR
STARTCHAR Icircumflex
ENCODING 206
SWIDTH 344 0
DWIDTH 8 0
BBX 8 21 0 0
BITMAP
18
3C
42
81
00
7E
18
18
18
18
18
18
18
18
18
18
18
18
18
18
7E
ENDCHAR
STARTCHAR Idieresis
ENCODING 207
SWIDTH 344 0
DWIDTH 8 0
BBX 6 20 1 0
BITMAP
CC
CC
00
00
FC
30
30
30
30
30
30
30
30
30
30
30
30
30
30
FC
ENDCHAR
STARTCHAR Eth
ENCODING 208
SWIDTH 719 0
DWIDTH 17 0
BBX 15 16 1 0
BITMAP
FFC0
3070
3018
300C
300C
3006
3006
FE06
3006
3006
3006
300C
300C
3018
3070
FFC0
ENDCHAR
STARTCHAR Ntilde
ENCODING 209
SWIDTH 719 0
DWIDTH 17 0
BBX 15 21 1 0
BITMAP
0610
0FE0
10C0
0000
0000
E03E
7008
3808
3C08
3C08
2E08
2708
2788
2388
21C8
20E8
2078
2078
2038
2018
F808
ENDCHAR
STARTCHAR Ograve
ENCODING 210
SWIDTH 719 0
DWIDTH 17 0
BBX 15 21 1 0
BITMAP
0600
0300
0080
0000
0000
07C0
1C70
3018
600C
600C
C006
C006
C006
C006
C006
C006
600C
600C
3018
1C70
07C0
ENDCHAR
STARTCHAR Oacute
ENCODING 211
SWIDTH 719 0
DWIDTH 17 0
BBX 15 21 1 0
BITMAP
00C0
0180
0200
0000
0000
07C0
1C70
3018
600C
600C
C006
C006
C006
C006
C006
C006
600C
600C
3018
1C70
07C0
ENDCHAR
STARTCHAR Ocircumflex
ENCODING 212
SWIDTH 719 0
DWIDTH 17 0
BBX 15 21 1 0
BITMAP
0100
0380
0440
0820
0000
07C0
1C70
3018
600C
600C
C006
C006
C006
C006
C006
C006
600C
600C
3018
1C70
07C0
ENDCHAR
STARTCHAR Otilde
ENCODING 213
SWIDTH 719 0
DWIDTH 17 0
BBX 15 21 1 0
BITMAP
0610
0FE0
10C0
0000
0000
07C0
1C70
3018
600C
600C
C006
C006
C006
C006
C006
C006
600C
600C
3018
1C70
07C0
ENDCHAR
STARTCHAR Odieresis
ENCODING 214
SWIDTH 719 0
DWIDTH 17 0
BBX 15 20 1 0
BITMAP
0C60
0C60
0000
0000
07C0
1C70
3018
600C
600C
C006
C006
C006
C006
C006
C006
600C
600C
3018
1C70
07C0
ENDCHAR
STARTCHAR multiply
ENCODING 215
SWIDTH 562 0
DWIDTH 14 0
BBX 10 9 2 2
BITMAP
C0C0
6180
3300
1E00
0C00
1E00
3300
6180
C0C0
ENDCHAR
STARTCHAR Oslash
ENCODING 216
SWIDTH 719 0
DWIDTH 17 0
BBX 15 16 1 0
BITMAP
07C2
1C76
301C
601C
603C
C066
C0C6
C186
C306
C606
CC06
580C
700C
7818
DC70
87C0
ENDCHAR
STARTCHAR Ugrave
ENCODING 217
SWIDTH 719 0
DWIDTH 17 0
BBX 15 21 1 0
BITMAP
0700
0180
0040
0000
0000
FC3E
3008
3008
3008
3008
3008
3008
3008
3008
3008
3008
3008
3008
1810
1C30
07C0
ENDCHAR
STARTCHAR Uacute
ENCODING 218
SWIDTH 719 0
DWIDTH 17 0
BBX 15 21 1 0
BITMAP
00C0
0180
0200
0000
0000
FC3E
3008
3008
3008
3008
3008
3008
3008
3008
3008
3008
3008
3008
1810
1C30
07C0
ENDCHAR
STARTCHAR Ucircumflex
ENCODING 219
SWIDTH 719 0
DWIDTH 17 0
BBX 15 21 1 0
BITMAP
0180
03C0
0420
0810
0000
FC3E
3008
3008
3008
3008
3008
3008
3008
3008
3008
3008
3008
3008
1810
1C30
07C0
ENDCHAR
STARTCHAR Udieresis
ENCODING 220
SWIDTH 719 0
DWIDTH 17 0
BBX 15 20 1 0
BITMAP
0C30
0C30
0000
0000
FC3E
3008
3008
3008
3008
3008
3008
3008
3008
3008
3008
3008
3008
1810
1C30
07C0
ENDCHAR
STARTCHAR Yacute
ENCODING 221
SWIDTH 719 0
DWIDTH 18 0
BBX 18 21 0 0
BITMAP
003000
006000
008000
000000
000000
FE0FC0
380300
1C0600
0C0400
0E0C00
071800
031000
03B000
01E000
00C000
00C000
00C000
00C000
00C000
00C000
03F000
ENDCHAR
STARTCHAR Thorn
ENCODING 222
SWIDTH 562 0
DWIDTH 13 0
BBX 12 17 1 0
BITMAP
FC00
3000
3000
3000
3F80
30E0
3030
3030
3030
3030
30E0
3F80
3000
3000
3000
3000
FC00
ENDCHAR
STARTCHAR germandbls
ENCODING 223
SWIDTH 500 0
DWIDTH 12 0
BBX 10 16 1 0
BITMAP
1F00
3180
6180
6180
6180
6300
6F00
6380
6180
60C0
60C0
60C0
60C0
60C0
6D80
E700
ENDCHAR
STARTCHAR agrave
ENCODING 224
SWIDTH 438 0
DWIDTH 11 0
BBX 10 16 1 0
BITMAP
3000
1800
0400
0000
0000
3E00
6300
6300
0300
0F00
3B00
6300
C300
C740
EFC0
7980
ENDCHAR
STARTCHAR aacute
ENCODING 225
SWIDTH 438 0
DWIDTH 11 0
BBX 10 16 1 0
BITMAP
0600
0C00
1000
0000
0000
3E00
6300
6300
0300
0F00
3B00
6300
C340
C7C0
EF80
7900
ENDCHAR
STARTCHAR acircumflex
ENCODING 226
SWIDTH 438 0
DWIDTH 11 0
BBX 10 16 1 0
BITMAP
0800
1C00
2200
4100
0000
3E00
6300
6300
0300
0F00
3B00
6300
C300
C740
EFC0
7980
ENDCHAR
STARTCHAR atilde
ENCODING 227
SWIDTH 438 0
DWIDTH 11 0
BBX 10 16 1 0
BITMAP
3080
7F00
8600
0000
0000
3E00
6300
6300
0300
0F00
3B00
6300
C300
C740
EFC0
7980
ENDCHAR
STARTCHAR adieresis
ENCODING 228
SWIDTH 438 0
DWIDTH 11 0
BBX 10 15 1 0
BITMAP
3300
3300
0000
0000
3E00
6300
6300
0300
0F00
3B00
6300
C300
C740
EFC0
7980
ENDCHAR
STARTCHAR aring
ENCODING 229
SWIDTH 438 0
DWIDTH 11 0
BBX 10 16 1 0
BITMAP
1C00
2200
2200
1C00
0000
3E00
6300
6300
0300
0F00
3B00
6300
C300
C740
EFC0
7980
ENDCHAR
STARTCHAR ae
ENCODING 230
SWIDTH 656 0
DWIDTH 17 0
BBX 15 11 1 0
BITMAP
3EF8
678C
6306
0306
0FFE
3B00
6300
C300
C786
EDCC
7878
ENDCHAR
STARTCHAR ccedilla
ENCODING 231
SWIDTH 438 0
DWIDTH 11 0
BBX 9 16 1 -5
BITMAP
1E00
6380
4180
C000
C000
C000
E000
E000
7080
7980
1E00
0400
0800
0E00
2300
1E00
ENDCHAR
STARTCHAR egrave
ENCODING 232
SWIDTH 438 0
DWIDTH 11 0
BBX 10 16 1 0
BITMAP
3000
1800
0400
0000
0000
1E00
6780
4380
FFC0
C000
C000
E000
E000
7080
7980
1E00
ENDCHAR
STARTCHAR eacute
ENCODING 233
SWIDTH 438 0
DWIDTH 11 0
BBX 10 16 1 0
BITMAP
0300
0600
0800
0000
0000
1E00
6780
4380
FFC0
C000
C000
E000
E000
7080
7980
1E00
ENDCHAR
STARTCHAR ecircumflex
ENCODING 234
SWIDTH 438 0
DWIDTH 11 0
BBX 10 16 1 0
BITMAP
0C00
1E00
2100
4080
0000
1E00
6780
4380
FFC0
C000
C000
E000
E000
7080
7980
1E00
ENDCHAR
STARTCHAR edieresis
ENCODING 235
SWIDTH 438 0
DWIDTH 11 0
BBX 10 15 1 0
BITMAP
3300
3300
0000
0000
1E00
6780
4380
FFC0
C000
C000
E000
E000
7080
7980
1E00
ENDCHAR
STARTCHAR igrave
ENCODING 236
SWIDTH 250 0
DWIDTH 6 0
BBX 4 16 1 0
BITMAP
C0
60
10
00
00
20
E0
60
60
60
60
60
60
60
60
F0
ENDCHAR
STARTCHAR iacute
ENCODING 237
SWIDTH 250 0
DWIDTH 6 0
BBX 4 16 1 0
BITMAP
30
60
80
00
00
20
E0
60
60
60
60
60
60
60
60
F0
ENDCHAR
STARTCHAR icircumflex
ENCODING 238
SWIDTH 250 0
DWIDTH 6 0
BBX 6 16 0 0
BITMAP
30
78
84
00
00
10
70
30
30
30
30
30
30
30
30
78
ENDCHAR
STARTCHAR idieresis
ENCODING 239
SWIDTH 250 0
DWIDTH 7 0
BBX 6 15 1 0
BITMAP
CC
CC
00
00
10
70
30
30
30
30
30
30
30
30
78
ENDCHAR
STARTCHAR eth
ENCODING 240
SWIDTH 531 0
DWIDTH 12 0
BBX 10 17 1 0
BITMAP
E600
7C00
1800
3C00
6E00
0700
0D80
3F80
73C0
61C0
C0C0
C0C0
C0C0
C0C0
E180
7300
3E00
ENDCHAR
STARTCHAR ntilde
ENCODING 241
SWIDTH 500 0
DWIDTH 12 0
BBX 10 16 1 0
BITMAP
1880
3F00
4600
0000
0000
2700
EB80
7180
6180
6180
6180
6180
6180
6180
6180
F3C0
ENDCHAR
STARTCHAR ograve
ENCODING 242
SWIDTH 531 0
DWIDTH 12 0
BBX 10 16 1 0
BITMAP
3000
1800
0400
0000
0000
1E00
6780
4380
C1C0
C1C0
C0C0
E0C0
E0C0
7080
7980
1E00
ENDCHAR
STARTCHAR oacute
ENCODING 243
SWIDTH 531 0
DWIDTH 12 0
BBX 10 16 1 0
BITMAP
0600
0C00
1000
0000
0000
1E00
6780
4380
C1C0
C1C0
C0C0
E0C0
E0C0
7080
7980
1E00
ENDCHAR
STARTCHAR ocircumflex
ENCODING 244
SWIDTH 531 0
DWIDTH 12 0
BBX 10 16 1 0
BITMAP
0C00
1E00
2100
4080
0000
1E00
6780
4380
C1C0
C1C0
C0C0
E0C0
E0C0
7080
7980
1E00
ENDCHAR
STARTCHAR otilde
ENCODING 245
SWIDTH 531 0
DWIDTH 12 0
BBX 10 16 1 0
BITMAP
1880
3F00
4600
0000
0000
1E00
6780
4380
C1C0
C1C0
C0C0
E0C0
E0C0
7080
7980
1E00
ENDCHAR
STARTCHAR odieresis
ENCODING 246
SWIDTH 531 0
DWIDTH 12 0
BBX 10 15 1 0
BITMAP
3300
3300
0000
0000
1E00
6780
4380
C1C0
C1C0
C0C0
E0C0
E0C0
7080
7980
1E00
ENDCHAR
STARTCHAR divide
ENCODING 247
SWIDTH 562 0
DWIDTH 14 0
BBX 10 9 2 2
BITMAP
0C00
0C00
0000
0000
FFC0
0000
0000
0C00
0C00
ENDCHAR
STARTCHAR oslash
ENCODING 248
SWIDTH 500 0
DWIDTH 12 0
BBX 10 11 1 0
BITMAP
1E40
6780
4380
C3C0
C5C0
C4C0
E8C0
F0C0
7080
7980
9E00
ENDCHAR
STARTCHAR ugrave
ENCODING 249
SWIDTH 500 0
DWIDTH 12 0
BBX 10 16 1 0
BITMAP
1800
0C00
0200
0000
0000
E380
6180
6180
6180
6180
6180
6180
6180
6380
35C0
1900
ENDCHAR
STARTCHAR uacute
ENCODING 250
SWIDTH 500 0
DWIDTH 12 0
BBX 10 16 1 0
BITMAP
0600
0C00
1000
0000
0000
E380
6180
6180
6180
6180
6180
6180
6180
6380
35C0
1900
ENDCHAR
STARTCHAR ucircumflex
ENCODING 251
SWIDTH 500 0
DWIDTH 12 0
BBX 10 16 1 0
BITMAP
0C00
1E00
2100
4080
0000
E380
6180
6180
6180
6180
6180
6180
6180
6380
35C0
1900
ENDCHAR
STARTCHAR udieresis
ENCODING 252
SWIDTH 500 0
DWIDTH 12 0
BBX 10 15 1 0
BITMAP
3300
3300
0000
0000
E380
6180
6180
6180
6180
6180
6180
6180
6380
35C0
1900
ENDCHAR
STARTCHAR yacute
ENCODING 253
SWIDTH 531 0
DWIDTH 11 0
BBX 11 21 0 -5
BITMAP
0300
0600
0800
0000
0000
F0E0
6040
6040
3080
3080
1900
1900
0E00
0E00
0400
0400
0800
0800
1000
D000
E000
ENDCHAR
STARTCHAR thorn
ENCODING 254
SWIDTH 531 0
DWIDTH 12 0
BBX 10 22 1 -5
BITMAP
2000
E000
6000
6000
6000
6000
6F00
7380
61C0
61C0
60C0
60C0
60C0
60C0
7080
7980
6E00
6000
6000
6000
6000
F000
ENDCHAR
STARTCHAR ydieresis
ENCODING 255
SWIDTH 531 0
DWIDTH 11 0
BBX 11 20 0 -5
BITMAP
3180
3180
0000
0000
F0E0
6040
6040
3080
3080
1900
1900
0E00
0E00
0400
0400
0800
0800
1000
D000
E000
ENDCHAR
ENDFONT
