STARTFONT 2.1
FONT -FontForge-Terminal-Normal-R-Normal--16-120-96-96-M-80-WinRoman-0
SIZE 12 96 96
FONTBOUNDINGBOX 8 18 0 -2
COMMENT "Generated by fontforge, http://fontforge.sourceforge.net"
COMMENT "(c) Copyright Microsoft Corp. 1993. All rights reserved."
STARTPROPERTIES 33
FOUNDRY "FontForge"
FAMILY_NAME "Terminal"
WEIGHT_NAME "Normal"
SLANT "R"
SETWIDTH_NAME "Normal"
ADD_STYLE_NAME ""
PIXEL_SIZE 16
POINT_SIZE 120
RESOLUTION_X 96
RESOLUTION_Y 96
SPACING "M"
AVERAGE_WIDTH 80
CHARSET_REGISTRY "WinRoman"
CHARSET_ENCODING "0"
FONTNAME_REGISTRY ""
CHARSET_COLLECTIONS "WinRoman"
FONT_NAME "Terminal"
FACE_NAME "Terminal"
FONT_VERSION "001.000"
FONT_ASCENT 13
FONT_DESCENT 3
UNDERLINE_POSITION -2
UNDERLINE_THICKNESS 1
X_HEIGHT 8
CAP_HEIGHT 13
RAW_ASCENT 800
RAW_DESCENT 200
NORM_SPACE 8
RELATIVE_WEIGHT 40
RELATIVE_SETWIDTH 50
FIGURE_WIDTH 8
AVG_LOWERCASE_WIDTH 80
AVG_UPPERCASE_WIDTH 80
ENDPROPERTIES
CHARS 256
STARTCHAR uni0000
ENCODING 0
SWIDTH 54 0
DWIDTH 8 0
BBX 1 1 7 -2
BITMAP
00
ENDCHAR
STARTCHAR uni0001
ENCODING 1
SWIDTH 54 0
DWIDTH 8 0
BBX 4 10 4 -2
BITMAP
F0
80
80
80
80
80
80
80
80
80
ENDCHAR
STARTCHAR uni0002
ENCODING 2
SWIDTH 54 0
DWIDTH 8 0
BBX 5 10 0 -2
BITMAP
F8
08
08
08
08
08
08
08
08
08
ENDCHAR
STARTCHAR uni0003
ENCODING 3
SWIDTH 54 0
DWIDTH 8 0
BBX 4 9 4 7
BITMAP
80
80
80
80
80
80
80
80
F0
ENDCHAR
STARTCHAR uni0004
ENCODING 4
SWIDTH 54 0
DWIDTH 8 0
BBX 5 9 0 7
BITMAP
08
08
08
08
08
08
08
08
F8
ENDCHAR
STARTCHAR uni0005
ENCODING 5
SWIDTH 54 0
DWIDTH 8 0
BBX 1 18 4 -2
BITMAP
80
80
80
80
80
80
80
80
80
80
80
80
80
80
80
80
80
80
ENDCHAR
STARTCHAR uni0006
ENCODING 6
SWIDTH 54 0
DWIDTH 8 0
BBX 8 1 0 7
BITMAP
FF
ENDCHAR
STARTCHAR uni0007
ENCODING 7
SWIDTH 54 0
DWIDTH 8 0
BBX 5 5 2 5
BITMAP
70
F8
F8
F8
70
ENDCHAR
STARTCHAR uni0008
ENCODING 8
SWIDTH 54 0
DWIDTH 8 0
BBX 8 18 0 -2
BITMAP
FF
FF
FF
FF
FF
FF
E3
C1
C1
C1
E3
FF
FF
FF
FF
FF
FF
FF
ENDCHAR
STARTCHAR uni0009
ENCODING 9
SWIDTH 54 0
DWIDTH 8 0
BBX 5 5 2 5
BITMAP
70
88
88
88
70
ENDCHAR
STARTCHAR uni000A
ENCODING 10
SWIDTH 54 0
DWIDTH 8 0
BBX 8 18 0 -2
BITMAP
FF
FF
FF
FF
FF
FF
E3
DD
DD
DD
E3
FF
FF
FF
FF
FF
FF
FF
ENDCHAR
STARTCHAR uni000B
ENCODING 11
SWIDTH 54 0
DWIDTH 8 0
BBX 6 8 1 4
BITMAP
1C
0C
14
70
88
88
88
70
ENDCHAR
STARTCHAR uni000C
ENCODING 12
SWIDTH 54 0
DWIDTH 8 0
BBX 5 9 2 4
BITMAP
70
88
88
88
70
20
F8
20
20
ENDCHAR
STARTCHAR uni000D
ENCODING 13
SWIDTH 54 0
DWIDTH 8 0
BBX 5 8 2 4
BITMAP
20
30
28
28
28
20
E0
C0
ENDCHAR
STARTCHAR uni000E
ENCODING 14
SWIDTH 54 0
DWIDTH 8 0
BBX 7 9 1 4
BITMAP
0E
32
2E
32
22
22
2E
EC
C0
ENDCHAR
STARTCHAR uni000F
ENCODING 15
SWIDTH 54 0
DWIDTH 8 0
BBX 7 9 1 4
BITMAP
10
54
38
44
C6
44
38
54
10
ENDCHAR
STARTCHAR uni0010
ENCODING 16
SWIDTH 54 0
DWIDTH 8 0
BBX 8 18 0 -2
BITMAP
08
08
08
08
08
08
08
08
FF
08
08
08
08
08
08
08
08
08
ENDCHAR
STARTCHAR uni0011
ENCODING 17
SWIDTH 54 0
DWIDTH 8 0
BBX 4 7 2 4
BITMAP
10
30
70
F0
70
30
10
ENDCHAR
STARTCHAR uni0012
ENCODING 18
SWIDTH 54 0
DWIDTH 8 0
BBX 5 9 2 4
BITMAP
20
70
F8
20
20
20
F8
70
20
ENDCHAR
STARTCHAR uni0013
ENCODING 19
SWIDTH 54 0
DWIDTH 8 0
BBX 5 9 2 4
BITMAP
D8
D8
D8
D8
D8
D8
00
D8
D8
ENDCHAR
STARTCHAR uni0014
ENCODING 20
SWIDTH 54 0
DWIDTH 8 0
BBX 6 9 1 4
BITMAP
7C
D4
D4
D4
74
14
14
14
14
ENDCHAR
STARTCHAR uni0015
ENCODING 21
SWIDTH 54 0
DWIDTH 8 0
BBX 8 9 0 7
BITMAP
08
08
08
08
08
08
08
08
FF
ENDCHAR
STARTCHAR uni0016
ENCODING 22
SWIDTH 54 0
DWIDTH 8 0
BBX 8 10 0 -2
BITMAP
FF
08
08
08
08
08
08
08
08
08
ENDCHAR
STARTCHAR uni0017
ENCODING 23
SWIDTH 54 0
DWIDTH 8 0
BBX 5 18 0 -2
BITMAP
08
08
08
08
08
08
08
08
F8
08
08
08
08
08
08
08
08
08
ENDCHAR
STARTCHAR uni0018
ENCODING 24
SWIDTH 54 0
DWIDTH 8 0
BBX 5 9 2 4
BITMAP
20
70
F8
20
20
20
20
20
20
ENDCHAR
STARTCHAR uni0019
ENCODING 25
SWIDTH 54 0
DWIDTH 8 0
BBX 4 18 4 -2
BITMAP
80
80
80
80
80
80
80
80
F0
80
80
80
80
80
80
80
80
80
ENDCHAR
STARTCHAR uni001A
ENCODING 26
SWIDTH 54 0
DWIDTH 8 0
BBX 6 5 1 5
BITMAP
10
18
FC
18
10
ENDCHAR
STARTCHAR uni001B
ENCODING 27
SWIDTH 54 0
DWIDTH 8 0
BBX 6 5 1 5
BITMAP
20
60
FC
60
20
ENDCHAR
STARTCHAR uni001C
ENCODING 28
SWIDTH 54 0
DWIDTH 8 0
BBX 5 5 2 4
BITMAP
80
80
80
80
F8
ENDCHAR
STARTCHAR uni001D
ENCODING 29
SWIDTH 54 0
DWIDTH 8 0
BBX 7 5 1 5
BITMAP
28
6C
FE
6C
28
ENDCHAR
STARTCHAR uni001E
ENCODING 30
SWIDTH 54 0
DWIDTH 8 0
BBX 7 8 1 5
BITMAP
10
10
38
38
7C
7C
FE
FE
ENDCHAR
STARTCHAR uni001F
ENCODING 31
SWIDTH 54 0
DWIDTH 8 0
BBX 7 8 1 4
BITMAP
FE
FE
7C
7C
38
38
10
10
ENDCHAR
STARTCHAR space
ENCODING 32
SWIDTH 54 0
DWIDTH 8 0
BBX 1 1 7 -2
BITMAP
00
ENDCHAR
STARTCHAR exclam
ENCODING 33
SWIDTH 54 0
DWIDTH 8 0
BBX 2 13 4 1
BITMAP
80
80
80
80
80
80
80
80
80
00
00
C0
C0
ENDCHAR
STARTCHAR quotedbl
ENCODING 34
SWIDTH 54 0
DWIDTH 8 0
BBX 6 3 2 12
BITMAP
6C
48
90
ENDCHAR
STARTCHAR numbersign
ENCODING 35
SWIDTH 54 0
DWIDTH 8 0
BBX 6 14 1 0
BITMAP
48
48
48
48
FC
48
48
48
48
FC
48
48
48
48
ENDCHAR
STARTCHAR dollar
ENCODING 36
SWIDTH 54 0
DWIDTH 8 0
BBX 7 15 1 0
BITMAP
10
38
54
92
92
50
30
18
14
12
92
92
54
38
10
ENDCHAR
STARTCHAR percent
ENCODING 37
SWIDTH 54 0
DWIDTH 8 0
BBX 7 13 1 1
BITMAP
62
92
94
94
68
08
10
20
2C
52
52
92
8C
ENDCHAR
STARTCHAR ampersand
ENCODING 38
SWIDTH 54 0
DWIDTH 8 0
BBX 7 13 1 1
BITMAP
30
48
48
48
48
30
20
54
94
88
88
94
62
ENDCHAR
STARTCHAR quotesingle
ENCODING 39
SWIDTH 54 0
DWIDTH 8 0
BBX 2 4 3 11
BITMAP
C0
C0
40
80
ENDCHAR
STARTCHAR parenleft
ENCODING 40
SWIDTH 54 0
DWIDTH 8 0
BBX 4 15 3 0
BITMAP
10
20
40
40
80
80
80
80
80
80
80
40
40
20
10
ENDCHAR
STARTCHAR parenright
ENCODING 41
SWIDTH 54 0
DWIDTH 8 0
BBX 4 15 2 0
BITMAP
80
40
20
20
10
10
10
10
10
10
10
20
20
40
80
ENDCHAR
STARTCHAR asterisk
ENCODING 42
SWIDTH 54 0
DWIDTH 8 0
BBX 7 9 1 3
BITMAP
10
92
54
38
10
38
54
92
10
ENDCHAR
STARTCHAR plus
ENCODING 43
SWIDTH 54 0
DWIDTH 8 0
BBX 7 7 1 4
BITMAP
10
10
10
FE
10
10
10
ENDCHAR
STARTCHAR comma
ENCODING 44
SWIDTH 54 0
DWIDTH 8 0
BBX 2 4 3 0
BITMAP
C0
C0
40
80
ENDCHAR
STARTCHAR hyphen
ENCODING 45
SWIDTH 54 0
DWIDTH 8 0
BBX 5 1 2 7
BITMAP
F8
ENDCHAR
STARTCHAR period
ENCODING 46
SWIDTH 54 0
DWIDTH 8 0
BBX 2 2 3 1
BITMAP
C0
C0
ENDCHAR
STARTCHAR slash
ENCODING 47
SWIDTH 54 0
DWIDTH 8 0
BBX 7 13 1 1
BITMAP
02
02
04
04
08
08
10
20
20
40
40
80
80
ENDCHAR
STARTCHAR zero
ENCODING 48
SWIDTH 54 0
DWIDTH 8 0
BBX 6 13 1 1
BITMAP
30
48
84
84
84
84
84
84
84
84
84
48
30
ENDCHAR
STARTCHAR one
ENCODING 49
SWIDTH 54 0
DWIDTH 8 0
BBX 3 13 2 1
BITMAP
20
E0
20
20
20
20
20
20
20
20
20
20
20
ENDCHAR
STARTCHAR two
ENCODING 50
SWIDTH 54 0
DWIDTH 8 0
BBX 6 13 1 1
BITMAP
30
48
84
84
04
08
08
10
20
20
40
80
FC
ENDCHAR
STARTCHAR three
ENCODING 51
SWIDTH 54 0
DWIDTH 8 0
BBX 6 13 1 1
BITMAP
30
48
84
84
04
08
30
08
04
84
84
48
30
ENDCHAR
STARTCHAR four
ENCODING 52
SWIDTH 54 0
DWIDTH 8 0
BBX 6 13 1 1
BITMAP
08
08
18
18
28
28
48
48
88
FC
08
08
08
ENDCHAR
STARTCHAR five
ENCODING 53
SWIDTH 54 0
DWIDTH 8 0
BBX 6 13 1 1
BITMAP
FC
80
80
80
B0
C8
84
04
04
04
84
48
30
ENDCHAR
STARTCHAR six
ENCODING 54
SWIDTH 54 0
DWIDTH 8 0
BBX 6 13 1 1
BITMAP
30
48
84
84
80
B0
C8
84
84
84
84
48
30
ENDCHAR
STARTCHAR seven
ENCODING 55
SWIDTH 54 0
DWIDTH 8 0
BBX 6 13 1 1
BITMAP
FC
04
04
08
08
08
10
10
10
20
20
20
20
ENDCHAR
STARTCHAR eight
ENCODING 56
SWIDTH 54 0
DWIDTH 8 0
BBX 6 13 1 1
BITMAP
30
48
84
84
84
48
30
48
84
84
84
48
30
ENDCHAR
STARTCHAR nine
ENCODING 57
SWIDTH 54 0
DWIDTH 8 0
BBX 6 13 1 1
BITMAP
30
48
84
84
84
84
4C
34
04
84
84
48
30
ENDCHAR
STARTCHAR colon
ENCODING 58
SWIDTH 54 0
DWIDTH 8 0
BBX 2 8 3 2
BITMAP
C0
C0
00
00
00
00
C0
C0
ENDCHAR
STARTCHAR semicolon
ENCODING 59
SWIDTH 54 0
DWIDTH 8 0
BBX 2 10 3 0
BITMAP
C0
C0
00
00
00
00
C0
C0
40
80
ENDCHAR
STARTCHAR less
ENCODING 60
SWIDTH 54 0
DWIDTH 8 0
BBX 6 11 1 2
BITMAP
04
08
10
20
40
80
40
20
10
08
04
ENDCHAR
STARTCHAR equal
ENCODING 61
SWIDTH 54 0
DWIDTH 8 0
BBX 5 5 2 5
BITMAP
F8
00
00
00
F8
ENDCHAR
STARTCHAR greater
ENCODING 62
SWIDTH 54 0
DWIDTH 8 0
BBX 6 11 1 2
BITMAP
80
40
20
10
08
04
08
10
20
40
80
ENDCHAR
STARTCHAR question
ENCODING 63
SWIDTH 54 0
DWIDTH 8 0
BBX 6 13 1 1
BITMAP
30
48
84
84
04
08
10
20
20
00
00
30
30
ENDCHAR
STARTCHAR at
ENCODING 64
SWIDTH 54 0
DWIDTH 8 0
BBX 7 13 1 1
BITMAP
38
44
82
9A
AA
AA
AA
AA
AA
9C
80
42
3C
ENDCHAR
STARTCHAR A
ENCODING 65
SWIDTH 54 0
DWIDTH 8 0
BBX 7 13 1 1
BITMAP
10
10
28
28
28
28
44
44
44
7C
82
82
82
ENDCHAR
STARTCHAR B
ENCODING 66
SWIDTH 54 0
DWIDTH 8 0
BBX 7 13 1 1
BITMAP
F8
84
82
82
82
84
F8
84
82
82
82
84
F8
ENDCHAR
STARTCHAR C
ENCODING 67
SWIDTH 54 0
DWIDTH 8 0
BBX 7 13 1 1
BITMAP
38
44
82
82
80
80
80
80
80
82
82
44
38
ENDCHAR
STARTCHAR D
ENCODING 68
SWIDTH 54 0
DWIDTH 8 0
BBX 7 13 1 1
BITMAP
F8
84
82
82
82
82
82
82
82
82
82
84
F8
ENDCHAR
STARTCHAR E
ENCODING 69
SWIDTH 54 0
DWIDTH 8 0
BBX 7 13 1 1
BITMAP
FE
80
80
80
80
80
FC
80
80
80
80
80
FE
ENDCHAR
STARTCHAR F
ENCODING 70
SWIDTH 54 0
DWIDTH 8 0
BBX 7 13 1 1
BITMAP
FE
80
80
80
80
80
FC
80
80
80
80
80
80
ENDCHAR
STARTCHAR G
ENCODING 71
SWIDTH 54 0
DWIDTH 8 0
BBX 7 13 1 1
BITMAP
38
44
82
82
80
80
80
8E
82
82
82
46
3A
ENDCHAR
STARTCHAR H
ENCODING 72
SWIDTH 54 0
DWIDTH 8 0
BBX 7 13 1 1
BITMAP
82
82
82
82
82
82
FE
82
82
82
82
82
82
ENDCHAR
STARTCHAR I
ENCODING 73
SWIDTH 54 0
DWIDTH 8 0
BBX 3 13 3 1
BITMAP
E0
40
40
40
40
40
40
40
40
40
40
40
E0
ENDCHAR
STARTCHAR J
ENCODING 74
SWIDTH 54 0
DWIDTH 8 0
BBX 6 13 1 1
BITMAP
04
04
04
04
04
04
04
04
04
84
84
48
30
ENDCHAR
STARTCHAR K
ENCODING 75
SWIDTH 54 0
DWIDTH 8 0
BBX 7 13 1 1
BITMAP
82
84
84
88
90
90
A0
D0
88
88
84
82
82
ENDCHAR
STARTCHAR L
ENCODING 76
SWIDTH 54 0
DWIDTH 8 0
BBX 7 13 1 1
BITMAP
80
80
80
80
80
80
80
80
80
80
80
80
FE
ENDCHAR
STARTCHAR M
ENCODING 77
SWIDTH 54 0
DWIDTH 8 0
BBX 7 13 1 1
BITMAP
82
82
C6
C6
C6
C6
AA
AA
AA
AA
92
92
92
ENDCHAR
STARTCHAR N
ENCODING 78
SWIDTH 54 0
DWIDTH 8 0
BBX 7 13 1 1
BITMAP
82
82
C2
C2
A2
A2
92
92
8A
8A
86
86
82
ENDCHAR
STARTCHAR O
ENCODING 79
SWIDTH 54 0
DWIDTH 8 0
BBX 7 13 1 1
BITMAP
38
44
82
82
82
82
82
82
82
82
82
44
38
ENDCHAR
STARTCHAR P
ENCODING 80
SWIDTH 54 0
DWIDTH 8 0
BBX 7 13 1 1
BITMAP
F8
84
82
82
82
84
F8
80
80
80
80
80
80
ENDCHAR
STARTCHAR Q
ENCODING 81
SWIDTH 54 0
DWIDTH 8 0
BBX 7 13 1 1
BITMAP
38
44
82
82
82
82
82
82
82
92
8A
44
3A
ENDCHAR
STARTCHAR R
ENCODING 82
SWIDTH 54 0
DWIDTH 8 0
BBX 7 13 1 1
BITMAP
F8
84
82
82
82
84
F8
88
88
84
84
82
82
ENDCHAR
STARTCHAR S
ENCODING 83
SWIDTH 54 0
DWIDTH 8 0
BBX 7 13 1 1
BITMAP
38
44
82
82
80
60
18
04
02
82
82
44
38
ENDCHAR
STARTCHAR T
ENCODING 84
SWIDTH 54 0
DWIDTH 8 0
BBX 7 13 1 1
BITMAP
FE
10
10
10
10
10
10
10
10
10
10
10
10
ENDCHAR
STARTCHAR U
ENCODING 85
SWIDTH 54 0
DWIDTH 8 0
BBX 7 13 1 1
BITMAP
82
82
82
82
82
82
82
82
82
82
82
44
38
ENDCHAR
STARTCHAR V
ENCODING 86
SWIDTH 54 0
DWIDTH 8 0
BBX 7 13 1 1
BITMAP
82
82
82
44
44
44
44
28
28
28
10
10
10
ENDCHAR
STARTCHAR W
ENCODING 87
SWIDTH 54 0
DWIDTH 8 0
BBX 7 13 1 1
BITMAP
92
92
92
92
AA
AA
AA
AA
44
44
44
44
44
ENDCHAR
STARTCHAR X
ENCODING 88
SWIDTH 54 0
DWIDTH 8 0
BBX 7 13 1 1
BITMAP
82
82
44
44
28
28
10
28
28
44
44
82
82
ENDCHAR
STARTCHAR Y
ENCODING 89
SWIDTH 54 0
DWIDTH 8 0
BBX 7 13 1 1
BITMAP
82
82
44
44
28
28
10
10
10
10
10
10
10
ENDCHAR
STARTCHAR Z
ENCODING 90
SWIDTH 54 0
DWIDTH 8 0
BBX 7 13 1 1
BITMAP
FE
02
04
04
08
08
10
20
20
40
40
80
FE
ENDCHAR
STARTCHAR bracketleft
ENCODING 91
SWIDTH 54 0
DWIDTH 8 0
BBX 5 15 2 0
BITMAP
F8
80
80
80
80
80
80
80
80
80
80
80
80
80
F8
ENDCHAR
STARTCHAR backslash
ENCODING 92
SWIDTH 54 0
DWIDTH 8 0
BBX 8 13 0 1
BITMAP
49
49
49
49
FF
55
55
55
22
22
22
22
22
ENDCHAR
STARTCHAR bracketright
ENCODING 93
SWIDTH 54 0
DWIDTH 8 0
BBX 5 15 2 0
BITMAP
F8
08
08
08
08
08
08
08
08
08
08
08
08
08
F8
ENDCHAR
STARTCHAR asciicircum
ENCODING 94
SWIDTH 54 0
DWIDTH 8 0
BBX 5 3 2 12
BITMAP
20
50
88
ENDCHAR
STARTCHAR underscore
ENCODING 95
SWIDTH 54 0
DWIDTH 8 0
BBX 8 1 0 0
BITMAP
FF
ENDCHAR
STARTCHAR grave
ENCODING 96
SWIDTH 54 0
DWIDTH 8 0
BBX 3 3 3 12
BITMAP
80
40
20
ENDCHAR
STARTCHAR a
ENCODING 97
SWIDTH 54 0
DWIDTH 8 0
BBX 7 8 1 1
BITMAP
78
84
04
3C
44
84
8C
76
ENDCHAR
STARTCHAR b
ENCODING 98
SWIDTH 54 0
DWIDTH 8 0
BBX 7 13 1 1
BITMAP
80
80
80
80
80
B8
C4
82
82
82
82
C4
B8
ENDCHAR
STARTCHAR c
ENCODING 99
SWIDTH 54 0
DWIDTH 8 0
BBX 7 8 1 1
BITMAP
3C
42
80
80
80
80
42
3C
ENDCHAR
STARTCHAR d
ENCODING 100
SWIDTH 54 0
DWIDTH 8 0
BBX 7 13 1 1
BITMAP
02
02
02
02
02
3A
46
82
82
82
82
46
3A
ENDCHAR
STARTCHAR e
ENCODING 101
SWIDTH 54 0
DWIDTH 8 0
BBX 7 8 1 1
BITMAP
38
44
82
FE
80
80
42
3C
ENDCHAR
STARTCHAR f
ENCODING 102
SWIDTH 54 0
DWIDTH 8 0
BBX 5 13 1 1
BITMAP
18
20
20
20
20
F8
20
20
20
20
20
20
20
ENDCHAR
STARTCHAR g
ENCODING 103
SWIDTH 54 0
DWIDTH 8 0
BBX 7 9 1 0
BITMAP
3A
44
44
38
40
7C
82
82
7C
ENDCHAR
STARTCHAR h
ENCODING 104
SWIDTH 54 0
DWIDTH 8 0
BBX 7 13 1 1
BITMAP
80
80
80
80
80
B8
C4
82
82
82
82
82
82
ENDCHAR
STARTCHAR i
ENCODING 105
SWIDTH 54 0
DWIDTH 8 0
BBX 1 12 4 1
BITMAP
80
80
00
00
80
80
80
80
80
80
80
80
ENDCHAR
STARTCHAR j
ENCODING 106
SWIDTH 54 0
DWIDTH 8 0
BBX 3 13 2 0
BITMAP
20
20
00
00
20
20
20
20
20
20
20
20
C0
ENDCHAR
STARTCHAR k
ENCODING 107
SWIDTH 54 0
DWIDTH 8 0
BBX 7 13 1 1
BITMAP
80
80
80
80
80
84
88
90
A0
D0
88
84
82
ENDCHAR
STARTCHAR l
ENCODING 108
SWIDTH 54 0
DWIDTH 8 0
BBX 1 13 4 1
BITMAP
80
80
80
80
80
80
80
80
80
80
80
80
80
ENDCHAR
STARTCHAR m
ENCODING 109
SWIDTH 54 0
DWIDTH 8 0
BBX 7 8 1 1
BITMAP
AC
D2
92
92
92
92
92
92
ENDCHAR
STARTCHAR n
ENCODING 110
SWIDTH 54 0
DWIDTH 8 0
BBX 7 8 1 1
BITMAP
B8
C4
82
82
82
82
82
82
ENDCHAR
STARTCHAR o
ENCODING 111
SWIDTH 54 0
DWIDTH 8 0
BBX 7 8 1 1
BITMAP
38
44
82
82
82
82
44
38
ENDCHAR
STARTCHAR p
ENCODING 112
SWIDTH 54 0
DWIDTH 8 0
BBX 7 9 1 0
BITMAP
B8
C4
82
82
82
C4
B8
80
80
ENDCHAR
STARTCHAR q
ENCODING 113
SWIDTH 54 0
DWIDTH 8 0
BBX 7 9 1 0
BITMAP
3A
46
82
82
82
46
3A
02
02
ENDCHAR
STARTCHAR r
ENCODING 114
SWIDTH 54 0
DWIDTH 8 0
BBX 5 8 3 1
BITMAP
B8
C0
80
80
80
80
80
80
ENDCHAR
STARTCHAR s
ENCODING 115
SWIDTH 54 0
DWIDTH 8 0
BBX 7 8 1 1
BITMAP
7C
82
80
60
1C
02
82
7C
ENDCHAR
STARTCHAR t
ENCODING 116
SWIDTH 54 0
DWIDTH 8 0
BBX 5 12 1 1
BITMAP
20
20
20
20
F8
20
20
20
20
20
20
18
ENDCHAR
STARTCHAR u
ENCODING 117
SWIDTH 54 0
DWIDTH 8 0
BBX 7 8 1 1
BITMAP
82
82
82
82
82
82
46
3A
ENDCHAR
STARTCHAR v
ENCODING 118
SWIDTH 54 0
DWIDTH 8 0
BBX 7 8 1 1
BITMAP
82
82
44
44
28
28
10
10
ENDCHAR
STARTCHAR w
ENCODING 119
SWIDTH 54 0
DWIDTH 8 0
BBX 7 8 1 1
BITMAP
92
92
92
AA
AA
44
44
44
ENDCHAR
STARTCHAR x
ENCODING 120
SWIDTH 54 0
DWIDTH 8 0
BBX 7 8 1 1
BITMAP
82
44
28
10
10
28
44
82
ENDCHAR
STARTCHAR y
ENCODING 121
SWIDTH 54 0
DWIDTH 8 0
BBX 7 9 1 0
BITMAP
82
82
44
44
28
28
10
20
C0
ENDCHAR
STARTCHAR z
ENCODING 122
SWIDTH 54 0
DWIDTH 8 0
BBX 7 8 1 1
BITMAP
FE
04
08
10
20
40
80
FE
ENDCHAR
STARTCHAR braceleft
ENCODING 123
SWIDTH 54 0
DWIDTH 8 0
BBX 4 15 3 0
BITMAP
70
40
40
40
40
40
40
80
40
40
40
40
40
40
70
ENDCHAR
STARTCHAR bar
ENCODING 124
SWIDTH 54 0
DWIDTH 8 0
BBX 1 16 4 0
BITMAP
80
80
80
80
80
80
80
80
80
80
80
80
80
80
80
80
ENDCHAR
STARTCHAR braceright
ENCODING 125
SWIDTH 54 0
DWIDTH 8 0
BBX 4 15 2 0
BITMAP
E0
20
20
20
20
20
20
10
20
20
20
20
20
20
E0
ENDCHAR
STARTCHAR asciitilde
ENCODING 126
SWIDTH 54 0
DWIDTH 8 0
BBX 6 2 1 13
BITMAP
64
98
ENDCHAR
STARTCHAR uni007F
ENCODING 127
SWIDTH 54 0
DWIDTH 8 0
BBX 5 7 2 4
BITMAP
20
70
D8
88
88
F8
F8
ENDCHAR
STARTCHAR Euro
ENCODING 128
SWIDTH 54 0
DWIDTH 8 0
BBX 1 1 7 -2
BITMAP
00
ENDCHAR
STARTCHAR NameMe.129
ENCODING 129
SWIDTH 54 0
DWIDTH 8 0
BBX 1 1 7 -2
BITMAP
00
ENDCHAR
STARTCHAR quotesinglbase
ENCODING 130
SWIDTH 54 0
DWIDTH 8 0
BBX 1 1 7 -2
BITMAP
00
ENDCHAR
STARTCHAR florin
ENCODING 131
SWIDTH 54 0
DWIDTH 8 0
BBX 1 1 7 -2
BITMAP
00
ENDCHAR
STARTCHAR quotedblbase
ENCODING 132
SWIDTH 54 0
DWIDTH 8 0
BBX 1 1 7 -2
BITMAP
00
ENDCHAR
STARTCHAR ellipsis
ENCODING 133
SWIDTH 54 0
DWIDTH 8 0
BBX 1 1 7 -2
BITMAP
00
ENDCHAR
STARTCHAR dagger
ENCODING 134
SWIDTH 54 0
DWIDTH 8 0
BBX 1 1 7 -2
BITMAP
00
ENDCHAR
STARTCHAR daggerdbl
ENCODING 135
SWIDTH 54 0
DWIDTH 8 0
BBX 1 1 7 -2
BITMAP
00
ENDCHAR
STARTCHAR circumflex
ENCODING 136
SWIDTH 54 0
DWIDTH 8 0
BBX 1 1 7 -2
BITMAP
00
ENDCHAR
STARTCHAR perthousand
ENCODING 137
SWIDTH 54 0
DWIDTH 8 0
BBX 1 1 7 -2
BITMAP
00
ENDCHAR
STARTCHAR Scaron
ENCODING 138
SWIDTH 54 0
DWIDTH 8 0
BBX 1 1 7 -2
BITMAP
00
ENDCHAR
STARTCHAR guilsinglleft
ENCODING 139
SWIDTH 54 0
DWIDTH 8 0
BBX 1 1 7 -2
BITMAP
00
ENDCHAR
STARTCHAR OE
ENCODING 140
SWIDTH 54 0
DWIDTH 8 0
BBX 1 1 7 -2
BITMAP
00
ENDCHAR
STARTCHAR NameMe.141
ENCODING 141
SWIDTH 54 0
DWIDTH 8 0
BBX 1 1 7 -2
BITMAP
00
ENDCHAR
STARTCHAR Zcaron
ENCODING 142
SWIDTH 54 0
DWIDTH 8 0
BBX 1 1 7 -2
BITMAP
00
ENDCHAR
STARTCHAR NameMe.143
ENCODING 143
SWIDTH 54 0
DWIDTH 8 0
BBX 1 1 7 -2
BITMAP
00
ENDCHAR
STARTCHAR NameMe.144
ENCODING 144
SWIDTH 54 0
DWIDTH 8 0
BBX 1 1 7 -2
BITMAP
00
ENDCHAR
STARTCHAR quoteleft
ENCODING 145
SWIDTH 54 0
DWIDTH 8 0
BBX 1 1 7 -2
BITMAP
00
ENDCHAR
STARTCHAR quoteright
ENCODING 146
SWIDTH 54 0
DWIDTH 8 0
BBX 1 1 7 -2
BITMAP
00
ENDCHAR
STARTCHAR quotedblleft
ENCODING 147
SWIDTH 54 0
DWIDTH 8 0
BBX 1 1 7 -2
BITMAP
00
ENDCHAR
STARTCHAR quotedblright
ENCODING 148
SWIDTH 54 0
DWIDTH 8 0
BBX 1 1 7 -2
BITMAP
00
ENDCHAR
STARTCHAR bullet
ENCODING 149
SWIDTH 54 0
DWIDTH 8 0
BBX 1 1 7 -2
BITMAP
00
ENDCHAR
STARTCHAR endash
ENCODING 150
SWIDTH 54 0
DWIDTH 8 0
BBX 1 1 7 -2
BITMAP
00
ENDCHAR
STARTCHAR emdash
ENCODING 151
SWIDTH 54 0
DWIDTH 8 0
BBX 1 1 7 -2
BITMAP
00
ENDCHAR
STARTCHAR tilde
ENCODING 152
SWIDTH 54 0
DWIDTH 8 0
BBX 1 1 7 -2
BITMAP
00
ENDCHAR
STARTCHAR trademark
ENCODING 153
SWIDTH 54 0
DWIDTH 8 0
BBX 1 1 7 -2
BITMAP
00
ENDCHAR
STARTCHAR scaron
ENCODING 154
SWIDTH 54 0
DWIDTH 8 0
BBX 1 1 7 -2
BITMAP
00
ENDCHAR
STARTCHAR guilsinglright
ENCODING 155
SWIDTH 54 0
DWIDTH 8 0
BBX 1 1 7 -2
BITMAP
00
ENDCHAR
STARTCHAR oe
ENCODING 156
SWIDTH 54 0
DWIDTH 8 0
BBX 1 1 7 -2
BITMAP
00
ENDCHAR
STARTCHAR NameMe.157
ENCODING 157
SWIDTH 54 0
DWIDTH 8 0
BBX 1 1 7 -2
BITMAP
00
ENDCHAR
STARTCHAR zcaron
ENCODING 158
SWIDTH 54 0
DWIDTH 8 0
BBX 1 1 7 -2
BITMAP
00
ENDCHAR
STARTCHAR Ydieresis
ENCODING 159
SWIDTH 54 0
DWIDTH 8 0
BBX 1 1 7 -2
BITMAP
00
ENDCHAR
STARTCHAR uni00A0
ENCODING 160
SWIDTH 54 0
DWIDTH 8 0
BBX 1 1 7 -2
BITMAP
00
ENDCHAR
STARTCHAR exclamdown
ENCODING 161
SWIDTH 54 0
DWIDTH 8 0
BBX 1 1 7 -2
BITMAP
00
ENDCHAR
STARTCHAR cent
ENCODING 162
SWIDTH 54 0
DWIDTH 8 0
BBX 1 1 7 -2
BITMAP
00
ENDCHAR
STARTCHAR sterling
ENCODING 163
SWIDTH 54 0
DWIDTH 8 0
BBX 1 1 7 -2
BITMAP
00
ENDCHAR
STARTCHAR currency
ENCODING 164
SWIDTH 54 0
DWIDTH 8 0
BBX 1 1 7 -2
BITMAP
00
ENDCHAR
STARTCHAR yen
ENCODING 165
SWIDTH 54 0
DWIDTH 8 0
BBX 1 1 7 -2
BITMAP
00
ENDCHAR
STARTCHAR brokenbar
ENCODING 166
SWIDTH 54 0
DWIDTH 8 0
BBX 1 1 7 -2
BITMAP
00
ENDCHAR
STARTCHAR section
ENCODING 167
SWIDTH 54 0
DWIDTH 8 0
BBX 1 1 7 -2
BITMAP
00
ENDCHAR
STARTCHAR dieresis
ENCODING 168
SWIDTH 54 0
DWIDTH 8 0
BBX 1 1 7 -2
BITMAP
00
ENDCHAR
STARTCHAR copyright
ENCODING 169
SWIDTH 54 0
DWIDTH 8 0
BBX 1 1 7 -2
BITMAP
00
ENDCHAR
STARTCHAR ordfeminine
ENCODING 170
SWIDTH 54 0
DWIDTH 8 0
BBX 1 1 7 -2
BITMAP
00
ENDCHAR
STARTCHAR guillemotleft
ENCODING 171
SWIDTH 54 0
DWIDTH 8 0
BBX 1 1 7 -2
BITMAP
00
ENDCHAR
STARTCHAR logicalnot
ENCODING 172
SWIDTH 54 0
DWIDTH 8 0
BBX 1 1 7 -2
BITMAP
00
ENDCHAR
STARTCHAR uni00AD
ENCODING 173
SWIDTH 54 0
DWIDTH 8 0
BBX 1 1 7 -2
BITMAP
00
ENDCHAR
STARTCHAR registered
ENCODING 174
SWIDTH 54 0
DWIDTH 8 0
BBX 1 1 7 -2
BITMAP
00
ENDCHAR
STARTCHAR macron
ENCODING 175
SWIDTH 54 0
DWIDTH 8 0
BBX 1 1 7 -2
BITMAP
00
ENDCHAR
STARTCHAR degree
ENCODING 176
SWIDTH 54 0
DWIDTH 8 0
BBX 1 1 7 -2
BITMAP
00
ENDCHAR
STARTCHAR plusminus
ENCODING 177
SWIDTH 54 0
DWIDTH 8 0
BBX 1 1 7 -2
BITMAP
00
ENDCHAR
STARTCHAR uni00B2
ENCODING 178
SWIDTH 54 0
DWIDTH 8 0
BBX 1 1 7 -2
BITMAP
00
ENDCHAR
STARTCHAR uni00B3
ENCODING 179
SWIDTH 54 0
DWIDTH 8 0
BBX 1 1 7 -2
BITMAP
00
ENDCHAR
STARTCHAR acute
ENCODING 180
SWIDTH 54 0
DWIDTH 8 0
BBX 1 1 7 -2
BITMAP
00
ENDCHAR
STARTCHAR uni00B5
ENCODING 181
SWIDTH 54 0
DWIDTH 8 0
BBX 1 1 7 -2
BITMAP
00
ENDCHAR
STARTCHAR paragraph
ENCODING 182
SWIDTH 54 0
DWIDTH 8 0
BBX 1 1 7 -2
BITMAP
00
ENDCHAR
STARTCHAR periodcentered
ENCODING 183
SWIDTH 54 0
DWIDTH 8 0
BBX 1 1 7 -2
BITMAP
00
ENDCHAR
STARTCHAR cedilla
ENCODING 184
SWIDTH 54 0
DWIDTH 8 0
BBX 1 1 7 -2
BITMAP
00
ENDCHAR
STARTCHAR uni00B9
ENCODING 185
SWIDTH 54 0
DWIDTH 8 0
BBX 1 1 7 -2
BITMAP
00
ENDCHAR
STARTCHAR ordmasculine
ENCODING 186
SWIDTH 54 0
DWIDTH 8 0
BBX 1 1 7 -2
BITMAP
00
ENDCHAR
STARTCHAR guillemotright
ENCODING 187
SWIDTH 54 0
DWIDTH 8 0
BBX 1 1 7 -2
BITMAP
00
ENDCHAR
STARTCHAR onequarter
ENCODING 188
SWIDTH 54 0
DWIDTH 8 0
BBX 1 1 7 -2
BITMAP
00
ENDCHAR
STARTCHAR onehalf
ENCODING 189
SWIDTH 54 0
DWIDTH 8 0
BBX 1 1 7 -2
BITMAP
00
ENDCHAR
STARTCHAR threequarters
ENCODING 190
SWIDTH 54 0
DWIDTH 8 0
BBX 1 1 7 -2
BITMAP
00
ENDCHAR
STARTCHAR questiondown
ENCODING 191
SWIDTH 54 0
DWIDTH 8 0
BBX 1 1 7 -2
BITMAP
00
ENDCHAR
STARTCHAR Agrave
ENCODING 192
SWIDTH 54 0
DWIDTH 8 0
BBX 1 1 7 -2
BITMAP
00
ENDCHAR
STARTCHAR Aacute
ENCODING 193
SWIDTH 54 0
DWIDTH 8 0
BBX 1 1 7 -2
BITMAP
00
ENDCHAR
STARTCHAR Acircumflex
ENCODING 194
SWIDTH 54 0
DWIDTH 8 0
BBX 1 1 7 -2
BITMAP
00
ENDCHAR
STARTCHAR Atilde
ENCODING 195
SWIDTH 54 0
DWIDTH 8 0
BBX 1 1 7 -2
BITMAP
00
ENDCHAR
STARTCHAR Adieresis
ENCODING 196
SWIDTH 54 0
DWIDTH 8 0
BBX 1 1 7 -2
BITMAP
00
ENDCHAR
STARTCHAR Aring
ENCODING 197
SWIDTH 54 0
DWIDTH 8 0
BBX 1 1 7 -2
BITMAP
00
ENDCHAR
STARTCHAR AE
ENCODING 198
SWIDTH 54 0
DWIDTH 8 0
BBX 1 1 7 -2
BITMAP
00
ENDCHAR
STARTCHAR Ccedilla
ENCODING 199
SWIDTH 54 0
DWIDTH 8 0
BBX 1 1 7 -2
BITMAP
00
ENDCHAR
STARTCHAR Egrave
ENCODING 200
SWIDTH 54 0
DWIDTH 8 0
BBX 1 1 7 -2
BITMAP
00
ENDCHAR
STARTCHAR Eacute
ENCODING 201
SWIDTH 54 0
DWIDTH 8 0
BBX 1 1 7 -2
BITMAP
00
ENDCHAR
STARTCHAR Ecircumflex
ENCODING 202
SWIDTH 54 0
DWIDTH 8 0
BBX 1 1 7 -2
BITMAP
00
ENDCHAR
STARTCHAR Edieresis
ENCODING 203
SWIDTH 54 0
DWIDTH 8 0
BBX 1 1 7 -2
BITMAP
00
ENDCHAR
STARTCHAR Igrave
ENCODING 204
SWIDTH 54 0
DWIDTH 8 0
BBX 1 1 7 -2
BITMAP
00
ENDCHAR
STARTCHAR Iacute
ENCODING 205
SWIDTH 54 0
DWIDTH 8 0
BBX 1 1 7 -2
BITMAP
00
ENDCHAR
STARTCHAR Icircumflex
ENCODING 206
SWIDTH 54 0
DWIDTH 8 0
BBX 1 1 7 -2
BITMAP
00
ENDCHAR
STARTCHAR Idieresis
ENCODING 207
SWIDTH 54 0
DWIDTH 8 0
BBX 1 1 7 -2
BITMAP
00
ENDCHAR
STARTCHAR Eth
ENCODING 208
SWIDTH 54 0
DWIDTH 8 0
BBX 1 1 7 -2
BITMAP
00
ENDCHAR
STARTCHAR Ntilde
ENCODING 209
SWIDTH 54 0
DWIDTH 8 0
BBX 1 1 7 -2
BITMAP
00
ENDCHAR
STARTCHAR Ograve
ENCODING 210
SWIDTH 54 0
DWIDTH 8 0
BBX 1 1 7 -2
BITMAP
00
ENDCHAR
STARTCHAR Oacute
ENCODING 211
SWIDTH 54 0
DWIDTH 8 0
BBX 1 1 7 -2
BITMAP
00
ENDCHAR
STARTCHAR Ocircumflex
ENCODING 212
SWIDTH 54 0
DWIDTH 8 0
BBX 1 1 7 -2
BITMAP
00
ENDCHAR
STARTCHAR Otilde
ENCODING 213
SWIDTH 54 0
DWIDTH 8 0
BBX 1 1 7 -2
BITMAP
00
ENDCHAR
STARTCHAR Odieresis
ENCODING 214
SWIDTH 54 0
DWIDTH 8 0
BBX 1 1 7 -2
BITMAP
00
ENDCHAR
STARTCHAR multiply
ENCODING 215
SWIDTH 54 0
DWIDTH 8 0
BBX 1 1 7 -2
BITMAP
00
ENDCHAR
STARTCHAR Oslash
ENCODING 216
SWIDTH 54 0
DWIDTH 8 0
BBX 1 1 7 -2
BITMAP
00
ENDCHAR
STARTCHAR Ugrave
ENCODING 217
SWIDTH 54 0
DWIDTH 8 0
BBX 1 1 7 -2
BITMAP
00
ENDCHAR
STARTCHAR Uacute
ENCODING 218
SWIDTH 54 0
DWIDTH 8 0
BBX 1 1 7 -2
BITMAP
00
ENDCHAR
STARTCHAR Ucircumflex
ENCODING 219
SWIDTH 54 0
DWIDTH 8 0
BBX 1 1 7 -2
BITMAP
00
ENDCHAR
STARTCHAR Udieresis
ENCODING 220
SWIDTH 54 0
DWIDTH 8 0
BBX 1 1 7 -2
BITMAP
00
ENDCHAR
STARTCHAR Yacute
ENCODING 221
SWIDTH 54 0
DWIDTH 8 0
BBX 1 1 7 -2
BITMAP
00
ENDCHAR
STARTCHAR Thorn
ENCODING 222
SWIDTH 54 0
DWIDTH 8 0
BBX 1 1 7 -2
BITMAP
00
ENDCHAR
STARTCHAR germandbls
ENCODING 223
SWIDTH 54 0
DWIDTH 8 0
BBX 1 1 7 -2
BITMAP
00
ENDCHAR
STARTCHAR agrave
ENCODING 224
SWIDTH 54 0
DWIDTH 8 0
BBX 1 1 7 -2
BITMAP
00
ENDCHAR
STARTCHAR aacute
ENCODING 225
SWIDTH 54 0
DWIDTH 8 0
BBX 1 1 7 -2
BITMAP
00
ENDCHAR
STARTCHAR acircumflex
ENCODING 226
SWIDTH 54 0
DWIDTH 8 0
BBX 1 1 7 -2
BITMAP
00
ENDCHAR
STARTCHAR atilde
ENCODING 227
SWIDTH 54 0
DWIDTH 8 0
BBX 1 1 7 -2
BITMAP
00
ENDCHAR
STARTCHAR adieresis
ENCODING 228
SWIDTH 54 0
DWIDTH 8 0
BBX 1 1 7 -2
BITMAP
00
ENDCHAR
STARTCHAR aring
ENCODING 229
SWIDTH 54 0
DWIDTH 8 0
BBX 1 1 7 -2
BITMAP
00
ENDCHAR
STARTCHAR ae
ENCODING 230
SWIDTH 54 0
DWIDTH 8 0
BBX 1 1 7 -2
BITMAP
00
ENDCHAR
STARTCHAR ccedilla
ENCODING 231
SWIDTH 54 0
DWIDTH 8 0
BBX 1 1 7 -2
BITMAP
00
ENDCHAR
STARTCHAR egrave
ENCODING 232
SWIDTH 54 0
DWIDTH 8 0
BBX 1 1 7 -2
BITMAP
00
ENDCHAR
STARTCHAR eacute
ENCODING 233
SWIDTH 54 0
DWIDTH 8 0
BBX 1 1 7 -2
BITMAP
00
ENDCHAR
STARTCHAR ecircumflex
ENCODING 234
SWIDTH 54 0
DWIDTH 8 0
BBX 1 1 7 -2
BITMAP
00
ENDCHAR
STARTCHAR edieresis
ENCODING 235
SWIDTH 54 0
DWIDTH 8 0
BBX 1 1 7 -2
BITMAP
00
ENDCHAR
STARTCHAR igrave
ENCODING 236
SWIDTH 54 0
DWIDTH 8 0
BBX 1 1 7 -2
BITMAP
00
ENDCHAR
STARTCHAR iacute
ENCODING 237
SWIDTH 54 0
DWIDTH 8 0
BBX 1 1 7 -2
BITMAP
00
ENDCHAR
STARTCHAR icircumflex
ENCODING 238
SWIDTH 54 0
DWIDTH 8 0
BBX 1 1 7 -2
BITMAP
00
ENDCHAR
STARTCHAR idieresis
ENCODING 239
SWIDTH 54 0
DWIDTH 8 0
BBX 1 1 7 -2
BITMAP
00
ENDCHAR
STARTCHAR eth
ENCODING 240
SWIDTH 54 0
DWIDTH 8 0
BBX 1 1 7 -2
BITMAP
00
ENDCHAR
STARTCHAR ntilde
ENCODING 241
SWIDTH 54 0
DWIDTH 8 0
BBX 1 1 7 -2
BITMAP
00
ENDCHAR
STARTCHAR ograve
ENCODING 242
SWIDTH 54 0
DWIDTH 8 0
BBX 1 1 7 -2
BITMAP
00
ENDCHAR
STARTCHAR oacute
ENCODING 243
SWIDTH 54 0
DWIDTH 8 0
BBX 1 1 7 -2
BITMAP
00
ENDCHAR
STARTCHAR ocircumflex
ENCODING 244
SWIDTH 54 0
DWIDTH 8 0
BBX 1 1 7 -2
BITMAP
00
ENDCHAR
STARTCHAR otilde
ENCODING 245
SWIDTH 54 0
DWIDTH 8 0
BBX 1 1 7 -2
BITMAP
00
ENDCHAR
STARTCHAR odieresis
ENCODING 246
SWIDTH 54 0
DWIDTH 8 0
BBX 1 1 7 -2
BITMAP
00
ENDCHAR
STARTCHAR divide
ENCODING 247
SWIDTH 54 0
DWIDTH 8 0
BBX 1 1 7 -2
BITMAP
00
ENDCHAR
STARTCHAR oslash
ENCODING 248
SWIDTH 54 0
DWIDTH 8 0
BBX 1 1 7 -2
BITMAP
00
ENDCHAR
STARTCHAR ugrave
ENCODING 249
SWIDTH 54 0
DWIDTH 8 0
BBX 1 1 7 -2
BITMAP
00
ENDCHAR
STARTCHAR uacute
ENCODING 250
SWIDTH 54 0
DWIDTH 8 0
BBX 1 1 7 -2
BITMAP
00
ENDCHAR
STARTCHAR ucircumflex
ENCODING 251
SWIDTH 54 0
DWIDTH 8 0
BBX 1 1 7 -2
BITMAP
00
ENDCHAR
STARTCHAR udieresis
ENCODING 252
SWIDTH 54 0
DWIDTH 8 0
BBX 1 1 7 -2
BITMAP
00
ENDCHAR
STARTCHAR yacute
ENCODING 253
SWIDTH 54 0
DWIDTH 8 0
BBX 1 1 7 -2
BITMAP
00
ENDCHAR
STARTCHAR thorn
ENCODING 254
SWIDTH 54 0
DWIDTH 8 0
BBX 1 1 7 -2
BITMAP
00
ENDCHAR
STARTCHAR ydieresis
ENCODING 255
SWIDTH 54 0
DWIDTH 8 0
BBX 1 1 7 -2
BITMAP
00
ENDCHAR
ENDFONT
